<svg width="61" height="61" viewBox="0 0 61 61" fill="none" xmlns="http://www.w3.org/2000/svg">
<g clip-path="url(#clip0_13_5998)">
<path d="M16.7713 0.0110385C12.9283 -0.0499615 9.14631 1.84104 6.95031 7.20904C-0.247694 24.472 29.7643 42.345 29.7643 42.345C29.7643 42.345 59.7763 24.411 52.6393 7.20904C46.6613 -7.12596 29.7643 3.18304 29.7643 10.137C29.7643 5.80604 23.1763 0.133038 16.7713 0.0110385Z" fill="#DB615D"/>
<path d="M49.2233 2.3291C48.9793 15.2611 39.4633 31.3651 24.8233 29.9011C12.3793 28.6811 7.7433 16.7861 6.0963 9.8321C2.6803 26.2411 29.7643 42.3451 29.7643 42.3451C29.7643 42.3451 59.7763 24.4111 52.6393 7.2091C51.7243 5.0741 50.5653 3.4881 49.2233 2.3291Z" fill="#B44541"/>
<path d="M30.3743 29.0471C30.1913 29.0471 30.0083 28.9861 29.8863 28.8031L19.9433 17.0301L20.0653 25.4481C20.0653 25.7531 19.8213 26.0581 19.5163 26.1191L2.74134 28.9251C2.37534 28.9861 2.07034 28.7421 2.00934 28.3761C1.94834 28.0101 2.19234 27.7051 2.55834 27.6441L18.7843 24.8991L18.6013 15.2001C18.6013 14.8951 18.7843 14.6511 19.0283 14.5901C19.2723 14.4681 19.5773 14.5901 19.7603 14.7731L30.0693 26.9731L32.9363 14.2851C32.9973 13.9801 33.2413 13.7971 33.5463 13.7971C33.8513 13.7971 34.0953 13.9801 34.2173 14.2851L35.8033 19.6531L37.0843 15.9321C37.1453 15.6881 37.3283 15.5661 37.5723 15.5051C37.8163 15.4441 38.0603 15.5661 38.1823 15.7491L40.5003 18.4941L60.0203 13.8581C60.3863 13.7971 60.7523 13.9801 60.8133 14.3461C60.8743 14.7121 60.6913 15.0781 60.3253 15.1391L40.3173 19.7751C40.0733 19.8361 39.8293 19.7751 39.6463 19.5921L37.8163 17.4571L36.2913 22.0321C36.2303 22.2761 35.9863 22.4591 35.6813 22.4591C35.3763 22.4591 35.1323 22.2761 35.0713 21.9711L33.6073 17.0301L31.0453 28.5591C30.9843 28.8031 30.8013 28.9861 30.5573 29.0471C30.4963 29.0471 30.4353 29.0471 30.3743 29.0471Z" fill="#FC9C53"/>
</g>
<defs>
<clipPath id="clip0_13_5998">
<rect width="61" height="61" fill="white"/>
</clipPath>
</defs>
</svg>
