<svg width="75" height="75" viewBox="0 0 75 75" fill="none" xmlns="http://www.w3.org/2000/svg">
<path d="M36.5177 53.5043C47.2427 53.5043 55.8677 44.8793 55.8677 34.1543V16.1543C55.8677 14.2793 54.3677 12.7793 52.4927 12.7793H20.5427C18.6677 12.7793 17.1677 14.2793 17.1677 16.1543V34.1543C17.1677 44.8043 25.7927 53.5043 36.5177 53.5043Z" fill="#586E9F"/>
<path d="M23.8427 20.4292H49.1177C50.0927 20.4292 50.8427 21.1792 50.8427 22.1542V29.3542C50.8427 30.3292 50.0927 31.0792 49.1177 31.0792H23.8427C22.8677 31.0792 22.1177 30.3292 22.1177 29.3542V22.0792C22.1927 21.1792 22.9427 20.4292 23.8427 20.4292Z" fill="#D9E5EF"/>
<path d="M30.9443 45.1792C33.0154 45.1792 34.6943 43.5003 34.6943 41.4292C34.6943 39.3581 33.0154 37.6792 30.9443 37.6792C28.8733 37.6792 27.1943 39.3581 27.1943 41.4292C27.1943 43.5003 28.8733 45.1792 30.9443 45.1792Z" fill="#D9E5EF"/>
<path d="M28.6194 41.5041C28.6194 40.9791 31.7694 39.1791 32.2944 39.4041C32.7444 39.6291 32.7444 43.3791 32.2944 43.6041C31.8444 43.8291 28.6194 41.9541 28.6194 41.5041Z" fill="#2C3955"/>
<path d="M42.0444 45.1792C44.1155 45.1792 45.7944 43.5003 45.7944 41.4292C45.7944 39.3581 44.1155 37.6792 42.0444 37.6792C39.9734 37.6792 38.2944 39.3581 38.2944 41.4292C38.2944 43.5003 39.9734 45.1792 42.0444 45.1792Z" fill="#D9E5EF"/>
<path d="M44.4444 41.5041C44.4444 40.9791 41.2944 39.1791 40.7694 39.4041C40.3194 39.6291 40.3194 43.3791 40.7694 43.6041C41.2194 43.8291 44.4444 41.9541 44.4444 41.5041Z" fill="#2C3955"/>
<path d="M47.8427 12.7793C49.1927 13.8293 50.3927 15.4043 50.9927 17.8043C52.3427 23.5043 54.9677 48.1793 36.2177 50.0543C32.3927 50.4293 29.2427 50.6543 26.5427 50.8043C29.4677 52.6043 32.8427 53.5043 36.5177 53.5043C47.2427 53.5043 55.8677 44.8793 55.8677 34.1543V16.1543C55.8677 14.2793 54.3677 12.7793 52.4927 12.7793H47.8427Z" fill="#495C87"/>
<path d="M25.3426 24.4042C25.1176 24.4042 24.8176 24.4792 24.5176 24.7792C23.1676 26.2042 26.6176 28.4542 26.6176 28.4542C26.6176 28.4542 30.0676 26.2042 28.7176 24.7792C27.6676 23.6542 26.6176 25.1542 26.6176 25.1542C26.6176 25.1542 26.0926 24.4042 25.3426 24.4042Z" fill="#2C3955"/>
<path d="M35.6178 51.7793H37.3428C37.8678 51.7793 38.3178 52.2293 38.3178 52.7543V65.2793C38.3178 65.8043 37.8678 66.2543 37.3428 66.2543H35.6178C35.0928 66.2543 34.6428 65.8043 34.6428 65.2793V52.8293C34.6428 52.2293 35.0928 51.7793 35.6178 51.7793Z" fill="#D9E5EF"/>
<path d="M34.6428 64.8291V65.3541C34.6428 65.8791 35.0928 66.3291 35.6178 66.3291H37.3428C37.8678 66.3291 38.3178 65.8791 38.3178 65.3541V64.8291H34.6428Z" fill="#DB615D"/>
</svg>
