<svg width="50" height="50" viewBox="0 0 50 50" fill="none" xmlns="http://www.w3.org/2000/svg">
<g clip-path="url(#clip0_1_1646)">
<path d="M4.58289 10.6288C-0.706404 18.1269 4.14365 30.6513 15.4158 38.603C26.688 46.5546 40.1137 46.9223 45.403 39.4242C50.6923 31.9261 45.8422 19.4017 34.5701 11.45C23.2979 3.49842 9.87219 3.13076 4.58289 10.6288Z" fill="#FC9C53"/>
<path d="M41.0732 43.0664C29.2561 38.5592 6.29403 27.4648 6.37607 8.71563C5.71987 9.30597 5.16133 9.96081 4.67428 10.6348C-0.640592 18.1748 4.24745 30.6706 15.486 38.6238C24.1168 44.7289 34.3737 46.4812 41.0732 43.0664Z" fill="#EC822F"/>
<path d="M36.8734 13.1332C36.1567 12.5197 35.3851 11.9682 34.6135 11.4167C33.8419 10.8652 33.0702 10.3136 32.2341 9.85973L13.1999 36.862C13.9167 37.4754 14.6883 38.0269 15.4599 38.5784C16.2315 39.13 17.0032 39.6815 17.8392 40.1354L36.8734 13.1332Z" fill="#F28C3D"/>
</g>
<defs>
<clipPath id="clip0_1_1646">
<rect width="50" height="50" fill="white"/>
</clipPath>
</defs>
</svg>
