<svg width="335" height="237" viewBox="0 0 335 237" fill="none" xmlns="http://www.w3.org/2000/svg">
<path d="M146.699 231.75L3.12333 14.1584L292.624 14.1619L220.249 123.917L146.699 231.75Z" fill="#FBE4DA"/>
<path d="M146.803 231.75L17.3511 35.9174L278.372 35.9208L213.117 134.7L146.803 231.75Z" fill="#F4C5B1"/>
<path d="M147.118 232.403L53.5003 91.4999L241.5 91.4999L191.337 167.387L147.118 232.403Z" fill="#EE9074"/>
<path d="M147.231 232.241L79.0002 130L216 130L180.621 183.716L147.231 232.241Z" fill="#E55D42"/>
<path d="M147.389 232.676L103.877 167.312L191.613 167.313L169.679 200.283L147.389 232.676Z" fill="#B44541"/>
<path d="M147.467 232.882L125.629 200.243L169.663 200.244L158.654 216.707L147.467 232.882Z" fill="#E0031E"/>
<path d="M2.646 19.27V29H1.05V19.27H2.646Z" fill="black"/>
<path d="M34.646 82.27V92H33.05V82.27H34.646ZM38.3374 82.27V92H36.7414V82.27H38.3374Z" fill="black"/>
<path d="M52.646 124.27V134H51.05V124.27H52.646ZM56.3374 124.27V134H54.7414V124.27H56.3374ZM60.0288 124.27V134H58.4328V124.27H60.0288ZM61.5922 130.108C61.5922 129.333 61.7509 128.647 62.0682 128.05C62.3949 127.453 62.8336 126.991 63.3842 126.664C63.9442 126.328 64.5602 126.16 65.2322 126.16C65.8389 126.16 66.3662 126.281 66.8142 126.524C67.2716 126.757 67.6356 127.051 67.9062 127.406V126.286H69.5162V134H67.9062V132.852C67.6356 133.216 67.2669 133.519 66.8002 133.762C66.3336 134.005 65.8016 134.126 65.2042 134.126C64.5416 134.126 63.9349 133.958 63.3842 133.622C62.8336 133.277 62.3949 132.801 62.0682 132.194C61.7509 131.578 61.5922 130.883 61.5922 130.108ZM67.9062 130.136C67.9062 129.604 67.7942 129.142 67.5702 128.75C67.3556 128.358 67.0709 128.059 66.7162 127.854C66.3616 127.649 65.9789 127.546 65.5682 127.546C65.1576 127.546 64.7749 127.649 64.4202 127.854C64.0656 128.05 63.7762 128.344 63.5522 128.736C63.3376 129.119 63.2302 129.576 63.2302 130.108C63.2302 130.64 63.3376 131.107 63.5522 131.508C63.7762 131.909 64.0656 132.217 64.4202 132.432C64.7842 132.637 65.1669 132.74 65.5682 132.74C65.9789 132.74 66.3616 132.637 66.7162 132.432C67.0709 132.227 67.3556 131.928 67.5702 131.536C67.7942 131.135 67.9062 130.668 67.9062 130.136Z" fill="black"/>
<path d="M71.646 157.27V167H70.05V157.27H71.646ZM75.3374 157.27V167H73.7414V157.27H75.3374ZM79.0288 157.27V167H77.4328V157.27H79.0288ZM82.7202 160.434C82.9909 160.061 83.3596 159.757 83.8262 159.524C84.3022 159.281 84.8296 159.16 85.4082 159.16C86.0896 159.16 86.7056 159.323 87.2562 159.65C87.8069 159.977 88.2409 160.443 88.5582 161.05C88.8756 161.647 89.0342 162.333 89.0342 163.108C89.0342 163.883 88.8756 164.578 88.5582 165.194C88.2409 165.801 87.8022 166.277 87.2422 166.622C86.6916 166.958 86.0802 167.126 85.4082 167.126C84.8109 167.126 84.2789 167.009 83.8122 166.776C83.3549 166.543 82.9909 166.244 82.7202 165.88V167H81.1242V156.64H82.7202V160.434ZM87.4102 163.108C87.4102 162.576 87.2982 162.119 87.0742 161.736C86.8596 161.344 86.5702 161.05 86.2062 160.854C85.8516 160.649 85.4689 160.546 85.0582 160.546C84.6569 160.546 84.2742 160.649 83.9102 160.854C83.5556 161.059 83.2662 161.358 83.0422 161.75C82.8276 162.142 82.7202 162.604 82.7202 163.136C82.7202 163.668 82.8276 164.135 83.0422 164.536C83.2662 164.928 83.5556 165.227 83.9102 165.432C84.2742 165.637 84.6569 165.74 85.0582 165.74C85.4689 165.74 85.8516 165.637 86.2062 165.432C86.5702 165.217 86.8596 164.909 87.0742 164.508C87.2982 164.107 87.4102 163.64 87.4102 163.108Z" fill="black"/>
<path d="M100.646 188.27V198H99.05V188.27H100.646ZM111.127 188.27L107.473 198H105.625L101.957 188.27H103.665L106.549 196.362L109.447 188.27H111.127Z" fill="black"/>
<path d="M132.436 221.27L128.782 231H126.934L123.266 221.27H124.974L127.858 229.362L130.756 221.27H132.436Z" fill="black"/>
<path d="M285.287 40.708C285.375 41.228 285.575 41.628 285.887 41.908C286.199 42.188 286.627 42.328 287.171 42.328C287.923 42.328 288.479 42.036 288.839 41.452C289.207 40.86 289.375 39.884 289.343 38.524C289.191 38.964 288.899 39.312 288.467 39.568C288.043 39.816 287.555 39.94 287.003 39.94C286.163 39.94 285.487 39.688 284.975 39.184C284.471 38.68 284.219 37.98 284.219 37.084C284.219 36.548 284.323 36.064 284.531 35.632C284.739 35.2 285.055 34.86 285.479 34.612C285.903 34.364 286.423 34.24 287.039 34.24C288.175 34.24 288.967 34.612 289.415 35.356C289.863 36.092 290.087 37.152 290.087 38.536C290.087 40.032 289.863 41.156 289.415 41.908C288.975 42.66 288.215 43.036 287.135 43.036C286.343 43.036 285.727 42.824 285.287 42.4C284.847 41.968 284.587 41.404 284.507 40.708H285.287ZM287.135 39.22C287.511 39.22 287.855 39.144 288.167 38.992C288.487 38.832 288.743 38.6 288.935 38.296C289.127 37.992 289.223 37.628 289.223 37.204C289.223 36.548 289.035 36.008 288.659 35.584C288.291 35.16 287.759 34.948 287.063 34.948C286.447 34.948 285.951 35.14 285.575 35.524C285.207 35.908 285.023 36.42 285.023 37.06C285.023 37.732 285.207 38.26 285.575 38.644C285.943 39.028 286.463 39.22 287.135 39.22ZM291.671 38.62C291.671 37.244 291.883 36.176 292.307 35.416C292.731 34.656 293.491 34.276 294.587 34.276C295.683 34.276 296.443 34.656 296.867 35.416C297.291 36.176 297.503 37.244 297.503 38.62C297.503 40.02 297.291 41.104 296.867 41.872C296.443 42.64 295.683 43.024 294.587 43.024C293.483 43.024 292.719 42.64 292.295 41.872C291.879 41.104 291.671 40.02 291.671 38.62ZM296.675 38.62C296.675 37.876 296.623 37.248 296.519 36.736C296.415 36.224 296.211 35.812 295.907 35.5C295.603 35.188 295.163 35.032 294.587 35.032C294.011 35.032 293.571 35.188 293.267 35.5C292.963 35.812 292.759 36.224 292.655 36.736C292.551 37.248 292.499 37.876 292.499 38.62C292.499 39.388 292.551 40.032 292.655 40.552C292.759 41.064 292.963 41.476 293.267 41.788C293.571 42.1 294.011 42.256 294.587 42.256C295.163 42.256 295.603 42.1 295.907 41.788C296.211 41.476 296.415 41.064 296.519 40.552C296.623 40.032 296.675 39.388 296.675 38.62ZM298.801 36.196C298.801 35.684 298.957 35.272 299.269 34.96C299.589 34.64 299.993 34.48 300.481 34.48C300.977 34.48 301.381 34.64 301.693 34.96C302.013 35.272 302.173 35.684 302.173 36.196C302.173 36.716 302.013 37.136 301.693 37.456C301.381 37.768 300.977 37.924 300.481 37.924C299.993 37.924 299.589 37.768 299.269 37.456C298.957 37.136 298.801 36.716 298.801 36.196ZM305.521 34.6L300.601 43H299.749L304.681 34.6H305.521ZM300.481 35.02C300.177 35.02 299.933 35.124 299.749 35.332C299.573 35.532 299.485 35.82 299.485 36.196C299.485 36.572 299.573 36.864 299.749 37.072C299.933 37.28 300.177 37.384 300.481 37.384C300.785 37.384 301.029 37.28 301.213 37.072C301.397 36.864 301.489 36.572 301.489 36.196C301.489 35.828 301.397 35.54 301.213 35.332C301.029 35.124 300.785 35.02 300.481 35.02ZM303.121 41.404C303.121 40.884 303.277 40.468 303.589 40.156C303.909 39.836 304.313 39.676 304.801 39.676C305.289 39.676 305.689 39.836 306.001 40.156C306.321 40.468 306.481 40.884 306.481 41.404C306.481 41.924 306.321 42.344 306.001 42.664C305.689 42.976 305.289 43.132 304.801 43.132C304.313 43.132 303.909 42.976 303.589 42.664C303.277 42.344 303.121 41.924 303.121 41.404ZM304.801 40.228C304.497 40.228 304.253 40.332 304.069 40.54C303.885 40.748 303.793 41.036 303.793 41.404C303.793 41.772 303.885 42.06 304.069 42.268C304.253 42.476 304.497 42.58 304.801 42.58C305.105 42.58 305.345 42.48 305.521 42.28C305.705 42.072 305.797 41.78 305.797 41.404C305.797 41.028 305.705 40.74 305.521 40.54C305.345 40.332 305.105 40.228 304.801 40.228Z" fill="#50555C"/>
<path d="M297.763 10.152V9.396H299.803V18H298.951V10.152H297.763ZM301.675 13.62C301.675 12.244 301.887 11.176 302.311 10.416C302.735 9.656 303.495 9.276 304.591 9.276C305.687 9.276 306.447 9.656 306.871 10.416C307.295 11.176 307.507 12.244 307.507 13.62C307.507 15.02 307.295 16.104 306.871 16.872C306.447 17.64 305.687 18.024 304.591 18.024C303.487 18.024 302.723 17.64 302.299 16.872C301.883 16.104 301.675 15.02 301.675 13.62ZM306.679 13.62C306.679 12.876 306.627 12.248 306.523 11.736C306.419 11.224 306.215 10.812 305.911 10.5C305.607 10.188 305.167 10.032 304.591 10.032C304.015 10.032 303.575 10.188 303.271 10.5C302.967 10.812 302.763 11.224 302.659 11.736C302.555 12.248 302.503 12.876 302.503 13.62C302.503 14.388 302.555 15.032 302.659 15.552C302.763 16.064 302.967 16.476 303.271 16.788C303.575 17.1 304.015 17.256 304.591 17.256C305.167 17.256 305.607 17.1 305.911 16.788C306.215 16.476 306.419 16.064 306.523 15.552C306.627 15.032 306.679 14.388 306.679 13.62ZM309.069 13.62C309.069 12.244 309.281 11.176 309.705 10.416C310.129 9.656 310.889 9.276 311.985 9.276C313.081 9.276 313.841 9.656 314.265 10.416C314.689 11.176 314.901 12.244 314.901 13.62C314.901 15.02 314.689 16.104 314.265 16.872C313.841 17.64 313.081 18.024 311.985 18.024C310.881 18.024 310.117 17.64 309.693 16.872C309.277 16.104 309.069 15.02 309.069 13.62ZM314.073 13.62C314.073 12.876 314.021 12.248 313.917 11.736C313.813 11.224 313.609 10.812 313.305 10.5C313.001 10.188 312.561 10.032 311.985 10.032C311.409 10.032 310.969 10.188 310.665 10.5C310.361 10.812 310.157 11.224 310.053 11.736C309.949 12.248 309.897 12.876 309.897 13.62C309.897 14.388 309.949 15.032 310.053 15.552C310.157 16.064 310.361 16.476 310.665 16.788C310.969 17.1 311.409 17.256 311.985 17.256C312.561 17.256 313.001 17.1 313.305 16.788C313.609 16.476 313.813 16.064 313.917 15.552C314.021 15.032 314.073 14.388 314.073 13.62ZM316.2 11.196C316.2 10.684 316.356 10.272 316.668 9.96C316.988 9.64 317.392 9.48 317.88 9.48C318.376 9.48 318.78 9.64 319.092 9.96C319.412 10.272 319.572 10.684 319.572 11.196C319.572 11.716 319.412 12.136 319.092 12.456C318.78 12.768 318.376 12.924 317.88 12.924C317.392 12.924 316.988 12.768 316.668 12.456C316.356 12.136 316.2 11.716 316.2 11.196ZM322.92 9.6L318 18H317.148L322.08 9.6H322.92ZM317.88 10.02C317.576 10.02 317.332 10.124 317.148 10.332C316.972 10.532 316.884 10.82 316.884 11.196C316.884 11.572 316.972 11.864 317.148 12.072C317.332 12.28 317.576 12.384 317.88 12.384C318.184 12.384 318.428 12.28 318.612 12.072C318.796 11.864 318.888 11.572 318.888 11.196C318.888 10.828 318.796 10.54 318.612 10.332C318.428 10.124 318.184 10.02 317.88 10.02ZM320.52 16.404C320.52 15.884 320.676 15.468 320.988 15.156C321.308 14.836 321.712 14.676 322.2 14.676C322.688 14.676 323.088 14.836 323.4 15.156C323.72 15.468 323.88 15.884 323.88 16.404C323.88 16.924 323.72 17.344 323.4 17.664C323.088 17.976 322.688 18.132 322.2 18.132C321.712 18.132 321.308 17.976 320.988 17.664C320.676 17.344 320.52 16.924 320.52 16.404ZM322.2 15.228C321.896 15.228 321.652 15.332 321.468 15.54C321.284 15.748 321.192 16.036 321.192 16.404C321.192 16.772 321.284 17.06 321.468 17.268C321.652 17.476 321.896 17.58 322.2 17.58C322.504 17.58 322.744 17.48 322.92 17.28C323.104 17.072 323.196 16.78 323.196 16.404C323.196 16.028 323.104 15.74 322.92 15.54C322.744 15.332 322.504 15.228 322.2 15.228Z" fill="#50555C"/>
<path d="M245.724 99.496C245.548 98.456 244.944 97.936 243.912 97.936C243.128 97.936 242.54 98.24 242.148 98.848C241.756 99.456 241.576 100.452 241.608 101.836C241.768 101.356 242.072 100.98 242.52 100.708C242.976 100.428 243.496 100.288 244.08 100.288C244.92 100.288 245.584 100.548 246.072 101.068C246.568 101.58 246.816 102.288 246.816 103.192C246.816 103.72 246.712 104.2 246.504 104.632C246.304 105.056 245.992 105.396 245.568 105.652C245.152 105.908 244.632 106.036 244.008 106.036C242.816 106.036 241.992 105.656 241.536 104.896C241.088 104.136 240.864 103.06 240.864 101.668C240.864 98.708 241.88 97.228 243.912 97.228C244.68 97.228 245.284 97.44 245.724 97.864C246.164 98.28 246.424 98.824 246.504 99.496H245.724ZM243.924 101.008C243.548 101.008 243.192 101.084 242.856 101.236C242.52 101.388 242.244 101.62 242.028 101.932C241.82 102.236 241.716 102.612 241.716 103.06C241.716 103.708 241.908 104.248 242.292 104.68C242.676 105.112 243.236 105.328 243.972 105.328C244.588 105.328 245.08 105.14 245.448 104.764C245.816 104.388 246 103.876 246 103.228C246 102.532 245.82 101.988 245.46 101.596C245.1 101.204 244.588 101.008 243.924 101.008ZM248.327 101.62C248.327 100.244 248.539 99.176 248.963 98.416C249.387 97.656 250.147 97.276 251.243 97.276C252.339 97.276 253.099 97.656 253.523 98.416C253.947 99.176 254.159 100.244 254.159 101.62C254.159 103.02 253.947 104.104 253.523 104.872C253.099 105.64 252.339 106.024 251.243 106.024C250.139 106.024 249.375 105.64 248.951 104.872C248.535 104.104 248.327 103.02 248.327 101.62ZM253.331 101.62C253.331 100.876 253.279 100.248 253.175 99.736C253.071 99.224 252.867 98.812 252.563 98.5C252.259 98.188 251.819 98.032 251.243 98.032C250.667 98.032 250.227 98.188 249.923 98.5C249.619 98.812 249.415 99.224 249.311 99.736C249.207 100.248 249.155 100.876 249.155 101.62C249.155 102.388 249.207 103.032 249.311 103.552C249.415 104.064 249.619 104.476 249.923 104.788C250.227 105.1 250.667 105.256 251.243 105.256C251.819 105.256 252.259 105.1 252.563 104.788C252.867 104.476 253.071 104.064 253.175 103.552C253.279 103.032 253.331 102.388 253.331 101.62ZM255.457 99.196C255.457 98.684 255.613 98.272 255.925 97.96C256.245 97.64 256.649 97.48 257.137 97.48C257.633 97.48 258.037 97.64 258.349 97.96C258.669 98.272 258.829 98.684 258.829 99.196C258.829 99.716 258.669 100.136 258.349 100.456C258.037 100.768 257.633 100.924 257.137 100.924C256.649 100.924 256.245 100.768 255.925 100.456C255.613 100.136 255.457 99.716 255.457 99.196ZM262.177 97.6L257.257 106H256.405L261.337 97.6H262.177ZM257.137 98.02C256.833 98.02 256.589 98.124 256.405 98.332C256.229 98.532 256.141 98.82 256.141 99.196C256.141 99.572 256.229 99.864 256.405 100.072C256.589 100.28 256.833 100.384 257.137 100.384C257.441 100.384 257.685 100.28 257.869 100.072C258.053 99.864 258.145 99.572 258.145 99.196C258.145 98.828 258.053 98.54 257.869 98.332C257.685 98.124 257.441 98.02 257.137 98.02ZM259.777 104.404C259.777 103.884 259.933 103.468 260.245 103.156C260.565 102.836 260.969 102.676 261.457 102.676C261.945 102.676 262.345 102.836 262.657 103.156C262.977 103.468 263.137 103.884 263.137 104.404C263.137 104.924 262.977 105.344 262.657 105.664C262.345 105.976 261.945 106.132 261.457 106.132C260.969 106.132 260.565 105.976 260.245 105.664C259.933 105.344 259.777 104.924 259.777 104.404ZM261.457 103.228C261.153 103.228 260.909 103.332 260.725 103.54C260.541 103.748 260.449 104.036 260.449 104.404C260.449 104.772 260.541 105.06 260.725 105.268C260.909 105.476 261.153 105.58 261.457 105.58C261.761 105.58 262.001 105.48 262.177 105.28C262.361 105.072 262.453 104.78 262.453 104.404C262.453 104.028 262.361 103.74 262.177 103.54C262.001 103.332 261.761 103.228 261.457 103.228Z" fill="#50555C"/>
<path d="M221.408 136.96V136.324L225.776 130.444H226.772V136.228H228.056V136.96H226.772V139H225.944V136.96H221.408ZM225.98 131.368L222.38 136.228H225.98V131.368ZM234.563 131.116H230.171V134.188C230.371 133.908 230.663 133.68 231.047 133.504C231.431 133.32 231.847 133.228 232.295 133.228C232.951 133.228 233.487 133.364 233.903 133.636C234.319 133.9 234.619 134.248 234.803 134.68C234.987 135.104 235.079 135.56 235.079 136.048C235.079 136.608 234.971 137.116 234.755 137.572C234.547 138.02 234.223 138.376 233.783 138.64C233.351 138.904 232.811 139.036 232.163 139.036C231.339 139.036 230.671 138.824 230.159 138.4C229.647 137.968 229.335 137.388 229.223 136.66H230.051C230.155 137.188 230.395 137.596 230.771 137.884C231.147 138.172 231.611 138.316 232.163 138.316C232.859 138.316 233.383 138.112 233.735 137.704C234.095 137.288 234.275 136.74 234.275 136.06C234.275 135.396 234.095 134.88 233.735 134.512C233.375 134.136 232.859 133.948 232.187 133.948C231.723 133.948 231.315 134.056 230.963 134.272C230.611 134.488 230.351 134.78 230.183 135.148H229.391V130.384H234.563V131.116ZM236.282 132.196C236.282 131.684 236.438 131.272 236.75 130.96C237.07 130.64 237.474 130.48 237.962 130.48C238.458 130.48 238.862 130.64 239.174 130.96C239.494 131.272 239.654 131.684 239.654 132.196C239.654 132.716 239.494 133.136 239.174 133.456C238.862 133.768 238.458 133.924 237.962 133.924C237.474 133.924 237.07 133.768 236.75 133.456C236.438 133.136 236.282 132.716 236.282 132.196ZM243.002 130.6L238.082 139H237.23L242.162 130.6H243.002ZM237.962 131.02C237.658 131.02 237.414 131.124 237.23 131.332C237.054 131.532 236.966 131.82 236.966 132.196C236.966 132.572 237.054 132.864 237.23 133.072C237.414 133.28 237.658 133.384 237.962 133.384C238.266 133.384 238.51 133.28 238.694 133.072C238.878 132.864 238.97 132.572 238.97 132.196C238.97 131.828 238.878 131.54 238.694 131.332C238.51 131.124 238.266 131.02 237.962 131.02ZM240.602 137.404C240.602 136.884 240.758 136.468 241.07 136.156C241.39 135.836 241.794 135.676 242.282 135.676C242.77 135.676 243.17 135.836 243.482 136.156C243.802 136.468 243.962 136.884 243.962 137.404C243.962 137.924 243.802 138.344 243.482 138.664C243.17 138.976 242.77 139.132 242.282 139.132C241.794 139.132 241.39 138.976 241.07 138.664C240.758 138.344 240.602 137.924 240.602 137.404ZM242.282 136.228C241.978 136.228 241.734 136.332 241.55 136.54C241.366 136.748 241.274 137.036 241.274 137.404C241.274 137.772 241.366 138.06 241.55 138.268C241.734 138.476 241.978 138.58 242.282 138.58C242.586 138.58 242.826 138.48 243.002 138.28C243.186 138.072 243.278 137.78 243.278 137.404C243.278 137.028 243.186 136.74 243.002 136.54C242.826 136.332 242.586 136.228 242.282 136.228Z" fill="#50555C"/>
<path d="M198.744 163.592C198.8 162.864 199.08 162.292 199.584 161.876C200.096 161.452 200.756 161.24 201.564 161.24C202.1 161.24 202.56 161.336 202.944 161.528C203.328 161.72 203.616 161.984 203.808 162.32C204.008 162.648 204.108 163.02 204.108 163.436C204.108 163.94 203.96 164.376 203.664 164.744C203.368 165.112 202.948 165.34 202.404 165.428V165.488C202.972 165.6 203.424 165.848 203.76 166.232C204.096 166.608 204.264 167.104 204.264 167.72C204.264 168.408 204.032 168.972 203.568 169.412C203.112 169.844 202.448 170.06 201.576 170.06C200.744 170.06 200.06 169.844 199.524 169.412C198.988 168.972 198.68 168.352 198.6 167.552H199.416C199.488 168.088 199.712 168.524 200.088 168.86C200.464 169.188 200.96 169.352 201.576 169.352C202.184 169.352 202.648 169.192 202.968 168.872C203.296 168.552 203.46 168.144 203.46 167.648C203.46 166.432 202.584 165.824 200.832 165.824H200.568V165.116H200.844C202.476 165.116 203.292 164.584 203.292 163.52C203.292 163.056 203.14 162.684 202.836 162.404C202.532 162.116 202.1 161.972 201.54 161.972C200.996 161.972 200.544 162.116 200.184 162.404C199.832 162.684 199.624 163.08 199.56 163.592H198.744ZM205.8 165.62C205.8 164.244 206.012 163.176 206.436 162.416C206.86 161.656 207.62 161.276 208.716 161.276C209.812 161.276 210.572 161.656 210.996 162.416C211.42 163.176 211.632 164.244 211.632 165.62C211.632 167.02 211.42 168.104 210.996 168.872C210.572 169.64 209.812 170.024 208.716 170.024C207.612 170.024 206.848 169.64 206.424 168.872C206.008 168.104 205.8 167.02 205.8 165.62ZM210.804 165.62C210.804 164.876 210.752 164.248 210.648 163.736C210.544 163.224 210.34 162.812 210.036 162.5C209.732 162.188 209.292 162.032 208.716 162.032C208.14 162.032 207.7 162.188 207.396 162.5C207.092 162.812 206.888 163.224 206.784 163.736C206.68 164.248 206.628 164.876 206.628 165.62C206.628 166.388 206.68 167.032 206.784 167.552C206.888 168.064 207.092 168.476 207.396 168.788C207.7 169.1 208.14 169.256 208.716 169.256C209.292 169.256 209.732 169.1 210.036 168.788C210.34 168.476 210.544 168.064 210.648 167.552C210.752 167.032 210.804 166.388 210.804 165.62ZM212.93 163.196C212.93 162.684 213.086 162.272 213.398 161.96C213.718 161.64 214.122 161.48 214.61 161.48C215.106 161.48 215.51 161.64 215.822 161.96C216.142 162.272 216.302 162.684 216.302 163.196C216.302 163.716 216.142 164.136 215.822 164.456C215.51 164.768 215.106 164.924 214.61 164.924C214.122 164.924 213.718 164.768 213.398 164.456C213.086 164.136 212.93 163.716 212.93 163.196ZM219.65 161.6L214.73 170H213.878L218.81 161.6H219.65ZM214.61 162.02C214.306 162.02 214.062 162.124 213.878 162.332C213.702 162.532 213.614 162.82 213.614 163.196C213.614 163.572 213.702 163.864 213.878 164.072C214.062 164.28 214.306 164.384 214.61 164.384C214.914 164.384 215.158 164.28 215.342 164.072C215.526 163.864 215.618 163.572 215.618 163.196C215.618 162.828 215.526 162.54 215.342 162.332C215.158 162.124 214.914 162.02 214.61 162.02ZM217.25 168.404C217.25 167.884 217.406 167.468 217.718 167.156C218.038 166.836 218.442 166.676 218.93 166.676C219.418 166.676 219.818 166.836 220.13 167.156C220.45 167.468 220.61 167.884 220.61 168.404C220.61 168.924 220.45 169.344 220.13 169.664C219.818 169.976 219.418 170.132 218.93 170.132C218.442 170.132 218.038 169.976 217.718 169.664C217.406 169.344 217.25 168.924 217.25 168.404ZM218.93 167.228C218.626 167.228 218.382 167.332 218.198 167.54C218.014 167.748 217.922 168.036 217.922 168.404C217.922 168.772 218.014 169.06 218.198 169.268C218.382 169.476 218.626 169.58 218.93 169.58C219.234 169.58 219.474 169.48 219.65 169.28C219.834 169.072 219.926 168.78 219.926 168.404C219.926 168.028 219.834 167.74 219.65 167.54C219.474 167.332 219.234 167.228 218.93 167.228Z" fill="#50555C"/>
<path d="M176.372 196.152V195.396H178.412V204H177.56V196.152H176.372ZM185.708 196.116H181.316V199.188C181.516 198.908 181.808 198.68 182.192 198.504C182.576 198.32 182.992 198.228 183.44 198.228C184.096 198.228 184.632 198.364 185.048 198.636C185.464 198.9 185.764 199.248 185.948 199.68C186.132 200.104 186.224 200.56 186.224 201.048C186.224 201.608 186.116 202.116 185.9 202.572C185.692 203.02 185.368 203.376 184.928 203.64C184.496 203.904 183.956 204.036 183.308 204.036C182.484 204.036 181.816 203.824 181.304 203.4C180.792 202.968 180.48 202.388 180.368 201.66H181.196C181.3 202.188 181.54 202.596 181.916 202.884C182.292 203.172 182.756 203.316 183.308 203.316C184.004 203.316 184.528 203.112 184.88 202.704C185.24 202.288 185.42 201.74 185.42 201.06C185.42 200.396 185.24 199.88 184.88 199.512C184.52 199.136 184.004 198.948 183.332 198.948C182.868 198.948 182.46 199.056 182.108 199.272C181.756 199.488 181.496 199.78 181.328 200.148H180.536V195.384H185.708V196.116ZM187.426 197.196C187.426 196.684 187.582 196.272 187.894 195.96C188.214 195.64 188.618 195.48 189.106 195.48C189.602 195.48 190.006 195.64 190.318 195.96C190.638 196.272 190.798 196.684 190.798 197.196C190.798 197.716 190.638 198.136 190.318 198.456C190.006 198.768 189.602 198.924 189.106 198.924C188.618 198.924 188.214 198.768 187.894 198.456C187.582 198.136 187.426 197.716 187.426 197.196ZM194.146 195.6L189.226 204H188.374L193.306 195.6H194.146ZM189.106 196.02C188.802 196.02 188.558 196.124 188.374 196.332C188.198 196.532 188.11 196.82 188.11 197.196C188.11 197.572 188.198 197.864 188.374 198.072C188.558 198.28 188.802 198.384 189.106 198.384C189.41 198.384 189.654 198.28 189.838 198.072C190.022 197.864 190.114 197.572 190.114 197.196C190.114 196.828 190.022 196.54 189.838 196.332C189.654 196.124 189.41 196.02 189.106 196.02ZM191.746 202.404C191.746 201.884 191.902 201.468 192.214 201.156C192.534 200.836 192.938 200.676 193.426 200.676C193.914 200.676 194.314 200.836 194.626 201.156C194.946 201.468 195.106 201.884 195.106 202.404C195.106 202.924 194.946 203.344 194.626 203.664C194.314 203.976 193.914 204.132 193.426 204.132C192.938 204.132 192.534 203.976 192.214 203.664C191.902 203.344 191.746 202.924 191.746 202.404ZM193.426 201.228C193.122 201.228 192.878 201.332 192.694 201.54C192.51 201.748 192.418 202.036 192.418 202.404C192.418 202.772 192.51 203.06 192.694 203.268C192.878 203.476 193.122 203.58 193.426 203.58C193.73 203.58 193.97 203.48 194.146 203.28C194.33 203.072 194.422 202.78 194.422 202.404C194.422 202.028 194.33 201.74 194.146 201.54C193.97 201.332 193.73 201.228 193.426 201.228Z" fill="#50555C"/>
<path d="M168.156 218.72V227H167.316V220.388L164.364 227H163.752L160.8 220.412V227H159.96V218.72H160.848L164.052 225.896L167.256 218.72H168.156ZM175.99 223.388C175.99 223.676 175.982 223.896 175.966 224.048H170.53C170.554 224.544 170.674 224.968 170.89 225.32C171.106 225.672 171.39 225.94 171.742 226.124C172.094 226.3 172.478 226.388 172.894 226.388C173.438 226.388 173.894 226.256 174.262 225.992C174.638 225.728 174.886 225.372 175.006 224.924H175.894C175.734 225.564 175.39 226.088 174.862 226.496C174.342 226.896 173.686 227.096 172.894 227.096C172.278 227.096 171.726 226.96 171.238 226.688C170.75 226.408 170.366 226.016 170.086 225.512C169.814 225 169.678 224.404 169.678 223.724C169.678 223.044 169.814 222.448 170.086 221.936C170.358 221.424 170.738 221.032 171.226 220.76C171.714 220.488 172.27 220.352 172.894 220.352C173.518 220.352 174.062 220.488 174.526 220.76C174.998 221.032 175.358 221.4 175.606 221.864C175.862 222.32 175.99 222.828 175.99 223.388ZM175.138 223.364C175.146 222.876 175.046 222.46 174.838 222.116C174.638 221.772 174.362 221.512 174.01 221.336C173.658 221.16 173.274 221.072 172.858 221.072C172.234 221.072 171.702 221.272 171.262 221.672C170.822 222.072 170.578 222.636 170.53 223.364H175.138ZM177.142 223.712C177.142 223.04 177.278 222.452 177.55 221.948C177.822 221.436 178.194 221.044 178.666 220.772C179.146 220.492 179.686 220.352 180.286 220.352C180.862 220.352 181.382 220.492 181.846 220.772C182.31 221.052 182.65 221.416 182.866 221.864V218.12H183.706V227H182.866V225.536C182.666 225.992 182.338 226.368 181.882 226.664C181.426 226.952 180.89 227.096 180.274 227.096C179.674 227.096 179.134 226.956 178.654 226.676C178.182 226.396 177.81 226 177.538 225.488C177.274 224.976 177.142 224.384 177.142 223.712ZM182.866 223.724C182.866 223.196 182.758 222.732 182.542 222.332C182.326 221.932 182.03 221.624 181.654 221.408C181.286 221.192 180.878 221.084 180.43 221.084C179.966 221.084 179.55 221.188 179.182 221.396C178.814 221.604 178.522 221.908 178.306 222.308C178.098 222.7 177.994 223.168 177.994 223.712C177.994 224.248 178.098 224.72 178.306 225.128C178.522 225.528 178.814 225.836 179.182 226.052C179.55 226.26 179.966 226.364 180.43 226.364C180.878 226.364 181.286 226.256 181.654 226.04C182.03 225.824 182.326 225.516 182.542 225.116C182.758 224.716 182.866 224.252 182.866 223.724ZM186.044 219.212C185.876 219.212 185.732 219.152 185.612 219.032C185.492 218.912 185.432 218.764 185.432 218.588C185.432 218.412 185.492 218.268 185.612 218.156C185.732 218.036 185.876 217.976 186.044 217.976C186.212 217.976 186.356 218.036 186.476 218.156C186.596 218.268 186.656 218.412 186.656 218.588C186.656 218.764 186.596 218.912 186.476 219.032C186.356 219.152 186.212 219.212 186.044 219.212ZM186.464 220.448V227H185.624V220.448H186.464ZM187.982 223.724C187.982 223.044 188.118 222.452 188.39 221.948C188.662 221.436 189.038 221.044 189.518 220.772C189.998 220.492 190.546 220.352 191.162 220.352C191.97 220.352 192.634 220.552 193.154 220.952C193.682 221.352 194.022 221.896 194.174 222.584H193.274C193.162 222.112 192.918 221.744 192.542 221.48C192.174 221.208 191.714 221.072 191.162 221.072C190.722 221.072 190.326 221.172 189.974 221.372C189.622 221.572 189.342 221.872 189.134 222.272C188.934 222.664 188.834 223.148 188.834 223.724C188.834 224.3 188.934 224.788 189.134 225.188C189.342 225.588 189.622 225.888 189.974 226.088C190.326 226.288 190.722 226.388 191.162 226.388C191.714 226.388 192.174 226.256 192.542 225.992C192.918 225.72 193.162 225.344 193.274 224.864H194.174C194.022 225.536 193.682 226.076 193.154 226.484C192.626 226.892 191.962 227.096 191.162 227.096C190.546 227.096 189.998 226.96 189.518 226.688C189.038 226.408 188.662 226.016 188.39 225.512C188.118 225 187.982 224.404 187.982 223.724ZM195.342 223.712C195.342 223.04 195.474 222.452 195.738 221.948C196.01 221.436 196.382 221.044 196.854 220.772C197.334 220.492 197.874 220.352 198.474 220.352C199.098 220.352 199.634 220.496 200.082 220.784C200.538 221.072 200.866 221.44 201.066 221.888V220.448H201.906V227H201.066V225.548C200.858 225.996 200.526 226.368 200.07 226.664C199.622 226.952 199.086 227.096 198.462 227.096C197.87 227.096 197.334 226.956 196.854 226.676C196.382 226.396 196.01 226 195.738 225.488C195.474 224.976 195.342 224.384 195.342 223.712ZM201.066 223.724C201.066 223.196 200.958 222.732 200.742 222.332C200.526 221.932 200.23 221.624 199.854 221.408C199.486 221.192 199.078 221.084 198.63 221.084C198.166 221.084 197.75 221.188 197.382 221.396C197.014 221.604 196.722 221.908 196.506 222.308C196.298 222.7 196.194 223.168 196.194 223.712C196.194 224.248 196.298 224.72 196.506 225.128C196.722 225.528 197.014 225.836 197.382 226.052C197.75 226.26 198.166 226.364 198.63 226.364C199.078 226.364 199.486 226.256 199.854 226.04C200.23 225.824 200.526 225.516 200.742 225.116C200.958 224.716 201.066 224.252 201.066 223.724ZM204.663 221.612C204.847 221.204 205.127 220.888 205.503 220.664C205.887 220.44 206.355 220.328 206.907 220.328V221.204H206.679C206.071 221.204 205.583 221.368 205.215 221.696C204.847 222.024 204.663 222.572 204.663 223.34V227H203.823V220.448H204.663V221.612ZM214.099 223.388C214.099 223.676 214.091 223.896 214.075 224.048H208.639C208.663 224.544 208.783 224.968 208.999 225.32C209.215 225.672 209.499 225.94 209.851 226.124C210.203 226.3 210.587 226.388 211.003 226.388C211.547 226.388 212.003 226.256 212.371 225.992C212.747 225.728 212.995 225.372 213.115 224.924H214.003C213.843 225.564 213.499 226.088 212.971 226.496C212.451 226.896 211.795 227.096 211.003 227.096C210.387 227.096 209.835 226.96 209.347 226.688C208.859 226.408 208.475 226.016 208.195 225.512C207.923 225 207.787 224.404 207.787 223.724C207.787 223.044 207.923 222.448 208.195 221.936C208.467 221.424 208.847 221.032 209.335 220.76C209.823 220.488 210.379 220.352 211.003 220.352C211.627 220.352 212.171 220.488 212.635 220.76C213.107 221.032 213.467 221.4 213.715 221.864C213.971 222.32 214.099 222.828 214.099 223.388ZM213.247 223.364C213.255 222.876 213.155 222.46 212.947 222.116C212.747 221.772 212.471 221.512 212.119 221.336C211.767 221.16 211.383 221.072 210.967 221.072C210.343 221.072 209.811 221.272 209.371 221.672C208.931 222.072 208.687 222.636 208.639 223.364H213.247ZM224.857 223.388C224.857 223.676 224.849 223.896 224.833 224.048H219.397C219.421 224.544 219.541 224.968 219.757 225.32C219.973 225.672 220.257 225.94 220.609 226.124C220.961 226.3 221.345 226.388 221.761 226.388C222.305 226.388 222.761 226.256 223.129 225.992C223.505 225.728 223.753 225.372 223.873 224.924H224.761C224.601 225.564 224.257 226.088 223.729 226.496C223.209 226.896 222.553 227.096 221.761 227.096C221.145 227.096 220.593 226.96 220.105 226.688C219.617 226.408 219.233 226.016 218.953 225.512C218.681 225 218.545 224.404 218.545 223.724C218.545 223.044 218.681 222.448 218.953 221.936C219.225 221.424 219.605 221.032 220.093 220.76C220.581 220.488 221.137 220.352 221.761 220.352C222.385 220.352 222.929 220.488 223.393 220.76C223.865 221.032 224.225 221.4 224.473 221.864C224.729 222.32 224.857 222.828 224.857 223.388ZM224.005 223.364C224.013 222.876 223.913 222.46 223.705 222.116C223.505 221.772 223.229 221.512 222.877 221.336C222.525 221.16 222.141 221.072 221.725 221.072C221.101 221.072 220.569 221.272 220.129 221.672C219.689 222.072 219.445 222.636 219.397 223.364H224.005ZM227.234 218.12V227H226.394V218.12H227.234ZM229.556 219.212C229.388 219.212 229.244 219.152 229.124 219.032C229.004 218.912 228.944 218.764 228.944 218.588C228.944 218.412 229.004 218.268 229.124 218.156C229.244 218.036 229.388 217.976 229.556 217.976C229.724 217.976 229.868 218.036 229.988 218.156C230.108 218.268 230.168 218.412 230.168 218.588C230.168 218.764 230.108 218.912 229.988 219.032C229.868 219.152 229.724 219.212 229.556 219.212ZM229.976 220.448V227H229.136V220.448H229.976ZM234.626 220.352C235.242 220.352 235.778 220.496 236.234 220.784C236.69 221.072 237.018 221.436 237.218 221.876V220.448H238.058V227.168C238.058 227.768 237.926 228.3 237.662 228.764C237.406 229.228 237.046 229.584 236.582 229.832C236.118 230.088 235.59 230.216 234.998 230.216C234.158 230.216 233.458 230.016 232.898 229.616C232.346 229.216 232.002 228.672 231.866 227.984H232.694C232.838 228.44 233.11 228.804 233.51 229.076C233.918 229.348 234.414 229.484 234.998 229.484C235.422 229.484 235.802 229.392 236.138 229.208C236.474 229.032 236.738 228.768 236.93 228.416C237.122 228.064 237.218 227.648 237.218 227.168V225.548C237.01 225.996 236.678 226.368 236.222 226.664C235.774 226.952 235.242 227.096 234.626 227.096C234.026 227.096 233.486 226.956 233.006 226.676C232.534 226.396 232.162 226 231.89 225.488C231.626 224.976 231.494 224.384 231.494 223.712C231.494 223.04 231.626 222.452 231.89 221.948C232.162 221.436 232.534 221.044 233.006 220.772C233.486 220.492 234.026 220.352 234.626 220.352ZM237.218 223.724C237.218 223.196 237.11 222.732 236.894 222.332C236.678 221.932 236.382 221.624 236.006 221.408C235.638 221.192 235.23 221.084 234.782 221.084C234.318 221.084 233.902 221.188 233.534 221.396C233.166 221.604 232.874 221.908 232.658 222.308C232.45 222.7 232.346 223.168 232.346 223.712C232.346 224.248 232.45 224.72 232.658 225.128C232.874 225.528 233.166 225.836 233.534 226.052C233.902 226.26 234.318 226.364 234.782 226.364C235.23 226.364 235.638 226.256 236.006 226.04C236.382 225.824 236.678 225.516 236.894 225.116C237.11 224.716 237.218 224.252 237.218 223.724ZM240.396 219.212C240.228 219.212 240.084 219.152 239.964 219.032C239.844 218.912 239.784 218.764 239.784 218.588C239.784 218.412 239.844 218.268 239.964 218.156C240.084 218.036 240.228 217.976 240.396 217.976C240.564 217.976 240.708 218.036 240.828 218.156C240.948 218.268 241.008 218.412 241.008 218.588C241.008 218.764 240.948 218.912 240.828 219.032C240.708 219.152 240.564 219.212 240.396 219.212ZM240.816 220.448V227H239.976V220.448H240.816ZM243.546 221.9C243.762 221.444 244.094 221.072 244.542 220.784C244.998 220.496 245.534 220.352 246.15 220.352C246.75 220.352 247.286 220.492 247.758 220.772C248.23 221.044 248.598 221.436 248.862 221.948C249.134 222.452 249.27 223.04 249.27 223.712C249.27 224.384 249.134 224.976 248.862 225.488C248.598 226 248.226 226.396 247.746 226.676C247.274 226.956 246.742 227.096 246.15 227.096C245.526 227.096 244.986 226.956 244.53 226.676C244.082 226.388 243.754 226.016 243.546 225.56V227H242.718V218.12H243.546V221.9ZM248.418 223.712C248.418 223.168 248.31 222.7 248.094 222.308C247.886 221.908 247.598 221.604 247.23 221.396C246.862 221.188 246.446 221.084 245.982 221.084C245.534 221.084 245.122 221.192 244.746 221.408C244.378 221.624 244.086 221.932 243.87 222.332C243.654 222.732 243.546 223.196 243.546 223.724C243.546 224.252 243.654 224.716 243.87 225.116C244.086 225.516 244.378 225.824 244.746 226.04C245.122 226.256 245.534 226.364 245.982 226.364C246.446 226.364 246.862 226.26 247.23 226.052C247.598 225.836 247.886 225.528 248.094 225.128C248.31 224.72 248.418 224.248 248.418 223.712ZM251.655 218.12V227H250.815V218.12H251.655ZM259.486 223.388C259.486 223.676 259.478 223.896 259.462 224.048H254.026C254.05 224.544 254.17 224.968 254.386 225.32C254.602 225.672 254.886 225.94 255.238 226.124C255.59 226.3 255.974 226.388 256.39 226.388C256.934 226.388 257.39 226.256 257.758 225.992C258.134 225.728 258.382 225.372 258.502 224.924H259.39C259.23 225.564 258.886 226.088 258.358 226.496C257.838 226.896 257.182 227.096 256.39 227.096C255.774 227.096 255.222 226.96 254.734 226.688C254.246 226.408 253.862 226.016 253.582 225.512C253.31 225 253.174 224.404 253.174 223.724C253.174 223.044 253.31 222.448 253.582 221.936C253.854 221.424 254.234 221.032 254.722 220.76C255.21 220.488 255.766 220.352 256.39 220.352C257.014 220.352 257.558 220.488 258.022 220.76C258.494 221.032 258.854 221.4 259.102 221.864C259.358 222.32 259.486 222.828 259.486 223.388ZM258.634 223.364C258.642 222.876 258.542 222.46 258.334 222.116C258.134 221.772 257.858 221.512 257.506 221.336C257.154 221.16 256.77 221.072 256.354 221.072C255.73 221.072 255.198 221.272 254.758 221.672C254.318 222.072 254.074 222.636 254.026 223.364H258.634ZM266.895 221.156H265.371V227H264.531V221.156H263.619V220.448H264.531V219.992C264.531 219.28 264.711 218.756 265.071 218.42C265.439 218.084 266.031 217.916 266.847 217.916V218.636C266.303 218.636 265.919 218.74 265.695 218.948C265.479 219.156 265.371 219.504 265.371 219.992V220.448H266.895V221.156ZM271.086 227.096C270.47 227.096 269.914 226.96 269.418 226.688C268.93 226.408 268.542 226.016 268.254 225.512C267.974 225 267.834 224.404 267.834 223.724C267.834 223.044 267.978 222.452 268.266 221.948C268.554 221.436 268.946 221.044 269.442 220.772C269.938 220.492 270.494 220.352 271.11 220.352C271.726 220.352 272.282 220.492 272.778 220.772C273.282 221.044 273.674 221.436 273.954 221.948C274.242 222.452 274.386 223.044 274.386 223.724C274.386 224.396 274.242 224.988 273.954 225.5C273.666 226.012 273.27 226.408 272.766 226.688C272.262 226.96 271.702 227.096 271.086 227.096ZM271.086 226.364C271.518 226.364 271.918 226.268 272.286 226.076C272.654 225.876 272.95 225.58 273.174 225.188C273.406 224.788 273.522 224.3 273.522 223.724C273.522 223.148 273.41 222.664 273.186 222.272C272.962 221.872 272.666 221.576 272.298 221.384C271.93 221.184 271.53 221.084 271.098 221.084C270.666 221.084 270.266 221.184 269.898 221.384C269.53 221.576 269.234 221.872 269.01 222.272C268.794 222.664 268.686 223.148 268.686 223.724C268.686 224.3 268.794 224.788 269.01 225.188C269.234 225.58 269.526 225.876 269.886 226.076C270.254 226.268 270.654 226.364 271.086 226.364ZM276.757 221.612C276.941 221.204 277.221 220.888 277.597 220.664C277.981 220.44 278.449 220.328 279.001 220.328V221.204H278.773C278.165 221.204 277.677 221.368 277.309 221.696C276.941 222.024 276.757 222.572 276.757 223.34V227H275.917V220.448H276.757V221.612ZM283.174 223.712C283.174 223.04 283.31 222.452 283.582 221.948C283.854 221.436 284.226 221.044 284.698 220.772C285.178 220.492 285.718 220.352 286.318 220.352C286.894 220.352 287.414 220.492 287.878 220.772C288.342 221.052 288.682 221.416 288.898 221.864V218.12H289.738V227H288.898V225.536C288.698 225.992 288.37 226.368 287.914 226.664C287.458 226.952 286.922 227.096 286.306 227.096C285.706 227.096 285.166 226.956 284.686 226.676C284.214 226.396 283.842 226 283.57 225.488C283.306 224.976 283.174 224.384 283.174 223.712ZM288.898 223.724C288.898 223.196 288.79 222.732 288.574 222.332C288.358 221.932 288.062 221.624 287.686 221.408C287.318 221.192 286.91 221.084 286.462 221.084C285.998 221.084 285.582 221.188 285.214 221.396C284.846 221.604 284.554 221.908 284.338 222.308C284.13 222.7 284.026 223.168 284.026 223.712C284.026 224.248 284.13 224.72 284.338 225.128C284.554 225.528 284.846 225.836 285.214 226.052C285.582 226.26 285.998 226.364 286.462 226.364C286.91 226.364 287.318 226.256 287.686 226.04C288.062 225.824 288.358 225.516 288.574 225.116C288.79 224.716 288.898 224.252 288.898 223.724ZM292.075 219.212C291.907 219.212 291.763 219.152 291.643 219.032C291.523 218.912 291.463 218.764 291.463 218.588C291.463 218.412 291.523 218.268 291.643 218.156C291.763 218.036 291.907 217.976 292.075 217.976C292.243 217.976 292.387 218.036 292.507 218.156C292.627 218.268 292.687 218.412 292.687 218.588C292.687 218.764 292.627 218.912 292.507 219.032C292.387 219.152 292.243 219.212 292.075 219.212ZM292.495 220.448V227H291.655V220.448H292.495ZM294.014 223.712C294.014 223.04 294.146 222.452 294.41 221.948C294.682 221.436 295.054 221.044 295.526 220.772C296.006 220.492 296.546 220.352 297.146 220.352C297.77 220.352 298.306 220.496 298.754 220.784C299.21 221.072 299.538 221.44 299.738 221.888V220.448H300.578V227H299.738V225.548C299.53 225.996 299.198 226.368 298.742 226.664C298.294 226.952 297.758 227.096 297.134 227.096C296.542 227.096 296.006 226.956 295.526 226.676C295.054 226.396 294.682 226 294.41 225.488C294.146 224.976 294.014 224.384 294.014 223.712ZM299.738 223.724C299.738 223.196 299.63 222.732 299.414 222.332C299.198 221.932 298.902 221.624 298.526 221.408C298.158 221.192 297.75 221.084 297.302 221.084C296.838 221.084 296.422 221.188 296.054 221.396C295.686 221.604 295.394 221.908 295.178 222.308C294.97 222.7 294.866 223.168 294.866 223.712C294.866 224.248 294.97 224.72 295.178 225.128C295.394 225.528 295.686 225.836 296.054 226.052C296.422 226.26 296.838 226.364 297.302 226.364C297.75 226.364 298.158 226.256 298.526 226.04C298.902 225.824 299.198 225.516 299.414 225.116C299.63 224.716 299.738 224.252 299.738 223.724ZM303.335 218.12V227H302.495V218.12H303.335ZM310.637 220.448L306.749 230.084H305.873L307.145 226.964L304.457 220.448H305.381L307.613 226.04L309.773 220.448H310.637ZM314.032 227.096C313.28 227.096 312.664 226.924 312.184 226.58C311.712 226.228 311.448 225.752 311.392 225.152H312.256C312.296 225.52 312.468 225.82 312.772 226.052C313.084 226.276 313.5 226.388 314.02 226.388C314.476 226.388 314.832 226.28 315.088 226.064C315.352 225.848 315.484 225.58 315.484 225.26C315.484 225.036 315.412 224.852 315.268 224.708C315.124 224.564 314.94 224.452 314.716 224.372C314.5 224.284 314.204 224.192 313.828 224.096C313.34 223.968 312.944 223.84 312.64 223.712C312.336 223.584 312.076 223.396 311.86 223.148C311.652 222.892 311.548 222.552 311.548 222.128C311.548 221.808 311.644 221.512 311.836 221.24C312.028 220.968 312.3 220.752 312.652 220.592C313.004 220.432 313.404 220.352 313.852 220.352C314.556 220.352 315.124 220.532 315.556 220.892C315.988 221.244 316.22 221.732 316.252 222.356H315.412C315.388 221.972 315.236 221.664 314.956 221.432C314.684 221.192 314.308 221.072 313.828 221.072C313.404 221.072 313.06 221.172 312.796 221.372C312.532 221.572 312.4 221.82 312.4 222.116C312.4 222.372 312.476 222.584 312.628 222.752C312.788 222.912 312.984 223.04 313.216 223.136C313.448 223.224 313.76 223.324 314.152 223.436C314.624 223.564 315 223.688 315.28 223.808C315.56 223.928 315.8 224.104 316 224.336C316.2 224.568 316.304 224.876 316.312 225.26C316.312 225.612 316.216 225.928 316.024 226.208C315.832 226.48 315.564 226.696 315.22 226.856C314.876 227.016 314.48 227.096 314.032 227.096ZM318.314 219.212C318.146 219.212 318.002 219.152 317.882 219.032C317.762 218.912 317.702 218.764 317.702 218.588C317.702 218.412 317.762 218.268 317.882 218.156C318.002 218.036 318.146 217.976 318.314 217.976C318.482 217.976 318.626 218.036 318.746 218.156C318.866 218.268 318.926 218.412 318.926 218.588C318.926 218.764 318.866 218.912 318.746 219.032C318.626 219.152 318.482 219.212 318.314 219.212ZM318.734 220.448V227H317.894V220.448H318.734ZM322.892 227.096C322.14 227.096 321.524 226.924 321.044 226.58C320.572 226.228 320.308 225.752 320.252 225.152H321.116C321.156 225.52 321.328 225.82 321.632 226.052C321.944 226.276 322.36 226.388 322.88 226.388C323.336 226.388 323.692 226.28 323.948 226.064C324.212 225.848 324.344 225.58 324.344 225.26C324.344 225.036 324.272 224.852 324.128 224.708C323.984 224.564 323.8 224.452 323.576 224.372C323.36 224.284 323.064 224.192 322.688 224.096C322.2 223.968 321.804 223.84 321.5 223.712C321.196 223.584 320.936 223.396 320.72 223.148C320.512 222.892 320.408 222.552 320.408 222.128C320.408 221.808 320.504 221.512 320.696 221.24C320.888 220.968 321.16 220.752 321.512 220.592C321.864 220.432 322.264 220.352 322.712 220.352C323.416 220.352 323.984 220.532 324.416 220.892C324.848 221.244 325.08 221.732 325.112 222.356H324.272C324.248 221.972 324.096 221.664 323.816 221.432C323.544 221.192 323.168 221.072 322.688 221.072C322.264 221.072 321.92 221.172 321.656 221.372C321.392 221.572 321.26 221.82 321.26 222.116C321.26 222.372 321.336 222.584 321.488 222.752C321.648 222.912 321.844 223.04 322.076 223.136C322.308 223.224 322.62 223.324 323.012 223.436C323.484 223.564 323.86 223.688 324.14 223.808C324.42 223.928 324.66 224.104 324.86 224.336C325.06 224.568 325.164 224.876 325.172 225.26C325.172 225.612 325.076 225.928 324.884 226.208C324.692 226.48 324.424 226.696 324.08 226.856C323.736 227.016 323.34 227.096 322.892 227.096Z" fill="#50555C"/>
</svg>
