<svg width="60" height="60" viewBox="0 0 60 60" fill="none" xmlns="http://www.w3.org/2000/svg">
<path d="M28.3372 0.973145C28.3372 0.973145 8.0336 29.8789 8.93099 41.5897C9.82839 53.7575 17.905 58.7845 28.3372 59.0702C39.8912 59.3559 47.4068 49.016 47.7434 41.5897C48.192 29.8217 28.3372 0.973145 28.3372 0.973145Z" fill="#DB615D"/>
<path d="M32.656 7.65698C32.7121 7.77123 48.6969 39.8759 29.8516 51.3583C24.8038 54.4431 20.2047 55.5856 16.1663 55.6428C19.4755 57.8706 23.6259 58.9561 28.2812 59.0703C39.8352 59.356 47.3509 49.0161 47.6874 41.5898C48.0239 33.3636 38.489 16.8543 32.656 7.65698Z" fill="#B44541"/>
<path d="M41.7271 58.3335C48.5051 58.3335 53.9998 52.7371 53.9998 45.8335C53.9998 38.9299 48.5051 33.3335 41.7271 33.3335C34.949 33.3335 29.4543 38.9299 29.4543 45.8335C29.4543 52.7371 34.949 58.3335 41.7271 58.3335Z" fill="#F1EADA"/>
<path d="M40.7944 55.1401C39.7362 55.1401 38.7708 54.8401 37.898 54.2401C37.0253 53.6268 36.3326 52.7801 35.8199 51.7001C35.318 50.6068 35.0671 49.3801 35.0671 48.0201C35.0671 46.6601 35.318 45.4401 35.8199 44.3601C36.3326 43.2668 37.0253 42.4201 37.898 41.8201C38.7708 41.2068 39.7362 40.9001 40.7944 40.9001C41.8635 40.9001 42.8344 41.2068 43.7071 41.8201C44.5799 42.4201 45.2671 43.2601 45.769 44.3401C46.2708 45.4201 46.5217 46.6468 46.5217 48.0201C46.5217 49.3935 46.2708 50.6201 45.769 51.7001C45.2671 52.7801 44.5799 53.6268 43.7071 54.2401C42.8344 54.8401 41.8635 55.1401 40.7944 55.1401ZM40.7944 53.5601C41.5908 53.5601 42.3053 53.3335 42.938 52.8801C43.5817 52.4268 44.0835 51.7801 44.4435 50.9401C44.8144 50.1001 44.9999 49.1268 44.9999 48.0201C44.9999 46.9001 44.8144 45.9268 44.4435 45.1001C44.0835 44.2601 43.5871 43.6135 42.9544 43.1601C42.3217 42.7068 41.6017 42.4801 40.7944 42.4801C39.9871 42.4801 39.2671 42.7068 38.6344 43.1601C38.0017 43.6135 37.4999 44.2601 37.129 45.1001C36.769 45.9268 36.589 46.9001 36.589 48.0201C36.589 49.1268 36.769 50.1001 37.129 50.9401C37.4999 51.7801 38.0017 52.4268 38.6344 52.8801C39.278 53.3335 39.998 53.5601 40.7944 53.5601Z" fill="#50555C"/>
<path d="M49.7861 57.1167C50.9407 55.9833 51.8452 55.0555 52.4998 54.3333C53.1543 53.6 53.7043 52.8388 54.1498 52.05C54.6043 51.25 54.8316 50.4667 54.8316 49.7C54.8316 48.9778 54.6861 48.4111 54.3952 48C54.1134 47.5778 53.6544 47.3667 53.018 47.3667C52.3998 47.3667 51.9179 47.6055 51.5725 48.0833C51.2361 48.55 51.0543 49.1778 51.027 49.9667H49.827C49.8635 48.7222 50.1725 47.7612 50.7543 47.0833C51.3362 46.4055 52.0862 46.0667 53.0043 46.0667C53.9407 46.0667 54.6816 46.3833 55.227 47.0166C55.7816 47.65 56.0589 48.5222 56.0589 49.6333C56.0589 50.5555 55.8315 51.4555 55.377 52.3333C54.9315 53.2 54.4225 53.9666 53.8498 54.6333C53.277 55.2888 52.5452 56.0555 51.6543 56.9333H56.3452V58.2H49.7861V57.1167Z" fill="#50555C"/>
</svg>
