<svg width="50" height="37" viewBox="0 0 50 37" fill="none" xmlns="http://www.w3.org/2000/svg">
<path d="M23.8938 12.1688C24.0389 12.3143 24.2113 12.4297 24.4012 12.5085C24.591 12.5872 24.7945 12.6278 25 12.6278C25.2055 12.6278 25.409 12.5872 25.5989 12.5085C25.7887 12.4297 25.9611 12.3143 26.1063 12.1688L30.7938 7.48125C30.939 7.33598 31.0543 7.16351 31.1329 6.9737C31.2115 6.78389 31.252 6.58045 31.252 6.375C31.252 6.16955 31.2115 5.96611 31.1329 5.7763C31.0543 5.58649 30.939 5.41402 30.7938 5.26875C30.6485 5.12348 30.476 5.00824 30.2862 4.92962C30.0964 4.85099 29.893 4.81053 29.6875 4.81053C29.4821 4.81053 29.2786 4.85099 29.0888 4.92962C28.899 5.00824 28.7265 5.12348 28.5813 5.26875L26.5625 7.29063V1.6875C26.5625 1.2731 26.3979 0.875671 26.1049 0.582646C25.8118 0.28962 25.4144 0.125 25 0.125C24.5856 0.125 24.1882 0.28962 23.8952 0.582646C23.6021 0.875671 23.4375 1.2731 23.4375 1.6875V7.29063L21.4188 5.26875C21.2735 5.12348 21.101 5.00824 20.9112 4.92962C20.7214 4.85099 20.518 4.81053 20.3125 4.81053C20.1071 4.81053 19.9036 4.85099 19.7138 4.92962C19.524 5.00824 19.3515 5.12348 19.2063 5.26875C19.061 5.41402 18.9457 5.58649 18.8671 5.7763C18.7885 5.96611 18.748 6.16955 18.748 6.375C18.748 6.58045 18.7885 6.78389 18.8671 6.9737C18.9457 7.16351 19.061 7.33598 19.2063 7.48125L23.8938 12.1688ZM7.32189 10.575C7.6149 10.2821 8.01226 10.1175 8.42657 10.1175C8.84089 10.1175 9.23825 10.2821 9.53126 10.575L13.95 14.9906C14.2346 15.2853 14.3921 15.68 14.3886 16.0897C14.385 16.4994 14.2207 16.8913 13.931 17.181C13.6413 17.4707 13.2494 17.635 12.8397 17.6386C12.43 17.6421 12.0353 17.4846 11.7406 17.2L7.32189 12.7813C7.02896 12.4882 6.86441 12.0909 6.86441 11.6766C6.86441 11.2622 7.02896 10.8649 7.32189 10.5719V10.575ZM42.6781 10.575C42.9701 10.8679 43.1341 11.2646 43.1341 11.6781C43.1341 12.0917 42.9701 12.4884 42.6781 12.7813L38.2594 17.2C38.1153 17.3492 37.9428 17.4683 37.7522 17.5502C37.5616 17.632 37.3565 17.6752 37.1491 17.677C36.9416 17.6788 36.7359 17.6392 36.5438 17.5607C36.3518 17.4821 36.1774 17.3661 36.0306 17.2194C35.8839 17.0727 35.7679 16.8982 35.6894 16.7062C35.6108 16.5142 35.5713 16.3084 35.5731 16.1009C35.5749 15.8935 35.618 15.6884 35.6999 15.4978C35.7817 15.3072 35.9008 15.1348 36.05 14.9906L40.4688 10.5719C40.7618 10.279 41.1591 10.1144 41.5735 10.1144C41.9878 10.1144 42.3851 10.279 42.6781 10.5719V10.575ZM25 18.875C26.6459 18.8745 28.2629 19.3073 29.6885 20.1299C31.1141 20.9526 32.298 22.136 33.1212 23.5612C33.9443 24.9865 34.3778 26.6034 34.3779 28.2493C34.378 29.8952 33.9448 31.5121 33.1219 32.9375H16.875C16.0519 31.5119 15.6187 29.8947 15.619 28.2485C15.6193 26.6023 16.053 24.9853 16.8765 23.5599C17.7001 22.1345 18.8844 20.9512 20.3104 20.1288C21.7364 19.3064 23.3538 18.8739 25 18.875ZM36.5938 32.9375C37.36 31.0401 37.6486 28.9837 37.4345 26.9487C37.2203 24.9137 36.5099 22.9624 35.3655 21.2661C34.2211 19.5698 32.6778 18.1804 30.871 17.2199C29.0643 16.2593 27.0494 15.757 25.0031 15.757C22.9569 15.757 20.942 16.2593 19.1352 17.2199C17.3285 18.1804 15.7852 19.5698 14.6408 21.2661C13.4964 22.9624 12.7859 24.9137 12.5718 26.9487C12.3576 28.9837 12.6463 31.0401 13.4125 32.9375H1.55939C1.14499 32.9375 0.747558 33.1021 0.454533 33.3951C0.161507 33.6882 -0.00311279 34.0856 -0.00311279 34.5C-0.00311279 34.9144 0.161507 35.3118 0.454533 35.6049C0.747558 35.8979 1.14499 36.0625 1.55939 36.0625H48.4344C48.8488 36.0625 49.2462 35.8979 49.5392 35.6049C49.8323 35.3118 49.9969 34.9144 49.9969 34.5C49.9969 34.0856 49.8323 33.6882 49.5392 33.3951C49.2462 33.1021 48.8488 32.9375 48.4344 32.9375H36.5906H36.5938ZM1.22071e-05 28.25C1.22071e-05 27.8356 0.164632 27.4382 0.457658 27.1451C0.750683 26.8521 1.14811 26.6875 1.56251 26.6875H7.81251C8.22691 26.6875 8.62434 26.8521 8.91737 27.1451C9.21039 27.4382 9.37501 27.8356 9.37501 28.25C9.37501 28.6644 9.21039 29.0618 8.91737 29.3549C8.62434 29.6479 8.22691 29.8125 7.81251 29.8125H1.56251C1.14811 29.8125 0.750683 29.6479 0.457658 29.3549C0.164632 29.0618 1.22071e-05 28.6644 1.22071e-05 28.25ZM40.625 28.25C40.625 27.8356 40.7896 27.4382 41.0827 27.1451C41.3757 26.8521 41.7731 26.6875 42.1875 26.6875H48.4375C48.8519 26.6875 49.2493 26.8521 49.5424 27.1451C49.8354 27.4382 50 27.8356 50 28.25C50 28.6644 49.8354 29.0618 49.5424 29.3549C49.2493 29.6479 48.8519 29.8125 48.4375 29.8125H42.1875C41.7731 29.8125 41.3757 29.6479 41.0827 29.3549C40.7896 29.0618 40.625 28.6644 40.625 28.25Z" fill="#F9A12F"/>
</svg>
