<svg width="34" height="42" viewBox="0 0 34 42" fill="none" xmlns="http://www.w3.org/2000/svg">
<path fill-rule="evenodd" clip-rule="evenodd" d="M29.2563 0.166664C29.8421 0.166624 30.4214 0.290136 30.9563 0.529139C31.4912 0.768142 31.9697 1.11726 32.3605 1.55371C32.7514 1.99016 33.0458 2.50413 33.2245 3.06206C33.4033 3.61999 33.4624 4.20935 33.3979 4.79166L29.6938 38.125C29.5809 39.1445 29.096 40.0866 28.3318 40.7709C27.5676 41.4551 26.5778 41.8334 25.5521 41.8333H8.44792C7.42216 41.8334 6.43242 41.4551 5.66822 40.7709C4.90403 40.0866 4.41908 39.1445 4.30625 38.125L0.604166 4.79166C0.53974 4.20953 0.598766 3.62034 0.777394 3.06256C0.956022 2.50477 1.25024 1.9909 1.64085 1.55449C2.03146 1.11807 2.50969 0.768908 3.04434 0.529777C3.579 0.290645 4.15806 0.166917 4.74375 0.166664H29.2563ZM19.0833 27.25C18.5308 27.25 18.0009 27.4695 17.6102 27.8602C17.2195 28.2509 17 28.7808 17 29.3333C17 29.8859 17.2195 30.4158 17.6102 30.8065C18.0009 31.1972 18.5308 31.4167 19.0833 31.4167C19.6359 31.4167 20.1658 31.1972 20.5565 30.8065C20.9472 30.4158 21.1667 29.8859 21.1667 29.3333C21.1667 28.7808 20.9472 28.2509 20.5565 27.8602C20.1658 27.4695 19.6359 27.25 19.0833 27.25ZM12.8333 21C12.2808 21 11.7509 21.2195 11.3602 21.6102C10.9695 22.0009 10.75 22.5308 10.75 23.0833C10.75 23.6359 10.9695 24.1658 11.3602 24.5565C11.7509 24.9472 12.2808 25.1667 12.8333 25.1667C13.3859 25.1667 13.9158 24.9472 14.3065 24.5565C14.6972 24.1658 14.9167 23.6359 14.9167 23.0833C14.9167 22.5308 14.6972 22.0009 14.3065 21.6102C13.9158 21.2195 13.3859 21 12.8333 21ZM29.2563 4.33333H4.74375L5.62917 12.2979L6.01875 12.2292C6.56042 12.1375 7.1875 12.0625 7.89375 12.0208C10.2437 11.8812 13.4417 12.1396 17.1229 13.5896L17.8208 13.8771C20.9292 15.2104 23.5813 15.4854 25.4896 15.4208L28.0396 15.2792L29.2563 4.33333Z" fill="#48CAE4"/>
</svg>
