<svg width="50" height="50" viewBox="0 0 50 50" fill="none" xmlns="http://www.w3.org/2000/svg">
<g clip-path="url(#clip0_12_784)">
<path d="M25 8.76389C25.3684 8.76389 25.7216 8.61756 25.9821 8.3571C26.2426 8.09663 26.3889 7.74336 26.3889 7.375V2.65278C26.3889 2.28443 26.2426 1.93116 25.9821 1.67069C25.7216 1.41022 25.3684 1.26389 25 1.26389C24.6316 1.26389 24.2784 1.41022 24.0179 1.67069C23.7574 1.93116 23.6111 2.28443 23.6111 2.65278V7.375C23.6111 7.74336 23.7574 8.09663 24.0179 8.3571C24.2784 8.61756 24.6316 8.76389 25 8.76389Z" fill="#F9A12F"/>
<path d="M25 41.2361C24.6316 41.2361 24.2784 41.3824 24.0179 41.6429C23.7574 41.9034 23.6111 42.2566 23.6111 42.625V47.3472C23.6111 47.7156 23.7574 48.0689 24.0179 48.3293C24.2784 48.5898 24.6316 48.7361 25 48.7361C25.3684 48.7361 25.7216 48.5898 25.9821 48.3293C26.2426 48.0689 26.3889 47.7156 26.3889 47.3472V42.625C26.3889 42.2566 26.2426 41.9034 25.9821 41.6429C25.7216 41.3824 25.3684 41.2361 25 41.2361Z" fill="#F9A12F"/>
<path d="M11.5555 13.5278C11.8138 13.7625 12.151 13.8915 12.5 13.8889C12.6828 13.8899 12.864 13.8549 13.0332 13.7858C13.2024 13.7167 13.3563 13.6148 13.4861 13.4861C13.6163 13.357 13.7196 13.2034 13.7901 13.0341C13.8606 12.8649 13.8969 12.6833 13.8969 12.5C13.8969 12.3166 13.8606 12.1351 13.7901 11.9659C13.7196 11.7966 13.6163 11.643 13.4861 11.5139L10.1805 8.22222C9.91485 7.99468 9.57308 7.87579 9.22353 7.88929C8.87398 7.90279 8.5424 8.0477 8.29504 8.29505C8.04769 8.5424 7.90278 8.87399 7.88928 9.22354C7.87578 9.57309 7.99468 9.91486 8.22221 10.1806L11.5555 13.5278Z" fill="#F9A12F"/>
<path d="M38.4444 36.4722C38.3149 36.3427 38.1612 36.24 37.992 36.1699C37.8228 36.0998 37.6415 36.0638 37.4583 36.0638C37.2752 36.0638 37.0938 36.0998 36.9246 36.1699C36.7554 36.24 36.6017 36.3427 36.4722 36.4722C36.3427 36.6017 36.24 36.7555 36.1699 36.9247C36.0998 37.0939 36.0638 37.2752 36.0638 37.4583C36.0638 37.6415 36.0998 37.8228 36.1699 37.992C36.24 38.1612 36.3427 38.315 36.4722 38.4445L39.8194 41.7778C39.9481 41.909 40.1015 42.0134 40.2707 42.0849C40.44 42.1565 40.6218 42.1937 40.8055 42.1944C41.1719 42.1892 41.5213 42.0395 41.7778 41.7778C42.0364 41.5176 42.1816 41.1655 42.1816 40.7986C42.1816 40.4317 42.0364 40.0797 41.7778 39.8194L38.4444 36.4722Z" fill="#F9A12F"/>
<path d="M8.76389 25C8.76389 24.6316 8.61756 24.2784 8.35709 24.0179C8.09662 23.7574 7.74335 23.6111 7.375 23.6111H2.65277C2.28442 23.6111 1.93115 23.7574 1.67068 24.0179C1.41021 24.2784 1.26389 24.6316 1.26389 25C1.26389 25.3684 1.41021 25.7216 1.67068 25.9821C1.93115 26.2426 2.28442 26.3889 2.65277 26.3889H7.375C7.74335 26.3889 8.09662 26.2426 8.35709 25.9821C8.61756 25.7216 8.76389 25.3684 8.76389 25Z" fill="#F9A12F"/>
<path d="M47.3472 23.6111H42.625C42.2566 23.6111 41.9034 23.7574 41.6429 24.0179C41.3824 24.2784 41.2361 24.6316 41.2361 25C41.2361 25.3684 41.3824 25.7216 41.6429 25.9821C41.9034 26.2426 42.2566 26.3889 42.625 26.3889H47.3472C47.7156 26.3889 48.0689 26.2426 48.3293 25.9821C48.5898 25.7216 48.7361 25.3684 48.7361 25C48.7361 24.6316 48.5898 24.2784 48.3293 24.0179C48.0689 23.7574 47.7156 23.6111 47.3472 23.6111Z" fill="#F9A12F"/>
<path d="M11.5555 36.4722L8.22221 39.8194C8.02718 40.0129 7.89389 40.2598 7.83919 40.529C7.78449 40.7982 7.81083 41.0775 7.9149 41.3317C8.01896 41.586 8.19607 41.8036 8.42382 41.9572C8.65158 42.1107 8.91975 42.1933 9.19444 42.1944C9.3782 42.1937 9.55998 42.1565 9.72925 42.0849C9.89852 42.0134 10.0519 41.909 10.1805 41.7778L13.5278 38.4445C13.7893 38.1829 13.9362 37.8282 13.9362 37.4583C13.9362 37.0885 13.7893 36.7338 13.5278 36.4722C13.2662 36.2107 12.9115 36.0638 12.5417 36.0638C12.1718 36.0638 11.8171 36.2107 11.5555 36.4722Z" fill="#F9A12F"/>
<path d="M37.5 13.8889C37.6828 13.8899 37.864 13.8549 38.0332 13.7858C38.2024 13.7167 38.3563 13.6148 38.4861 13.4861L41.8194 10.1389C42.0781 9.87867 42.2233 9.52665 42.2233 9.15972C42.2233 8.7928 42.0781 8.44078 41.8194 8.18056C41.5592 7.92188 41.2072 7.77668 40.8403 7.77668C40.4734 7.77668 40.1213 7.92188 39.8611 8.18056L36.5139 11.5139C36.3837 11.643 36.2804 11.7966 36.2099 11.9659C36.1394 12.1351 36.1031 12.3167 36.1031 12.5C36.1031 12.6834 36.1394 12.8649 36.2099 13.0341C36.2804 13.2034 36.3837 13.357 36.5139 13.4861C36.6437 13.6148 36.7976 13.7167 36.9668 13.7858C37.136 13.8549 37.3172 13.8899 37.5 13.8889Z" fill="#F9A12F"/>
<path d="M25.1805 10.7639C22.3905 10.7281 19.6527 11.5227 17.3154 13.0467C14.9781 14.5708 13.1467 16.7554 12.0541 19.3229C10.9614 21.8904 10.6569 24.7248 11.1792 27.4658C11.7015 30.2068 13.0271 32.7306 14.9874 34.7163C16.9476 36.7021 19.4541 38.0601 22.1881 38.6178C24.9221 39.1754 27.7602 38.9076 30.3416 37.8482C32.923 36.7888 35.1311 34.9858 36.6852 32.6683C38.2393 30.3509 39.0692 27.6236 39.0694 24.8333C39.0879 21.1275 37.6363 17.5654 35.0328 14.9281C32.4293 12.2907 28.8863 10.7933 25.1805 10.7639ZM25.1805 36.1111C22.9393 36.147 20.7382 35.5149 18.8574 34.2956C16.9765 33.0762 15.5012 31.3246 14.6192 29.264C13.7372 27.2033 13.4885 24.9267 13.9047 22.7242C14.3209 20.5217 15.3832 18.4929 16.9564 16.8961C18.5295 15.2994 20.5423 14.207 22.7384 13.758C24.9344 13.3091 27.2144 13.5239 29.288 14.3751C31.3616 15.2263 33.1349 16.6754 34.3822 18.5379C35.6294 20.4003 36.2941 22.5918 36.2917 24.8333C36.3065 27.8001 35.1459 30.652 33.0637 32.7655C30.9816 34.8789 28.1472 36.0818 25.1805 36.1111Z" fill="#F9A12F"/>
</g>
<defs>
<clipPath id="clip0_12_784">
<rect width="50" height="50" fill="white"/>
</clipPath>
</defs>
</svg>
