<svg width="50" height="50" viewBox="0 0 50 50" fill="none" xmlns="http://www.w3.org/2000/svg">
<g clip-path="url(#clip0_1_1665)">
<path d="M21.5518 6.14384L43.7877 28.3798C48.0608 32.6529 48.0608 39.4582 43.7877 43.7313C39.5146 48.0044 32.7093 48.0044 28.4362 43.7313L6.20026 21.4953C1.92715 17.2222 1.92715 10.4169 6.20025 6.14383C10.3942 1.94986 17.3578 1.94987 21.5518 6.14384Z" fill="#DB615D"/>
<path d="M32.7885 17.3805L17.4369 32.732L28.4626 43.7577C32.7357 48.0308 39.541 48.0308 43.8141 43.7577C48.0872 39.4846 48.0872 32.6793 43.8141 28.4062L32.7885 17.3805Z" fill="#738ECC"/>
<g opacity="0.2">
<path d="M6.91245 5.5899C6.70143 5.80092 6.4904 6.01195 6.27939 6.22296C2.00628 10.4961 2.00629 17.3014 6.27939 21.5745L28.5154 43.8104C31.918 47.2131 37.1143 47.8725 41.15 45.7887C29.7814 40.6979 12.4253 23.7638 8.52145 17.4333C6.06837 13.5558 6.12113 9.07169 6.91245 5.5899Z" fill="black"/>
</g>
<g opacity="0.2">
<path d="M20.4967 8.3595L42.8909 30.7537C43.6031 31.4659 43.5767 32.6001 42.8909 33.286C42.1787 33.9981 41.0445 33.9717 40.3587 33.2859L17.9645 10.8917C17.2523 10.1795 17.2787 9.04532 17.9645 8.35951C18.6239 7.64733 19.7845 7.64732 20.4967 8.3595Z" fill="#FEE4E1"/>
</g>
</g>
<defs>
<clipPath id="clip0_1_1665">
<rect width="50" height="50" fill="white"/>
</clipPath>
</defs>
</svg>
