<svg width="56" height="56" viewBox="0 0 56 56" fill="none" xmlns="http://www.w3.org/2000/svg">
<path d="M26.938 0.908203C26.938 0.908203 7.63703 27.8869 8.49011 38.817C9.34319 50.1736 17.0209 54.8655 26.938 55.1321C37.9214 55.3987 45.0659 45.7482 45.3858 38.817C45.8124 27.8335 26.938 0.908203 26.938 0.908203Z" fill="#DB615D"/>
<path d="M31.0433 7.14624C31.0966 7.25288 46.2921 37.2173 28.3774 47.9341C23.5788 50.8133 19.2068 51.8796 15.3679 51.933C18.5137 54.0123 22.4592 55.0254 26.8845 55.132C37.8679 55.3986 45.0125 45.7481 45.3324 38.8168C45.6523 31.1391 36.5883 15.7304 31.0433 7.14624Z" fill="#B44541"/>
<path d="M24.592 45.4283C24.2187 45.4283 23.8455 45.2684 23.5789 44.9485L17.9806 37.8572L5.23771 45.1617C4.65122 45.535 3.85145 45.3217 3.53155 44.6819C3.15833 44.0954 3.3716 43.2956 4.01141 42.9757L17.6607 35.138C18.1939 34.8181 18.887 34.9781 19.2602 35.4579L24.3787 41.9627L28.4308 35.138C28.6974 34.7115 29.124 34.4982 29.6038 34.4982C30.0837 34.4982 30.5102 34.8181 30.6702 35.2447L33.3894 41.0563L46.1856 21.6487C46.5588 21.0622 47.3586 20.9023 47.945 21.2755C48.5315 21.6487 48.6915 22.4485 48.3183 23.035L34.2958 44.362C34.0292 44.7352 33.6026 44.9485 33.1228 44.9485C32.6429 44.8951 32.2697 44.6286 32.0564 44.202L29.3905 38.497L25.605 44.8418C25.3917 45.215 25.0185 45.4283 24.592 45.4816C24.6453 45.4283 24.592 45.4283 24.592 45.4283Z" fill="#FDBC6E"/>
<path d="M51.3574 16.5835L41.4937 22.0752L49.8112 27.6202L51.3574 16.5835Z" fill="#FDBC6E"/>
</svg>
