<svg width="61" height="61" viewBox="0 0 61 61" fill="none" xmlns="http://www.w3.org/2000/svg">
<g clip-path="url(#clip0_1_2273)">
<path d="M30.931 -1.69427C31.1226 -1.69427 31.3141 -1.56654 31.3141 -1.31108V14.5277C31.3141 14.7193 31.1864 14.9109 30.931 14.9109C30.7394 14.9109 30.5478 14.7831 30.5478 14.5277V-1.37495C30.5478 -1.56654 30.6755 -1.69427 30.931 -1.69427Z" fill="#2C3955"/>
<path d="M29.6536 57.3179H32.2082C33.0385 57.3179 33.6771 55.9128 33.6771 54.1246V32.0908H28.2485V54.1246C28.1846 55.9128 28.8233 57.3179 29.6536 57.3179Z" fill="#2C3955"/>
<path d="M30.1646 11.7176C29.7175 11.7176 29.3343 12.1008 29.3343 12.5478V16.763C28.6318 16.8907 28.057 17.5294 28.057 18.2319V20.5311C26.3965 20.595 24.9915 22 24.9915 23.6605V44.864H22.7561C22.2452 44.864 21.862 45.2472 21.862 45.7581C21.862 46.2691 22.2452 46.6523 22.7561 46.6523H39.042C39.5529 46.6523 39.9361 46.2691 39.9361 45.7581C39.9361 45.2472 39.5529 44.864 39.042 44.864H36.8067V23.6605C36.8067 21.9361 35.4655 20.595 33.7411 20.5311V18.2319C33.7411 17.4655 33.1663 16.8907 32.4638 16.763V12.6117C32.4638 12.1647 32.0806 11.7815 31.6335 11.7815H30.1646V11.7176Z" fill="#4A6191"/>
<path d="M26.3326 56.296H35.4654C35.9764 56.296 36.3596 56.6792 36.3596 57.1901C36.3596 57.7011 35.9764 58.0843 35.4654 58.0843H26.3326C25.8217 58.0843 25.4385 57.7011 25.4385 57.1901C25.4385 56.6792 25.8217 56.296 26.3326 56.296Z" fill="#2C3955"/>
<path d="M26.5241 26.0874H32.3998C32.783 26.0874 33.0384 26.3429 33.0384 26.7261C33.0384 27.1093 32.783 27.3647 32.3998 27.3647H26.5241C26.1409 27.3647 25.8854 27.1093 25.8854 26.7261C25.8854 26.4067 26.2048 26.0874 26.5241 26.0874Z" fill="#C8D8E7"/>
<path d="M26.5241 29.3445H32.3998C32.783 29.3445 33.0384 29.6 33.0384 29.9832C33.0384 30.3664 32.783 30.6219 32.3998 30.6219H26.5241C26.1409 30.6219 25.8854 30.3664 25.8854 29.9832C25.8854 29.6639 26.2048 29.3445 26.5241 29.3445Z" fill="#C8D8E7"/>
<path d="M26.5241 32.6656H32.3998C32.783 32.6656 33.0384 32.9211 33.0384 33.3042C33.0384 33.6874 32.783 33.9429 32.3998 33.9429H26.5241C26.1409 33.9429 25.8854 33.6874 25.8854 33.3042C25.8854 32.9211 26.2048 32.6656 26.5241 32.6656Z" fill="#C8D8E7"/>
<path d="M26.5241 35.8588H32.3998C32.783 35.8588 33.0384 36.1143 33.0384 36.4975C33.0384 36.8807 32.783 37.1361 32.3998 37.1361H26.5241C26.1409 37.1361 25.8854 36.8807 25.8854 36.4975C25.8854 36.1782 26.2048 35.8588 26.5241 35.8588Z" fill="#C8D8E7"/>
<path d="M26.5241 39.1161H32.3998C32.783 39.1161 33.0384 39.3716 33.0384 39.7548C33.0384 40.138 32.783 40.3935 32.3998 40.3935H26.5241C26.1409 40.3935 25.8854 40.138 25.8854 39.7548C25.8854 39.4355 26.2048 39.1161 26.5241 39.1161Z" fill="#C8D8E7"/>
<path d="M35.0822 20.8504C35.4654 26.3429 35.7847 39.9463 30.42 46.6522H39.1058C39.6167 46.6522 39.9999 46.2691 39.9999 45.7581C39.9999 45.2472 39.6167 44.864 39.1058 44.864H36.8704V23.5966C36.8066 22.4471 36.1041 21.3613 35.0822 20.8504Z" fill="#415580"/>
<path d="M26.5241 42.3731H32.3998C32.783 42.3731 33.0384 42.6286 33.0384 43.0118C33.0384 43.395 32.783 43.6504 32.3998 43.6504H26.5241C26.1409 43.6504 25.8854 43.395 25.8854 43.0118C25.8854 42.6924 26.2048 42.3731 26.5241 42.3731Z" fill="#C8D8E7"/>
</g>
<defs>
<clipPath id="clip0_1_2273">
<rect width="61" height="61" fill="white"/>
</clipPath>
</defs>
</svg>
