<svg width="43" height="41" viewBox="0 0 43 41" fill="none" xmlns="http://www.w3.org/2000/svg">
<path d="M17.0324 5.53313C14.0333 1.71998 8.46355 1.84851 4.65039 7.7182C0.837239 13.5879 -0.490938 21.5998 2.93662 26.4412C6.36417 31.2826 12.0196 29.3118 13.9476 25.8842C15.8328 22.4567 14.2475 20.2716 14.9331 17.2297C15.5757 14.1877 20.1172 9.47482 17.0324 5.53313Z" fill="#DB615D"/>
<path d="M17.8893 7.2041C16.5182 10.1175 13.2192 11.917 13.0907 14.5733C12.8765 18.0009 13.4763 23.4421 8.80624 26.3127C6.92108 27.5124 5.03593 27.5124 3.45068 27.1696C6.87824 31.1541 12.1053 29.1833 13.9047 25.9271C15.7899 22.4996 14.2046 20.3145 14.8902 17.2725C15.49 14.659 18.9604 10.7602 17.8893 7.2041Z" fill="#B44541"/>
<path d="M11.077 3.99085C9.57749 3.90516 6.19278 6.94712 4.65038 10.289C3.10798 13.6308 4.77891 15.6017 6.92113 14.7876C9.02051 13.9736 9.32042 10.3747 9.96309 8.87512C10.6058 7.37556 13.9048 6.43298 13.9905 5.40471C13.9905 4.3336 13.1336 3.73379 11.077 3.99085Z" fill="#E38380"/>
<path d="M14.5474 15.2588C14.5474 15.2588 17.418 15.2588 18.8319 17.6152C20.2029 19.9717 18.6605 40.1086 18.6605 40.1086C18.6605 40.1086 17.8036 40.6227 16.6039 39.98C17.2895 33.8104 18.0178 22.4567 17.5037 19.9717C16.9895 17.4439 16.2183 17.6581 14.3332 17.3582C13.4335 15.9015 14.5474 15.2588 14.5474 15.2588Z" fill="#923835"/>
<path d="M25.958 3.34661C28.9572 -0.466545 34.5269 -0.338016 38.3401 5.53167C42.1532 11.4014 43.4814 19.4133 40.0539 24.2547C36.6263 29.0961 30.9708 27.1253 29.0428 23.6977C27.1577 20.2702 28.7429 18.0851 28.0574 15.0431C27.4148 12.0012 22.8732 7.24545 25.958 3.34661Z" fill="#DB615D"/>
<path d="M25.1012 4.97461C26.4722 7.88803 29.7713 9.6875 29.8998 12.3439C30.114 15.7714 29.5142 21.2126 34.1842 24.0832C36.0694 25.2829 37.9546 25.2829 39.5398 24.9401C36.1122 28.9246 30.8852 26.9538 29.0857 23.6976C27.2006 20.2701 28.7858 18.085 28.1003 15.043C27.5005 12.4295 24.0729 8.5307 25.1012 4.97461Z" fill="#B44541"/>
<path d="M31.9562 1.76176C33.4557 1.67607 36.8404 4.71803 38.3828 8.05989C39.9252 11.4018 38.2543 13.3726 36.1121 12.5586C34.0127 11.7017 33.7128 8.14558 33.0701 6.64603C32.4274 5.14647 29.1284 4.20389 29.0427 3.17562C28.9571 2.14736 29.8996 1.5047 31.9562 1.76176Z" fill="#E38380"/>
<path d="M28.4431 13.0293C28.4431 13.0293 25.5725 13.0293 24.1586 15.3857C22.7448 17.7422 24.33 37.8791 24.33 37.8791C24.33 37.8791 25.1869 38.3932 26.3865 37.7505C25.701 31.5809 24.9727 20.2272 25.4868 17.7422C26.0009 15.2144 26.7721 15.4286 28.6573 15.1287C29.557 13.672 28.4431 13.0293 28.4431 13.0293Z" fill="#923835"/>
</svg>
