<svg width="43" height="45" viewBox="0 0 43 45" fill="none" xmlns="http://www.w3.org/2000/svg">
<path d="M21.5298 0.697266C-4.06646 0.697266 0.408404 20.9236 1.79561 27.2332C3.18282 33.5428 6.76271 44.2824 11.0586 44.2824H21.485H31.9114C36.2073 44.2824 39.7425 33.4533 41.1744 27.1885C42.6511 20.9684 47.126 0.697266 21.5298 0.697266Z" fill="#4A6191"/>
<path d="M21.5298 3.60596C15.5335 3.60596 11.5509 4.76942 9.00023 6.42512C6.44956 8.08082 5.06235 10.0945 4.30162 12.5109C2.73542 17.299 3.94363 23.4743 4.65961 26.562C5.37559 29.5602 6.5838 33.7218 8.01576 36.8989C8.73174 38.4651 9.53721 39.8523 10.2084 40.6131C10.8797 41.3738 11.2377 41.3738 11.1034 41.3738H21.5298H31.9563C31.822 41.3738 32.18 41.3738 32.8512 40.6131C33.5225 39.8523 34.328 38.5099 35.0439 36.8989C36.5206 33.7218 37.7288 29.5602 38.4001 26.562C39.1161 23.4296 40.3243 17.299 38.7581 12.5109C37.9973 10.0945 36.6549 8.03607 34.0595 6.42512C31.464 4.76942 27.5709 3.60596 21.5298 3.60596Z" fill="#84A3B2"/>
<path d="M13.2065 10.542H29.853C30.9269 10.542 31.8219 11.437 31.8219 12.5109V26.0698C31.8219 27.1437 30.9269 28.0387 29.853 28.0387H13.2065C12.1325 28.0387 11.2375 27.1437 11.2375 26.0698V12.5109C11.2375 11.437 12.1325 10.542 13.2065 10.542Z" fill="#272727"/>
<path d="M21.5297 13.9429C14.5042 25.13 21.5297 24.5483 21.5297 24.5483C21.5297 24.5483 28.5552 25.13 21.5297 13.9429Z" fill="#DB615D"/>
<path d="M16.3567 39.0914C18.408 39.0914 20.0709 37.4285 20.0709 35.3772C20.0709 33.326 18.408 31.6631 16.3567 31.6631C14.3055 31.6631 12.6426 33.326 12.6426 35.3772C12.6426 37.4285 14.3055 39.0914 16.3567 39.0914Z" fill="#F4F6F9"/>
<path d="M26.6936 39.0914C28.7449 39.0914 30.4078 37.4285 30.4078 35.3772C30.4078 33.326 28.7449 31.6631 26.6936 31.6631C24.6424 31.6631 22.9795 33.326 22.9795 35.3772C22.9795 37.4285 24.6424 39.0914 26.6936 39.0914Z" fill="#F4F6F9"/>
</svg>
