<svg width="45" height="45" viewBox="0 0 45 45" fill="none" xmlns="http://www.w3.org/2000/svg">
<path d="M6.07676 3.60352L3.60352 5.96338V39.0498L5.89922 41.3965H39.0498L41.3965 39.0498V5.95283L39.0498 3.60352H6.07676ZM21.709 6.33428V9.84375H23.291V6.33428C25.5146 6.36064 27.7295 6.49512 29.8477 6.74121L28.7666 11.0566L30.2959 11.4434L31.4209 6.94775C33.8115 7.29668 36.0352 7.79326 37.9688 8.4375L33.75 18.2812C31.4561 17.71 28.2217 17.3672 24.8291 17.2617C25.1895 17.7451 25.4004 18.3428 25.4004 18.9844C25.4004 20.5752 24.0908 21.8848 22.5 21.8848C20.9092 21.8848 19.5996 20.5752 19.5996 18.9844C19.5996 18.3428 19.8105 17.7451 20.1709 17.2617C16.7695 17.3672 13.5439 17.71 11.25 18.2812L7.03125 8.4375C8.96484 7.79326 11.1885 7.29668 13.5791 6.94775L14.7041 11.4434L16.2334 11.0566L15.1523 6.74121C17.2705 6.49512 19.4854 6.36064 21.709 6.33428ZM19.0107 8.12637L17.5518 8.74863L20.9004 16.5674C21.3486 16.2773 21.8672 16.1016 22.4297 16.084L19.0107 8.12637ZM22.5 17.666C21.7617 17.666 21.1816 18.2461 21.1816 18.9844C21.1816 19.7227 21.7617 20.3027 22.5 20.3027C23.2383 20.3027 23.8184 19.7227 23.8184 18.9844C23.8184 18.2461 23.2383 17.666 22.5 17.666ZM11.25 31.5527H33.75V33.1348H11.25V31.5527ZM11.25 35.7715H33.75V37.3535H11.25V35.7715Z" fill="#DB615D"/>
</svg>
