<svg width="35" height="35" viewBox="0 0 35 35" fill="none" xmlns="http://www.w3.org/2000/svg">
<path d="M30.4601 3.82812L30.4583 30.1022C30.9287 30.8762 31.4154 31.1739 31.8235 31.1719C32.2284 31.17 32.7099 30.8688 33.1711 30.1179L31.9115 16.6981L31.8968 16.5347L31.9977 16.4044C33.4451 14.5471 33.9509 11.3384 33.538 8.62442C33.3316 7.26735 32.8994 6.03907 32.2942 5.17077C31.7867 4.44261 31.1813 3.97811 30.4603 3.82812H30.4601ZM5.00479 3.8284L5.0037 8.41716L4.14511 8.41606V3.82867H3.16723L3.16736 8.41627H2.30754V3.82867H1.31154V10.8853C1.31147 11.6657 1.73742 12.0985 2.40803 12.3661L2.68557 12.477L2.67941 12.7757C2.54269 18.5568 2.40755 24.3379 2.27186 30.119C2.73943 30.8841 3.21973 31.1738 3.61963 31.1719C4.01953 31.17 4.49941 30.8727 4.96104 30.117C4.80279 24.3374 4.64454 18.5577 4.48656 12.778L4.47836 12.4772L4.75679 12.3674C5.46253 12.0868 5.92156 11.6104 5.92156 10.8857V3.8284H5.00486H5.00479ZM17.5 6.49414C14.5811 6.49414 11.7817 7.65368 9.71768 9.71768C7.65368 11.7817 6.49414 14.5811 6.49414 17.5C6.49414 20.4189 7.65368 23.2183 9.71768 25.2823C11.7817 27.3463 14.5811 28.5059 17.5 28.5059C20.4189 28.5059 23.2183 27.3463 25.2823 25.2823C27.3463 23.2183 28.5059 20.4189 28.5059 17.5C28.5059 14.5811 27.3463 11.7817 25.2823 9.71768C23.2183 7.65368 20.4189 6.49414 17.5 6.49414Z" fill="#4A6191"/>
</svg>
