<svg width="66" height="66" viewBox="0 0 66 66" fill="none" xmlns="http://www.w3.org/2000/svg">
<path d="M26.998 17.2174L17.4884 20.8889L22.3836 33.5684L31.8932 29.897L26.998 17.2174Z" fill="#E9F1F2"/>
<path d="M31.9319 29.8977L22.4144 33.5968L17.531 20.8664L19.5415 20.1365L19.58 20.302C20.4311 22.4587 22.8655 23.5489 25.1241 22.7613L28.6487 21.4172L31.9319 29.8977Z" fill="#D0D8DA"/>
<path d="M36.3767 36.6251L30.9233 22.1958L29.765 22.4655C27.7795 22.9279 26.0308 24.0329 24.6266 25.4937C23.2859 26.8525 21.5179 27.8747 19.6151 28.3179L18.4569 28.5876L25.7066 46.6106C26.3401 48.2074 28.0162 49.0381 29.6709 48.6528L41.6669 45.8592L39.355 35.9315L36.3767 36.6251Z" fill="#00B4D8"/>
<path d="M43.6842 35.7955L39.5477 36.7588L41.4743 45.0319L45.6108 44.0686L43.6842 35.7955Z" fill="#ADE8F4"/>
<path d="M40.8963 42.55L41.6669 45.8592L29.5881 48.6721C27.9335 49.0574 26.3401 48.2074 25.6238 46.6298L18.4569 28.5876L19.6151 28.3179C20.5252 28.1059 21.314 27.7478 22.1855 27.3704L26.1078 37.0976C27.9063 41.8246 32.9541 44.3995 37.8352 43.2628L40.8963 42.55Z" fill="#0096C7"/>
<path d="M45.0328 41.5867L45.6108 44.0686L41.4743 45.0319L39.5477 36.7588L41.2023 36.3735L41.9729 39.6827C42.3004 41.0892 43.6264 41.9142 45.0328 41.5867Z" fill="#48CAE4"/>
<path d="M43.4916 34.9682L40.1823 35.7388C40.0667 35.2424 39.6587 34.9886 39.1624 35.1042L36.9286 35.6244L31.7313 21.9204C31.5523 21.526 31.1443 21.2722 30.7306 21.3685L29.6551 21.6189L27.8566 16.8919C27.6775 16.4975 27.1868 16.2629 26.7731 16.3593L22.9369 17.8631C22.5425 18.0422 22.3079 18.5329 22.4042 18.9466C22.5833 19.341 23.074 19.5756 23.4877 19.4792L26.5351 18.3335L28.039 22.1697C26.6076 22.7647 25.2533 23.6906 24.0588 24.9282C23.1567 25.9232 22.0121 26.6258 20.8096 27.0803L18.6144 21.399L20.294 20.7463C20.6884 20.5672 20.923 20.0765 20.7439 19.6821C20.5649 19.2877 20.0742 19.0531 19.6798 19.2322L17.1922 20.1603C16.7785 20.2567 16.5439 20.7474 16.7422 21.2245L19.1743 27.5484L18.2642 27.7603C18.016 27.8181 17.7871 27.9586 17.6602 28.1626C17.6352 28.4301 17.6103 28.6975 17.6681 28.9457L21.4692 38.5267C21.6482 38.9211 22.139 39.1557 22.6161 38.9574C23.0105 38.7783 23.2451 38.2876 23.066 37.8932L19.6423 29.1837L19.8078 29.1452C21.8761 28.6635 23.8095 27.6028 25.2771 26.0399C26.6178 24.6811 28.2203 23.6974 29.9577 23.2928L30.3713 23.1965L31.3188 25.7668L30.3645 26.1635C29.9701 26.3426 29.7355 26.8333 29.8319 27.2469C30.0109 27.6413 30.4189 27.8952 30.8326 27.7989L30.9153 27.7796L31.8696 27.3829L32.5031 28.9798L31.5488 29.3764C31.1544 29.5555 30.9198 30.0462 31.0162 30.4599C31.1952 30.8543 31.6032 31.1081 32.0169 31.0118L32.0996 30.9925L33.0539 30.5959L33.6874 32.1927L32.7331 32.5894C32.3387 32.7684 32.1041 33.2591 32.2005 33.6728C32.3795 34.0672 32.7875 34.321 33.2012 34.2247L33.2839 34.2054L34.2381 33.8088L35.4417 37.1044C35.6208 37.4988 36.0288 37.7527 36.4424 37.6564L38.7589 37.1169L40.6855 45.3901L29.434 48.0102C28.193 48.2992 26.9883 47.6204 26.4704 46.5199L24.3523 41.1696C24.1732 40.7752 23.6825 40.5406 23.2881 40.7196C22.8937 40.8987 22.6591 41.3894 22.8382 41.7838L24.9563 47.1342C25.7689 49.1254 27.8338 50.1272 29.8193 49.6649L41.8981 46.852C42.3945 46.7364 42.6484 46.3285 42.5328 45.8321L45.842 45.0614C46.3384 44.9458 46.5923 44.5378 46.4767 44.0415L44.5116 35.6029C44.396 35.1065 43.988 34.8526 43.4916 34.9682ZM44.5908 43.434L42.1089 44.012L40.5676 37.3935L43.0496 36.8155L44.5908 43.434Z" fill="#586E9F"/>
<path d="M47.3788 36.6795C47.627 36.6217 47.7732 36.5004 47.9001 36.2964L48.5348 35.2765C48.7887 34.8685 48.6731 34.3721 48.2651 34.1182C47.8571 33.8644 47.3607 33.9799 47.1068 34.3879L46.4722 35.4079C46.2183 35.8159 46.3339 36.3123 46.7419 36.5661C46.9459 36.6931 47.1306 36.7373 47.3788 36.6795Z" fill="#586E9F"/>
<path d="M49.4188 37.9488L47.7641 38.3341C47.2677 38.4497 47.0139 38.8577 47.1295 39.3541C47.2451 39.8505 47.6531 40.1044 48.1494 39.9888L49.8041 39.6034C50.3005 39.4879 50.5543 39.0799 50.4387 38.5835C50.3231 38.0871 49.9151 37.8332 49.4188 37.9488Z" fill="#586E9F"/>
<path d="M50.7322 42.0911L48.885 41.6491C48.4328 41.5799 47.9749 41.861 47.8865 42.2305C47.8174 42.6826 48.0984 43.1405 48.4679 43.2289L50.3152 43.6709C50.5192 43.7978 50.6019 43.7786 50.7674 43.74C51.0983 43.663 51.308 43.4397 51.3964 43.0702C51.4848 42.7008 51.2037 42.2429 50.7322 42.0911Z" fill="#586E9F"/>
</svg>
