<svg width="48" height="48" viewBox="0 0 48 48" fill="none" xmlns="http://www.w3.org/2000/svg">
<path d="M29.231 37.428C27.695 38.174 25.908 39.057 24.013 39.928C22.88 40.459 21.695 40.983 20.513 41.464C19.713 41.809 18.899 42.117 18.102 42.397C17.348 42.663 16.631 42.935 15.942 43.208C14.75 43.667 13.642 44.127 12.555 44.543C11.3167 45.0332 10.0472 45.4407 8.75502 45.763C8.2874 45.8264 7.81147 45.7806 7.3645 45.6293C6.91752 45.478 6.51164 45.2253 6.17865 44.8909C5.84565 44.5566 5.59458 44.1497 5.44509 43.7021C5.29561 43.2545 5.25178 42.7784 5.31702 42.311C5.61202 41.111 5.98502 39.811 6.41702 38.428L6.42502 38.421C6.77602 37.237 7.17802 36.021 7.59402 34.811C7.92402 33.835 8.27602 32.867 8.62102 31.919C8.84302 31.324 9.05802 30.735 9.28802 30.161C9.77602 28.898 10.278 27.692 10.781 26.53C11.563 24.743 12.36 23.071 13.149 21.52C18.5117 26.82 23.8724 32.1227 29.231 37.428Z" fill="url(#paint0_radial_208_7557)"/>
<path d="M29.1775 37.1156C30.667 35.6261 28.3708 30.915 24.0489 26.5931C19.727 22.2712 15.0159 19.975 13.5264 21.4645C12.037 22.9539 14.3331 27.665 18.6551 31.9869C22.977 36.3089 27.6881 38.605 29.1775 37.1156Z" fill="url(#paint1_radial_208_7557)"/>
<path d="M27.879 37.8121C25.668 37.8121 21.984 35.6701 18.479 32.1641C13.992 27.6771 11.739 22.9001 13.351 21.2891C14.151 20.4891 15.744 20.6061 17.836 21.6251C20.2075 22.8725 22.365 24.4901 24.227 26.4171C28.713 30.9041 30.966 35.6811 29.355 37.2921C29.1563 37.4732 28.9233 37.6126 28.6698 37.7019C28.4162 37.7912 28.1473 37.8287 27.879 37.8121ZM14.833 21.2621C14.6289 21.2476 14.4239 21.2736 14.2299 21.3389C14.0359 21.4041 13.8568 21.5072 13.703 21.6421C12.486 22.8591 14.257 27.2351 18.831 31.8111C23.405 36.3871 27.783 38.1571 29 36.9391C30.217 35.7211 28.446 31.3451 23.872 26.7701C22.0491 24.8829 19.9373 23.2981 17.616 22.0751C16.7577 21.6069 15.8084 21.3296 14.833 21.2621Z" fill="url(#paint2_linear_208_7557)"/>
<path d="M39.997 19.9971L40.139 22.5051L42.286 23.8091L39.945 24.7201L39.368 27.1641L37.778 25.2191L35.275 25.4251L36.634 23.3131L35.664 20.9961L38.093 21.6351L39.997 19.9971Z" fill="#FF7E00"/>
<path d="M39.981 20.0349L40.121 22.5159L42.245 23.8059L39.929 24.7069L39.358 27.1249L37.786 25.2009L35.31 25.4049L36.654 23.3149L35.695 21.0229L38.097 21.6559L39.981 20.0349Z" fill="#FF8000"/>
<path d="M39.964 20.074L40.104 22.527L42.204 23.803L39.913 24.694L39.349 27.085L37.794 25.182L35.345 25.384L36.674 23.318L35.725 21.051L38.102 21.676L39.964 20.074Z" fill="#FF8100"/>
<path d="M39.948 20.1121L40.086 22.5381L42.163 23.8001L39.898 24.6811L39.339 27.0461L37.802 25.1641L35.38 25.3641L36.694 23.3201L35.756 21.0781L38.106 21.6971L39.948 20.1121Z" fill="#FF8300"/>
<path d="M39.932 20.1499L40.068 22.5489L42.122 23.7969L39.882 24.6679L39.33 27.0059L37.81 25.1459L35.415 25.3429L36.715 23.3219L35.787 21.1059L38.111 21.7169L39.932 20.1499Z" fill="#FF8400"/>
<path d="M39.916 20.188L40.05 22.56L42.081 23.794L39.866 24.655L39.32 26.967L37.817 25.127L35.45 25.322L36.735 23.324L35.818 21.133L38.115 21.738L39.916 20.188Z" fill="#FF8700"/>
<path d="M39.899 20.2261L40.033 22.5711L42.04 23.7911L39.851 24.6421L39.311 26.9281L37.825 25.1091L35.485 25.3021L36.755 23.3271L35.848 21.1601L38.119 21.7581L39.899 20.2261Z" fill="#FF8800"/>
<path d="M39.883 20.2649L40.015 22.5819L41.999 23.7879L39.835 24.6289L39.302 26.8879L37.833 25.0909L35.519 25.2809L36.775 23.3289L35.879 21.1879L38.124 21.7789L39.883 20.2649Z" fill="#FF8A00"/>
<path d="M39.867 20.303L39.997 22.593L41.957 23.785L39.819 24.616L39.292 26.849L37.841 25.072L35.554 25.261L36.795 23.331L35.91 21.215L38.128 21.799L39.867 20.303Z" fill="#FF8C00"/>
<path d="M39.851 20.3411L39.979 22.6041L41.916 23.7821L39.804 24.6031L39.283 26.8091L37.849 25.0541L35.589 25.2401L36.816 23.3341L35.94 21.2431L38.132 21.8201L39.851 20.3411Z" fill="#FF8E00"/>
<path d="M39.834 20.3789L39.961 22.6149L41.875 23.7779L39.788 24.5899L39.273 26.7699L37.856 25.0359L35.624 25.2199L36.836 23.3359L35.971 21.2699L38.137 21.8399L39.834 20.3789Z" fill="#FF9000"/>
<path d="M39.818 20.418L39.944 22.626L41.834 23.775L39.772 24.577L39.264 26.73L37.864 25.017L35.659 25.199L36.856 23.338L36.002 21.297L38.141 21.861L39.818 20.418Z" fill="#FF9100"/>
<path d="M39.802 20.4561L39.926 22.6381L41.793 23.7721L39.757 24.5641L39.254 26.6911L37.872 24.9991L35.694 25.1781L36.876 23.3411L36.032 21.3251L38.146 21.8811L39.802 20.4561Z" fill="#FF9300"/>
<path d="M39.786 20.4939L39.908 22.6489L41.752 23.7689L39.741 24.5509L39.245 26.6519L37.88 24.9799L35.729 25.1579L36.896 23.3429L36.063 21.3519L38.15 21.9019L39.786 20.4939Z" fill="#FF9500"/>
<path d="M39.77 20.532L39.89 22.66L41.711 23.766L39.725 24.538L39.236 26.612L37.887 24.962L35.764 25.137L36.917 23.345L36.094 21.38L38.154 21.922L39.77 20.532Z" fill="#FF9700"/>
<path d="M39.753 20.571L39.873 22.671L41.67 23.763L39.71 24.526L39.226 26.573L37.895 24.944L35.799 25.117L36.937 23.347L36.125 21.407L38.159 21.943L39.753 20.571Z" fill="#FF9900"/>
<path d="M39.737 20.6089L39.855 22.6819L41.629 23.7599L39.694 24.5129L39.217 26.5329L37.903 24.9249L35.834 25.0959L36.957 23.3499L36.155 21.4339L38.163 21.9629L39.737 20.6089Z" fill="#FF9B00"/>
<path d="M39.721 20.647L39.837 22.693L41.588 23.757L39.678 24.5L39.207 26.494L37.911 24.907L35.869 25.075L36.977 23.352L36.186 21.462L38.168 21.984L39.721 20.647Z" fill="#FF9D00"/>
<path d="M39.705 20.6851L39.819 22.7041L41.547 23.7541L39.663 24.4871L39.198 26.4551L37.919 24.8891L35.904 25.0551L36.997 23.3541L36.217 21.4891L38.172 22.0041L39.705 20.6851Z" fill="#FF9E00"/>
<path d="M39.688 20.7229L39.801 22.7149L41.506 23.7509L39.647 24.4739L39.189 26.4149L37.926 24.8699L35.938 25.0339L37.018 23.3569L36.247 21.5169L38.176 22.0249L39.688 20.7229Z" fill="#FFA000"/>
<path d="M39.672 20.762L39.784 22.726L41.465 23.748L39.631 24.461L39.179 26.376L37.934 24.852L35.973 25.014L37.038 23.359L36.278 21.544L38.181 22.045L39.672 20.762Z" fill="#FFA200"/>
<path d="M39.656 20.8L39.766 22.737L41.424 23.7451L39.616 24.448L39.17 26.3361L37.942 24.834L36.008 24.993L37.058 23.361L36.309 21.571L38.185 22.066L39.656 20.8Z" fill="#FFA400"/>
<path d="M39.64 20.8379L39.748 22.7479L41.383 23.7419L39.6 24.4349L39.16 26.2969L37.95 24.8149L36.043 24.9729L37.078 23.3639L36.339 21.5989L38.189 22.0859L39.64 20.8379Z" fill="#FFA600"/>
<path d="M39.623 20.876L39.73 22.759L41.342 23.739L39.584 24.422L39.151 26.257L37.958 24.797L36.078 24.952L37.098 23.366L36.37 21.626L38.194 22.106L39.623 20.876Z" fill="#FFA800"/>
<path d="M39.607 20.915L39.712 22.77L41.301 23.735L39.569 24.409L39.141 26.218L37.965 24.779L36.113 24.931L37.119 23.368L36.401 21.654L38.198 22.127L39.607 20.915Z" fill="#FFAA00"/>
<path d="M39.591 20.9529L39.695 22.7809L41.26 23.7319L39.553 24.3959L39.132 26.1789L37.973 24.7599L36.148 24.9109L37.139 23.3709L36.432 21.6809L38.203 22.1469L39.591 20.9529Z" fill="#FFAB00"/>
<path d="M39.575 20.991L39.677 22.792L41.219 23.729L39.537 24.383L39.123 26.139L37.981 24.742L36.183 24.89L37.159 23.373L36.462 21.709L38.207 22.168L39.575 20.991Z" fill="#FFAE00"/>
<path d="M39.558 21.0291L39.659 22.8031L41.178 23.7261L39.522 24.3701L39.113 26.1001L37.989 24.7241L36.218 24.8701L37.179 23.3751L36.493 21.7361L38.211 22.1881L39.558 21.0291Z" fill="#FFAF00"/>
<path d="M39.542 21.0669L39.641 22.8139L41.137 23.7229L39.506 24.3569L39.104 26.0599L37.997 24.7049L36.253 24.8489L37.199 23.3769L36.524 21.7629L38.216 22.2089L39.542 21.0669Z" fill="#FFB100"/>
<path d="M39.526 21.106L39.624 22.826L41.096 23.72L39.49 24.344L39.094 26.021L38.004 24.687L36.288 24.829L37.219 23.38L36.554 21.791L38.22 22.229L39.526 21.106Z" fill="#FFB400"/>
<path d="M39.51 21.144L39.606 22.837L41.055 23.717L39.474 24.332L39.085 25.982L38.012 24.669L36.322 24.808L37.24 23.382L36.585 21.818L38.225 22.25L39.51 21.144Z" fill="#FFB500"/>
<path d="M39.493 21.1819L39.588 22.8479L41.014 23.7139L39.459 24.3189L39.075 25.9419L38.02 24.6499L36.357 24.7869L37.26 23.3839L36.616 21.8459L38.229 22.2699L39.493 21.1819Z" fill="#FFB700"/>
<path d="M39.477 21.22L39.57 22.859L40.973 23.711L39.443 24.306L39.066 25.903L38.028 24.632L36.392 24.767L37.28 23.387L36.646 21.873L38.233 22.291L39.477 21.22Z" fill="#FFB900"/>
<path d="M39.461 21.259L39.552 22.87L40.932 23.708L39.427 24.293L39.057 25.863L38.036 24.614L36.427 24.746L37.3 23.389L36.677 21.9L38.238 22.311L39.461 21.259Z" fill="#FFBB00"/>
<path d="M39.445 21.2971L39.535 22.8811L40.89 23.7051L39.412 24.2801L39.047 25.8241L38.043 24.5951L36.462 24.7261L37.32 23.3911L36.708 21.9281L38.242 22.3321L39.445 21.2971Z" fill="#FFBC00"/>
<path d="M39.428 21.335L39.517 22.892L40.849 23.702L39.396 24.267L39.038 25.784L38.051 24.577L36.497 24.705L37.341 23.394L36.739 21.955L38.246 22.352L39.428 21.335Z" fill="#FFBF00"/>
<path d="M39.412 21.373L39.499 22.903L40.808 23.699L39.38 24.254L39.028 25.745L38.059 24.559L36.532 24.684L37.361 23.396L36.769 21.983L38.251 22.373L39.412 21.373Z" fill="#FFC000"/>
<path d="M39.396 21.4121L39.481 22.9141L40.767 23.6961L39.365 24.2411L39.019 25.7061L38.067 24.5401L36.567 24.6641L37.381 23.3981L36.8 22.0101L38.255 22.3931L39.396 21.4121Z" fill="#FFC200"/>
<path d="M39.38 21.45L39.463 22.9249L40.726 23.6919L39.349 24.228L39.009 25.666L38.075 24.5219L36.602 24.643L37.401 23.4L36.831 22.037L38.26 22.4139L39.38 21.45Z" fill="#FFC500"/>
<path d="M39.363 21.488L39.446 22.936L40.685 23.689L39.333 24.215L39 25.627L38.082 24.504L36.637 24.623L37.421 23.403L36.861 22.065L38.264 22.434L39.363 21.488Z" fill="#FFC600"/>
<path d="M39.347 21.5259L39.428 22.9469L40.644 23.6859L39.318 24.2019L38.991 25.5869L38.09 24.4849L36.672 24.6019L37.442 23.4049L36.892 22.0919L38.268 22.4549L39.347 21.5259Z" fill="#FFC800"/>
<path d="M39.331 21.564L39.41 22.958L40.603 23.683L39.302 24.189L38.981 25.548L38.098 24.467L36.707 24.582L37.462 23.407L36.923 22.12L38.273 22.475L39.331 21.564Z" fill="#FFCA00"/>
<path d="M39.315 21.603L39.392 22.969L40.562 23.68L39.286 24.176L38.972 25.509L38.106 24.448L36.741 24.561L37.482 23.41L36.953 22.147L38.277 22.496L39.315 21.603Z" fill="#FFCC00"/>
<path d="M39.299 21.6411L39.375 22.9801L40.521 23.6771L39.271 24.1631L38.962 25.4691L38.113 24.4301L36.776 24.5401L37.502 23.4121L36.984 22.1741L38.282 22.5161L39.299 21.6411Z" fill="#FFCD00"/>
<path d="M39.282 21.679L39.357 22.991L40.48 23.674L39.255 24.15L38.953 25.43L38.121 24.412L36.811 24.52L37.522 23.414L37.015 22.202L38.286 22.537L39.282 21.679Z" fill="#FFD000"/>
<path d="M39.266 21.717L39.339 23.003L40.439 23.671L39.239 24.138L38.944 25.39L38.129 24.393L36.846 24.499L37.543 23.417L37.046 22.229L38.29 22.557L39.266 21.717Z" fill="#FFD200"/>
<path d="M39.25 21.7561L39.321 23.0141L40.398 23.6681L39.224 24.1251L38.934 25.3511L38.137 24.3751L36.881 24.4791L37.563 23.4191L37.076 22.2571L38.295 22.5771L39.25 21.7561Z" fill="#FFD300"/>
<path d="M39.234 21.7939L39.303 23.0249L40.357 23.6649L39.208 24.1119L38.925 25.3109L38.145 24.3569L36.916 24.4579L37.583 23.4209L37.107 22.2839L38.299 22.5979L39.234 21.7939Z" fill="#FFD600"/>
<path d="M39.217 21.832L39.286 23.036L40.316 23.662L39.192 24.099L38.915 25.272L38.152 24.338L36.951 24.437L37.603 23.424L37.138 22.311L38.303 22.618L39.217 21.832Z" fill="#FFD700"/>
<path d="M39.201 21.8701L39.268 23.0471L40.275 23.6591L39.177 24.0861L38.906 25.2331L38.16 24.3201L36.986 24.4171L37.623 23.4261L37.168 22.3391L38.308 22.6391L39.201 21.8701Z" fill="#FFDA00"/>
<path d="M39.185 21.908L39.25 23.058L40.234 23.656L39.161 24.073L38.896 25.193L38.168 24.302L37.021 24.396L37.644 23.428L37.199 22.366L38.312 22.659L39.185 21.908Z" fill="#FFDB00"/>
<path d="M39.169 21.947L39.232 23.069L40.193 23.653L39.145 24.06L38.887 25.154L38.176 24.283L37.056 24.376L37.664 23.43L37.23 22.394L38.317 22.68L39.169 21.947Z" fill="#FFDD00"/>
<path d="M39.152 21.9851L39.215 23.0801L40.152 23.6491L39.13 24.0471L38.878 25.1141L38.184 24.2651L37.091 24.3551L37.684 23.4331L37.26 22.4211L38.321 22.7001L39.152 21.9851Z" fill="#FFE000"/>
<path d="M39.136 22.0229L39.197 23.0909L40.111 23.6459L39.114 24.0339L38.868 25.0749L38.191 24.2469L37.126 24.3349L37.704 23.4349L37.291 22.4479L38.325 22.7209L39.136 22.0229Z" fill="#FFE100"/>
<path d="M39.12 22.061L39.179 23.102L40.07 23.643L39.098 24.021L38.859 25.036L38.199 24.228L37.16 24.314L37.724 23.437L37.322 22.476L38.33 22.741L39.12 22.061Z" fill="#FFE400"/>
<path d="M39.104 22.1001L39.161 23.1131L40.029 23.6401L39.083 24.0081L38.849 24.9961L38.207 24.2101L37.195 24.2931L37.744 23.4401L37.353 22.5031L38.334 22.7621L39.104 22.1001Z" fill="#FFE500"/>
<path d="M39.087 22.1379L39.143 23.1239L39.988 23.6369L39.067 23.9949L38.84 24.9569L38.215 24.1919L37.23 24.2729L37.765 23.4419L37.383 22.5309L38.339 22.7819L39.087 22.1379Z" fill="#FFE700"/>
<path d="M39.071 22.176L39.126 23.135L39.947 23.634L39.051 23.982L38.83 24.917L38.223 24.173L37.265 24.252L37.785 23.444L37.414 22.558L38.343 22.803L39.071 22.176Z" fill="#FFE900"/>
<path d="M39.055 22.2141L39.108 23.1461L39.906 23.6311L39.036 23.9691L38.821 24.8781L38.23 24.1551L37.3 24.2321L37.805 23.4471L37.445 22.5861L38.347 22.8231L39.055 22.2141Z" fill="#FFEB00"/>
<path d="M5.85901 17.9011L7.30001 17.1101L7.46601 15.4741L8.66301 16.6001L10.27 16.2521L9.56901 17.7391L10.397 19.1591L8.76601 18.9521L7.67101 20.1791L7.36401 18.5641L5.85901 17.9011Z" fill="#FF7E00"/>
<path d="M5.90002 17.8992L7.31802 17.1212L7.48002 15.5112L8.65902 16.6192L10.239 16.2772L9.55002 17.7402L10.364 19.1372L8.76002 18.9342L7.68202 20.1402L7.38002 18.5512L5.90002 17.8992Z" fill="#FF8000"/>
<path d="M5.94 17.8971L7.335 17.1321L7.495 15.5491L8.654 16.6391L10.209 16.3021L9.53 17.7411L10.331 19.1151L8.753 18.9151L7.693 20.1021L7.396 18.5391L5.94 17.8971Z" fill="#FF8300"/>
<path d="M5.97998 17.8962L7.35198 17.1432L7.50898 15.5862L8.64898 16.6582L10.178 16.3262L9.51098 17.7422L10.299 19.0932L8.74698 18.8962L7.70498 20.0632L7.41198 18.5262L5.97998 17.8962Z" fill="#FF8500"/>
<path d="M6.021 17.894L7.369 17.154L7.524 15.623L8.644 16.677L10.147 16.351L9.492 17.742L10.266 19.071L8.74 18.878L7.716 20.025L7.428 18.514L6.021 17.894Z" fill="#FF8800"/>
<path d="M6.06104 17.8921L7.38604 17.1651L7.53804 15.6611L8.63904 16.6961L10.117 16.3761L9.47204 17.7431L10.233 19.0491L8.73404 18.8591L7.72704 19.9861L7.44504 18.5011L6.06104 17.8921Z" fill="#FF8B00"/>
<path d="M6.10199 17.8902L7.40299 17.1762L7.55299 15.6982L8.63499 16.7152L10.086 16.4012L9.45299 17.7442L10.201 19.0272L8.72699 18.8402L7.73799 19.9482L7.46099 18.4892L6.10199 17.8902Z" fill="#FF8E00"/>
<path d="M6.14203 17.8891L7.42103 17.1871L7.56703 15.7351L8.63003 16.7351L10.055 16.4261L9.43303 17.7451L10.168 19.0051L8.72103 18.8211L7.74903 19.9091L7.47703 18.4761L6.14203 17.8891Z" fill="#FF9000"/>
<path d="M6.18201 17.8872L7.43801 17.1982L7.58201 15.7732L8.62501 16.7542L10.025 16.4502L9.41401 17.7462L10.135 18.9832L8.71401 18.8032L7.76101 19.8712L7.49301 18.4642L6.18201 17.8872Z" fill="#FF9300"/>
<path d="M6.22302 17.8851L7.45502 17.2091L7.59602 15.8101L8.62002 16.7731L9.99402 16.4751L9.39502 17.7471L10.102 18.9611L8.70802 18.7841L7.77202 19.8321L7.50902 18.4521L6.22302 17.8851Z" fill="#FF9600"/>
<path d="M6.263 17.8831L7.472 17.2201L7.611 15.8481L8.615 16.7921L9.963 16.5001L9.375 17.7471L10.07 18.9391L8.702 18.7651L7.783 19.7941L7.525 18.4391L6.263 17.8831Z" fill="#FF9800"/>
<path d="M6.30402 17.882L7.48902 17.231L7.62502 15.885L8.61102 16.811L9.93302 16.525L9.35602 17.748L10.037 18.917L8.69502 18.747L7.79402 19.756L7.54102 18.427L6.30402 17.882Z" fill="#FF9C00"/>
<path d="M6.34399 17.8801L7.50599 17.2421L7.63999 15.9221L8.60599 16.8311L9.90199 16.5501L9.33699 17.7491L10.004 18.8951L8.68899 18.7281L7.80499 19.7171L7.55799 18.4141L6.34399 17.8801Z" fill="#FF9E00"/>
<path d="M6.38403 17.8782L7.52403 17.2532L7.65403 15.9602L8.60103 16.8502L9.87103 16.5742L9.31703 17.7502L9.97203 18.8732L8.68203 18.7092L7.81703 19.6792L7.57403 18.4022L6.38403 17.8782Z" fill="#FFA000"/>
<path d="M6.42499 17.8761L7.54099 17.2641L7.66899 15.9971L8.59599 16.8691L9.84099 16.5991L9.29799 17.7511L9.93899 18.8511L8.67599 18.6911L7.82799 19.6401L7.58999 18.3891L6.42499 17.8761Z" fill="#FFA400"/>
<path d="M6.46503 17.8752L7.55803 17.2752L7.68303 16.0342L8.59203 16.8882L9.81003 16.6242L9.27803 17.7522L9.90603 18.8292L8.66903 18.6722L7.83903 19.6022L7.60603 18.3772L6.46503 17.8752Z" fill="#FFA600"/>
<path d="M6.50598 17.873L7.57498 17.286L7.69798 16.072L8.58698 16.907L9.77898 16.649L9.25898 17.753L9.87298 18.807L8.66298 18.653L7.84998 19.563L7.62198 18.365L6.50598 17.873Z" fill="#FFA900"/>
<path d="M6.54602 17.8711L7.59202 17.2971L7.71202 16.1091L8.58202 16.9271L9.74902 16.6741L9.24002 17.7531L9.84102 18.7851L8.65602 18.6341L7.86102 19.5251L7.63802 18.3521L6.54602 17.8711Z" fill="#FFAC00"/>
<path d="M6.586 17.8692L7.609 17.3072L7.727 16.1462L8.577 16.9462L9.718 16.6982L9.22 17.7542L9.808 18.7632L8.65 18.6162L7.873 19.4862L7.655 18.3402L6.586 17.8692Z" fill="#FFAF00"/>
<path d="M6.62701 17.8671L7.62701 17.3181L7.74101 16.1841L8.57201 16.9651L9.68701 16.7231L9.20101 17.7551L9.77501 18.7411L8.64401 18.5971L7.88401 19.4481L7.67101 18.3271L6.62701 17.8671Z" fill="#FFB100"/>
<path d="M6.66699 17.8662L7.64399 17.3292L7.75599 16.2212L8.56799 16.9842L9.65699 16.7482L9.18199 17.7562L9.74299 18.7192L8.63699 18.5782L7.89499 19.4092L7.68699 18.3152L6.66699 17.8662Z" fill="#FFB500"/>
<path d="M6.70703 17.8641L7.66103 17.3401L7.77003 16.2581L8.56303 17.0031L9.62603 16.7731L9.16203 17.7571L9.71003 18.6971L8.63103 18.5601L7.90603 19.3711L7.70303 18.3021L6.70703 17.8641Z" fill="#FFB700"/>
<path d="M6.74799 17.8621L7.67799 17.3511L7.78499 16.2961L8.55799 17.0221L9.59499 16.7981L9.14299 17.7581L9.67699 18.6751L8.62399 18.5411L7.91699 19.3321L7.71899 18.2901L6.74799 17.8621Z" fill="#FFBA00"/>
<path d="M6.78802 17.86L7.69502 17.362L7.79902 16.333L8.55303 17.042L9.56402 16.822L9.12302 17.758L9.64402 18.653L8.61802 18.522L7.92902 19.294L7.73502 18.277L6.78802 17.86Z" fill="#FFBD00"/>
<path d="M6.82898 17.8591L7.71198 17.3731L7.81398 16.3701L8.54798 17.0611L9.53398 16.8471L9.10398 17.7591L9.61198 18.6301L8.61098 18.5041L7.93998 19.2561L7.75098 18.2651L6.82898 17.8591Z" fill="#FFC000"/>
<path d="M6.86902 17.8572L7.73002 17.3842L7.82802 16.4082L8.54402 17.0802L9.50302 16.8722L9.08502 17.7602L9.57902 18.6082L8.60502 18.4852L7.95102 19.2172L7.76802 18.2532L6.86902 17.8572Z" fill="#FFC200"/>
<path d="M6.909 17.8551L7.747 17.3951L7.843 16.4451L8.539 17.0991L9.472 16.8971L9.065 17.7611L9.546 18.5861L8.599 18.4661L7.962 19.1791L7.784 18.2401L6.909 17.8551Z" fill="#FFC600"/>
<path d="M6.95001 17.8532L7.76401 17.4062L7.85701 16.4822L8.53401 17.1182L9.44201 16.9222L9.04601 17.7622L9.51401 18.5642L8.59201 18.4472L7.97301 19.1402L7.80001 18.2282L6.95001 17.8532Z" fill="#FFC800"/>
<path d="M6.98999 17.852L7.78099 17.417L7.87199 16.52L8.52899 17.138L9.41099 16.946L9.02599 17.763L9.48099 18.542L8.58599 18.429L7.98499 19.102L7.81599 18.215L6.98999 17.852Z" fill="#FFCB00"/>
<path d="M7.03101 17.8501L7.79801 17.4281L7.88601 16.5571L8.52401 17.1571L9.38001 16.9711L9.00701 17.7641L9.44801 18.5201L8.57901 18.4101L7.99601 19.0631L7.83201 18.2031L7.03101 17.8501Z" fill="#FFCE00"/>
<path d="M7.07098 17.8482L7.81598 17.4392L7.90098 16.5942L8.51998 17.1762L9.34998 16.9962L8.98798 17.7642L9.41498 18.4982L8.57298 18.3912L8.00698 19.0252L7.84798 18.1902L7.07098 17.8482Z" fill="#FFD100"/>
<path d="M7.11102 17.8461L7.83302 17.4501L7.91502 16.6321L8.51502 17.1951L9.31902 17.0211L8.96802 17.7651L9.38302 18.4761L8.56602 18.3731L8.01802 18.9861L7.86402 18.1781L7.11102 17.8461Z" fill="#FFD300"/>
<path d="M7.15204 17.8452L7.85004 17.4612L7.93004 16.6692L8.51004 17.2142L9.28804 17.0462L8.94904 17.7662L9.35004 18.4542L8.56004 18.3542L8.02904 18.9482L7.88104 18.1662L7.15204 17.8452Z" fill="#FFD700"/>
<path d="M7.19202 17.8431L7.86702 17.4721L7.94402 16.7061L8.50502 17.2341L9.25802 17.0711L8.93002 17.7671L9.31702 18.4321L8.55302 18.3351L8.04102 18.9091L7.89702 18.1531L7.19202 17.8431Z" fill="#FFDA00"/>
<path d="M7.23303 17.8411L7.88403 17.4831L7.95903 16.7441L8.50103 17.2531L9.22703 17.0951L8.91003 17.7681L9.28403 18.4101L8.54703 18.3161L8.05203 18.8711L7.91303 18.1411L7.23303 17.8411Z" fill="#FFDC00"/>
<path d="M7.27301 17.839L7.90101 17.494L7.97301 16.781L8.49601 17.272L9.19601 17.12L8.89101 17.769L9.25201 18.388L8.54101 18.298L8.06301 18.832L7.92901 18.128L7.27301 17.839Z" fill="#FFE000"/>
<path d="M7.31299 17.8371L7.91899 17.5051L7.98799 16.8181L8.49099 17.2911L9.16599 17.1451L8.87099 17.7691L9.21899 18.3661L8.53399 18.2791L8.07399 18.7941L7.94499 18.1161L7.31299 17.8371Z" fill="#FFE200"/>
<path d="M7.354 17.8362L7.936 17.5162L8.002 16.8562L8.486 17.3102L9.135 17.1702L8.852 17.7702L9.186 18.3442L8.528 18.2602L8.085 18.7562L7.961 18.1032L7.354 17.8362Z" fill="#FFE500"/>
<path d="M7.39398 17.8341L7.95298 17.5271L8.01698 16.8931L8.48098 17.3301L9.10398 17.1951L8.83298 17.7711L9.15398 18.3221L8.52098 18.2421L8.09698 18.7171L7.97798 18.0911L7.39398 17.8341Z" fill="#FFE900"/>
<path d="M7.435 17.8322L7.97 17.5382L8.031 16.9302L8.477 17.3492L9.074 17.2192L8.813 17.7722L9.121 18.3002L8.515 18.2232L8.108 18.6792L7.994 18.0782L7.435 17.8322Z" fill="#FFEB00"/>
<path d="M21.552 8.51294L22.783 8.39594L23.383 7.31494L23.876 8.44894L25.089 8.68594L24.163 9.50494L24.312 10.7319L23.247 10.1039L22.126 10.6249L22.394 9.41894L21.552 8.51294Z" fill="#FF7E00"/>
<path d="M21.59 8.52796L22.794 8.41296L23.382 7.35596L23.863 8.46496L25.05 8.69696L24.144 9.49796L24.29 10.698L23.249 10.084L22.152 10.594L22.414 9.41296L21.59 8.52796Z" fill="#FF8100"/>
<path d="M21.629 8.543L22.806 8.43L23.38 7.396L23.851 8.481L25.012 8.708L24.126 9.491L24.269 10.665L23.25 10.064L22.178 10.563L22.434 9.408L21.629 8.543Z" fill="#FF8400"/>
<path d="M21.667 8.55704L22.817 8.44703L23.379 7.43604L23.839 8.49704L24.974 8.71804L24.108 9.48404L24.247 10.631L23.252 10.044L22.203 10.532L22.454 9.40304L21.667 8.55704Z" fill="#FF8800"/>
<path d="M21.705 8.57205L22.829 8.46405L23.377 7.47705L23.827 8.51305L24.935 8.72905L24.089 9.47705L24.226 10.5981L23.253 10.0241L22.229 10.5001L22.474 9.39805L21.705 8.57205Z" fill="#FF8C00"/>
<path d="M21.743 8.58585L22.841 8.48085L23.376 7.51685L23.815 8.52885L24.897 8.73985L24.071 9.46985L24.204 10.5638L23.255 10.0038L22.255 10.4688L22.494 9.39285L21.743 8.58585Z" fill="#FF9000"/>
<path d="M21.781 8.60086L22.852 8.49786L23.375 7.55786L23.803 8.54386L24.858 8.75086L24.053 9.46286L24.182 10.5309L23.256 9.98386L22.281 10.4379L22.514 9.38786L21.781 8.60086Z" fill="#FF9300"/>
<path d="M21.82 8.6149L22.864 8.5149L23.373 7.5979L23.791 8.5599L24.82 8.7619L24.034 9.4559L24.161 10.4969L23.258 9.9639L22.307 10.4069L22.534 9.3829L21.82 8.6149Z" fill="#FF9700"/>
<path d="M21.858 8.62992L22.875 8.53192L23.372 7.63892L23.779 8.57592L24.782 8.77192L24.016 9.44892L24.139 10.4639L23.259 9.94392L22.332 10.3749L22.554 9.37792L21.858 8.62992Z" fill="#FF9B00"/>
<path d="M21.896 8.64396L22.887 8.54895L23.37 7.67896L23.767 8.59196L24.743 8.78296L23.998 9.44196L24.118 10.43L23.261 9.92496L22.358 10.344L22.574 9.37296L21.896 8.64396Z" fill="#FF9E00"/>
<path d="M21.934 8.65897L22.898 8.56597L23.369 7.71997L23.754 8.60797L24.705 8.79397L23.979 9.43497L24.096 10.396L23.262 9.90497L22.384 10.313L22.594 9.36797L21.934 8.65897Z" fill="#FFA200"/>
<path d="M21.973 8.67301L22.91 8.58301L23.367 7.76001L23.742 8.62401L24.666 8.80501L23.961 9.42801L24.075 10.363L23.264 9.88501L22.41 10.282L22.614 9.36201L21.973 8.67301Z" fill="#FFA600"/>
<path d="M22.011 8.68802L22.921 8.60003L23.366 7.80103L23.73 8.64003L24.628 8.81502L23.942 9.42102L24.053 10.329L23.265 9.86503L22.436 10.25L22.634 9.35703L22.011 8.68802Z" fill="#FFAA00"/>
<path d="M22.049 8.70182L22.933 8.61782L23.364 7.84082L23.718 8.65582L24.59 8.82582L23.924 9.41382L24.031 10.2958L23.267 9.84482L22.461 10.2188L22.654 9.35182L22.049 8.70182Z" fill="#FFAE00"/>
<path d="M22.087 8.71684L22.945 8.63484L23.363 7.88184L23.706 8.67184L24.551 8.83684L23.906 9.40684L24.01 10.2618L23.268 9.82484L22.487 10.1878L22.674 9.34684L22.087 8.71684Z" fill="#FFB100"/>
<path d="M22.125 8.73088L22.956 8.65188L23.361 7.92188L23.694 8.68787L24.513 8.84787L23.887 9.39987L23.988 10.2289L23.27 9.80488L22.513 10.1569L22.694 9.34188L22.125 8.73088Z" fill="#FFB500"/>
<path d="M22.164 8.74589L22.968 8.66889L23.36 7.96289L23.682 8.70389L24.474 8.85889L23.869 9.39289L23.967 10.1949L23.271 9.78489L22.539 10.1249L22.714 9.33689L22.164 8.74589Z" fill="#FFB900"/>
<path d="M22.202 8.75993L22.979 8.68593L23.359 8.00293L23.67 8.71893L24.436 8.86893L23.851 9.38593L23.945 10.1619L23.272 9.76493L22.564 10.0939L22.734 9.33193L22.202 8.75993Z" fill="#FFBC00"/>
<path d="M22.24 8.77495L22.991 8.70295L23.357 8.04395L23.657 8.73495L24.397 8.87995L23.832 9.37895L23.924 10.1279L23.274 9.74495L22.59 10.0629L22.754 9.32695L22.24 8.77495Z" fill="#FFC000"/>
<path d="M22.278 8.78898L23.002 8.71999L23.356 8.08398L23.645 8.75099L24.359 8.89098L23.814 9.37298L23.902 10.094L23.275 9.72499L22.616 10.032L22.774 9.32198L22.278 8.78898Z" fill="#FFC500"/>
<path d="M22.317 8.804L23.014 8.737L23.354 8.125L23.633 8.767L24.321 8.902L23.796 9.366L23.88 10.061L23.277 9.705L22.642 10L22.794 9.317L22.317 8.804Z" fill="#FFC800"/>
<path d="M22.355 8.81804L23.025 8.75404L23.353 8.16504L23.621 8.78304L24.282 8.91204L23.777 9.35904L23.859 10.027L23.278 9.68504L22.668 9.96904L22.814 9.31204L22.355 8.81804Z" fill="#FFCC00"/>
<path d="M22.393 8.83305L23.037 8.77105L23.351 8.20605L23.609 8.79905L24.244 8.92305L23.759 9.35205L23.837 9.99405L23.28 9.66505L22.693 9.93805L22.834 9.30605L22.393 8.83305Z" fill="#FFD000"/>
<path d="M22.431 8.84685L23.049 8.78785L23.35 8.24585L23.597 8.81485L24.205 8.93385L23.741 9.34485L23.816 9.95985L23.281 9.64485L22.719 9.90685L22.854 9.30085L22.431 8.84685Z" fill="#FFD300"/>
<path d="M22.469 8.86187L23.06 8.80487L23.348 8.28687L23.585 8.83087L24.167 8.94487L23.722 9.33787L23.794 9.92687L23.283 9.62487L22.745 9.87487L22.874 9.29587L22.469 8.86187Z" fill="#FFD700"/>
<path d="M22.508 8.87591L23.072 8.8219L23.347 8.3269L23.573 8.8469L24.129 8.9559L23.704 9.3309L23.772 9.8929L23.284 9.6049L22.771 9.8439L22.894 9.2909L22.508 8.87591Z" fill="#FFDB00"/>
<path d="M22.546 8.89092L23.083 8.83892L23.345 8.36792L23.56 8.86292L24.09 8.96592L23.686 9.32392L23.751 9.85992L23.286 9.58492L22.797 9.81292L22.914 9.28592L22.546 8.89092Z" fill="#FFE000"/>
<path d="M22.584 8.90496L23.095 8.85596L23.344 8.40796L23.548 8.87896L24.052 8.97696L23.667 9.31696L23.729 9.82596L23.287 9.56496L22.822 9.78196L22.934 9.28096L22.584 8.90496Z" fill="#FFE400"/>
<path d="M22.622 8.91997L23.106 8.87397L23.343 8.44897L23.536 8.89497L24.013 8.98797L23.649 9.30997L23.708 9.79197L23.289 9.54597L22.848 9.75097L22.954 9.27597L22.622 8.91997Z" fill="#FFE700"/>
<path d="M22.661 8.93401L23.118 8.89101L23.341 8.48901L23.524 8.91001L23.975 8.99901L23.631 9.30301L23.686 9.75901L23.29 9.52601L22.874 9.71901L22.974 9.27101L22.661 8.93401Z" fill="#FFEB00"/>
<path d="M40.259 32.8659L41.426 33.2739L42.423 32.5439L42.396 33.7799L43.398 34.5039L42.214 34.8589L41.835 36.0359L41.132 35.0199L39.895 35.0239L40.644 34.0399L40.259 32.8659Z" fill="#FF7E00"/>
<path d="M40.287 32.8951L41.429 33.2941L42.405 32.5811L42.378 33.7901L43.359 34.4981L42.2 34.8451L41.83 35.9971L41.141 35.0021L39.932 35.0061L40.665 34.0441L40.287 32.8951Z" fill="#FF8100"/>
<path d="M40.316 32.9239L41.432 33.3149L42.387 32.6169L42.36 33.7989L43.319 34.4909L42.186 34.8309L41.824 35.9569L41.151 34.9849L39.968 34.9889L40.685 34.0479L40.316 32.9239Z" fill="#FF8400"/>
<path d="M40.345 32.9528L41.436 33.3348L42.369 32.6528L42.343 33.8078L43.28 34.4848L42.173 34.8168L41.819 35.9178L41.161 34.9668L40.005 34.9708L40.705 34.0508L40.345 32.9528Z" fill="#FF8800"/>
<path d="M40.373 32.982L41.439 33.355L42.35 32.689L42.325 33.818L43.24 34.479L42.159 34.803L41.813 35.878L41.17 34.95L40.041 34.953L40.725 34.055L40.373 32.982Z" fill="#FF8C00"/>
<path d="M40.402 33.0119L41.442 33.3759L42.332 32.7249L42.307 33.8269L43.201 34.4719L42.145 34.7889L41.808 35.8389L41.18 34.9319L40.078 34.9359L40.746 34.0589L40.402 33.0119Z" fill="#FF9000"/>
<path d="M40.431 33.041L41.446 33.396L42.314 32.761L42.29 33.836L43.162 34.466L42.131 34.775L41.802 35.799L41.19 34.915L40.114 34.918L40.766 34.063L40.431 33.041Z" fill="#FF9300"/>
<path d="M40.459 33.0699L41.449 33.4159L42.295 32.7969L42.272 33.8459L43.122 34.4599L42.118 34.7609L41.797 35.7599L41.2 34.8969L40.151 34.9009L40.786 34.0659L40.459 33.0699Z" fill="#FF9700"/>
<path d="M40.488 33.099L41.452 33.437L42.277 32.834L42.254 33.855L43.083 34.453L42.104 34.747L41.791 35.72L41.209 34.88L40.187 34.883L40.807 34.07L40.488 33.099Z" fill="#FF9B00"/>
<path d="M40.516 33.1279L41.456 33.4569L42.259 32.8699L42.237 33.8649L43.043 34.4469L42.09 34.7329L41.786 35.6809L41.219 34.8629L40.224 34.8659L40.827 34.0739L40.516 33.1279Z" fill="#FF9E00"/>
<path d="M40.545 33.158L41.459 33.477L42.241 32.906L42.219 33.874L43.004 34.441L42.077 34.719L41.78 35.641L41.229 34.845L40.26 34.848L40.847 34.078L40.545 33.158Z" fill="#FFA200"/>
<path d="M40.574 33.1869L41.462 33.4979L42.222 32.9419L42.201 33.8829L42.965 34.4339L42.063 34.7049L41.775 35.6019L41.238 34.8279L40.297 34.8299L40.867 34.0809L40.574 33.1869Z" fill="#FFA600"/>
<path d="M40.602 33.216L41.466 33.518L42.204 32.978L42.184 33.893L42.925 34.428L42.049 34.691L41.769 35.562L41.248 34.81L40.333 34.813L40.888 34.085L40.602 33.216Z" fill="#FFAA00"/>
<path d="M40.631 33.2449L41.469 33.5379L42.186 33.0139L42.166 33.9019L42.886 34.4219L42.035 34.6769L41.764 35.5229L41.258 34.7929L40.37 34.7949L40.908 34.0889L40.631 33.2449Z" fill="#FFAE00"/>
<path d="M40.66 33.274L41.472 33.559L42.168 33.05L42.148 33.911L42.846 34.416L42.022 34.663L41.758 35.4831L41.268 34.7751L40.406 34.778L40.928 34.093L40.66 33.274Z" fill="#FFB100"/>
<path d="M40.688 33.3029L41.476 33.5789L42.149 33.0869L42.13 33.9209L42.807 34.4089L42.008 34.6489L41.752 35.4439L41.277 34.7579L40.443 34.7599L40.948 34.0959L40.688 33.3029Z" fill="#FFB500"/>
<path d="M40.717 33.333L41.479 33.599L42.131 33.123L42.113 33.93L42.768 34.403L41.994 34.635L41.747 35.404L41.287 34.74L40.479 34.743L40.969 34.1L40.717 33.333Z" fill="#FFB900"/>
<path d="M40.745 33.3619L41.482 33.6199L42.113 33.1589L42.095 33.9399L42.728 34.3969L41.98 34.6209L41.741 35.3639L41.297 34.7229L40.516 34.7249L40.989 34.1039L40.745 33.3619Z" fill="#FFBC00"/>
<path d="M40.774 33.3908L41.486 33.6398L42.094 33.1948L42.077 33.9488L42.689 34.3898L41.967 34.6068L41.736 35.3248L41.306 34.7048L40.552 34.7068L41.009 34.1068L40.774 33.3908Z" fill="#FFC000"/>
<path d="M40.803 33.42L41.489 33.66L42.076 33.231L42.06 33.958L42.649 34.384L41.953 34.593L41.73 35.285L41.316 34.688L40.589 34.69L41.029 34.111L40.803 33.42Z" fill="#FFC500"/>
<path d="M40.831 33.4488L41.492 33.6808L42.058 33.2668L42.042 33.9678L42.61 34.3778L41.939 34.5788L41.725 35.2458L41.326 34.6698L40.625 34.6718L41.05 34.1148L40.831 33.4488Z" fill="#FFC800"/>
<path d="M40.86 33.479L41.496 33.701L42.04 33.304L42.024 33.977L42.571 34.371L41.925 34.565L41.719 35.206L41.336 34.653L40.662 34.655L41.07 34.119L40.86 33.479Z" fill="#FFCC00"/>
<path d="M40.889 33.5078L41.499 33.7218L42.021 33.3398L42.007 33.9858L42.531 34.3648L41.912 34.5508L41.714 35.1668L41.345 34.6348L40.698 34.6368L41.09 34.1218L40.889 33.5078Z" fill="#FFD000"/>
<path d="M40.917 33.537L41.502 33.742L42.003 33.376L41.989 33.996L42.492 34.359L41.898 34.537L41.708 35.127L41.355 34.618L40.735 34.62L41.111 34.126L40.917 33.537Z" fill="#FFD300"/>
<path d="M40.946 33.5659L41.506 33.7619L41.985 33.4119L41.971 34.0049L42.453 34.3519L41.884 34.5229L41.703 35.0879L41.365 34.5999L40.771 34.6019L41.131 34.1299L40.946 33.5659Z" fill="#FFD700"/>
<path d="M40.974 33.595L41.509 33.783L41.967 33.448L41.954 34.015L42.413 34.346L41.87 34.509L41.697 35.048L41.374 34.583L40.808 34.584L41.151 34.134L40.974 33.595Z" fill="#FFDB00"/>
<path d="M41.003 33.6249L41.513 33.8029L41.948 33.4839L41.936 34.0239L42.374 34.3399L41.857 34.4949L41.692 35.0089L41.384 34.5649L40.844 34.5669L41.171 34.1369L41.003 33.6249Z" fill="#FFE000"/>
<path d="M41.032 33.654L41.516 33.823L41.93 33.52L41.918 34.033L42.334 34.334L41.843 34.481L41.686 34.969L41.394 34.548L40.881 34.549L41.192 34.141L41.032 33.654Z" fill="#FFE400"/>
<path d="M41.06 33.6829L41.519 33.8439L41.912 33.5569L41.901 34.0429L42.295 34.3269L41.829 34.4669L41.68 34.9299L41.404 34.5299L40.917 34.5319L41.212 34.1449L41.06 33.6829Z" fill="#FFE700"/>
<path d="M41.089 33.712L41.523 33.864L41.893 33.593L41.883 34.052L42.256 34.321L41.816 34.453L41.675 34.89L41.413 34.513L40.954 34.514L41.232 34.149L41.089 33.712Z" fill="#FFEB00"/>
<path d="M36.559 15.0839C37.464 11.3129 26.623 7.95389 26.375 4.06789L26.475 1.31689C27.6 4.39989 38.462 9.27489 37.057 13.0059L36.559 15.0839Z" fill="url(#paint3_linear_208_7557)"/>
<path d="M27.541 15.7261C28.446 11.9551 35.907 17.8011 36.611 14.8681L37.111 12.7901C36.411 15.7231 28.947 9.87805 28.041 13.6491L27.541 15.7261Z" fill="url(#paint4_linear_208_7557)"/>
<path d="M30.347 24.1001C30.998 21.0601 26.632 19.1781 27.593 15.5001L28.093 13.4231C27.393 16.3561 31.751 18.2471 30.846 22.0181L30.347 24.1001Z" fill="url(#paint5_linear_208_7557)"/>
<path d="M20.849 31.4619C21.754 27.6909 29.643 27.0359 30.349 24.1029L30.849 22.0249C30.139 24.5719 21.249 23.7669 20.342 27.7389L20.849 31.4619Z" fill="url(#paint6_linear_208_7557)"/>
<path d="M24.319 33.014C23.2179 33.1342 22.1366 33.3939 21.101 33.787L21.11 33.794C21.499 34.085 21.745 34.275 21.864 34.366C22.027 34.49 22.264 34.666 22.574 34.872C23.6687 34.7332 24.7753 34.7148 25.874 34.817C26.4608 34.876 27.0442 34.9647 27.622 35.083C31.3172 35.9007 34.5894 38.0329 36.83 41.083C37.007 40.293 37.184 39.512 37.36 38.732C35.8003 36.8075 33.8026 35.2842 31.5338 34.2894C29.2651 33.2947 26.7913 32.8573 24.319 33.014Z" fill="url(#paint7_linear_208_7557)"/>
<path d="M12.793 15.9729C11.937 12.8469 19.667 11.0949 19.012 8.70388L17.92 5.65088C18.575 8.04088 11.164 10.8669 12.02 13.9929L12.793 15.9729Z" fill="url(#paint8_linear_208_7557)"/>
<path d="M20.356 20.0729C19.5 16.9469 12.962 17.9409 12.307 15.5509L11.928 13.4629C12.582 15.8539 19.121 14.8629 19.977 17.9859L20.356 20.0729Z" fill="url(#paint9_linear_208_7557)"/>
<path d="M16.816 27.151C15.897 24.042 21.179 21.68 20.476 19.303L19.722 17.322C20.422 19.699 15.142 22.062 16.061 25.17L16.816 27.151Z" fill="url(#paint10_linear_208_7557)"/>
<path d="M26 25.4999C25.345 25.4532 24.7217 25.1997 24.22 24.7759C23.8329 24.4421 23.5352 24.0169 23.354 23.5389C23.7247 22.9129 24.0953 22.2863 24.466 21.6589C24.7062 22.2345 25.1219 22.7196 25.654 23.0449C25.9548 23.2234 26.2861 23.3448 26.631 23.4029L26 25.4999Z" fill="url(#paint11_linear_208_7557)"/>
<path d="M23.742 18.331C23.4685 18.6294 23.1297 18.8606 22.752 19.0065C22.3744 19.1524 21.9681 19.209 21.565 19.172V17.491C22.2182 17.5132 22.8634 17.3425 23.42 17L23.742 18.331Z" fill="url(#paint12_linear_208_7557)"/>
<path d="M39.839 6.33093C39.4307 6.77406 38.9182 7.10818 38.348 7.30293C38.0939 7.38804 37.8309 7.44341 37.564 7.46793V5.52193C37.8082 5.46631 38.0471 5.38969 38.278 5.29293C38.7014 5.11564 39.0948 4.87376 39.444 4.57593L39.839 6.33093Z" fill="url(#paint13_linear_208_7557)"/>
<path d="M8.005 7.23106C8.14657 7.60967 8.37363 7.95049 8.6685 8.22697C8.96337 8.50345 9.31808 8.70813 9.705 8.82506L10.333 7.26506C10.1161 7.18694 9.908 7.0864 9.712 6.96506C9.35775 6.73973 9.04849 6.45048 8.8 6.11206L8.005 7.23106Z" fill="url(#paint14_linear_208_7557)"/>
<path d="M35.254 30.0231C34.8459 30.4676 34.3335 30.8034 33.763 31.0001C33.5089 31.0851 33.2458 31.1405 32.979 31.1651V29.2141C33.6726 29.0553 34.3174 28.7307 34.858 28.2681L35.254 30.0231Z" fill="url(#paint15_linear_208_7557)"/>
<path d="M42.277 17.7411C41.4567 17.5563 40.7034 17.1486 40.1 16.5631L40.718 14.8081C40.9167 15.1628 41.1872 15.4722 41.5123 15.7164C41.8374 15.9606 42.2099 16.1342 42.606 16.2261L42.277 17.7411Z" fill="url(#paint16_linear_208_7557)"/>
<defs>
<radialGradient id="paint0_radial_208_7557" cx="0" cy="0" r="1" gradientUnits="userSpaceOnUse" gradientTransform="translate(1.32982 16.9329) rotate(45) scale(51.5)">
<stop stop-color="#934A0C"/>
<stop offset="0.106" stop-color="#FF7E00"/>
<stop offset="0.186" stop-color="#FFEB00"/>
<stop offset="0.234" stop-color="#FFEF45"/>
<stop offset="0.284" stop-color="#FFF287"/>
<stop offset="0.298" stop-color="#FFF27E"/>
<stop offset="0.322" stop-color="#FFF065"/>
<stop offset="0.351" stop-color="#FFEE3C"/>
<stop offset="0.386" stop-color="#FFEB04"/>
<stop offset="0.388" stop-color="#FFEB00"/>
<stop offset="0.545" stop-color="#FF7E00"/>
<stop offset="0.93" stop-color="#6D3913"/>
</radialGradient>
<radialGradient id="paint1_radial_208_7557" cx="0" cy="0" r="1" gradientUnits="userSpaceOnUse" gradientTransform="translate(16.194 11.9627) rotate(45) scale(20.6109 21.053)">
<stop stop-color="#993712"/>
<stop offset="1" stop-color="#FC520E"/>
</radialGradient>
<linearGradient id="paint2_linear_208_7557" x1="11.814" y1="31.7111" x2="27.589" y2="27.7051" gradientUnits="userSpaceOnUse">
<stop stop-color="#FFEF56"/>
<stop offset="1" stop-color="#FC6115"/>
</linearGradient>
<linearGradient id="paint3_linear_208_7557" x1="37.8417" y1="9.53898" x2="25.3487" y2="6.93675" gradientUnits="userSpaceOnUse">
<stop stop-color="#8E0000"/>
<stop offset="0.293" stop-color="#FF0000"/>
<stop offset="0.428" stop-color="#EA0000"/>
<stop offset="0.708" stop-color="#B40000"/>
<stop offset="1" stop-color="#760000"/>
</linearGradient>
<linearGradient id="paint4_linear_208_7557" x1="28.1817" y1="13.1254" x2="36.4688" y2="15.3906" gradientUnits="userSpaceOnUse">
<stop stop-color="#8E0000"/>
<stop offset="0.293" stop-color="#FF0000"/>
<stop offset="0.428" stop-color="#EA0000"/>
<stop offset="0.708" stop-color="#B40000"/>
<stop offset="1" stop-color="#760000"/>
</linearGradient>
<linearGradient id="paint5_linear_208_7557" x1="31.4576" y1="19.2545" x2="27.0354" y2="18.3336" gradientUnits="userSpaceOnUse">
<stop stop-color="#8E0000"/>
<stop offset="0.293" stop-color="#FF0000"/>
<stop offset="0.428" stop-color="#EA0000"/>
<stop offset="0.708" stop-color="#B40000"/>
<stop offset="1" stop-color="#760000"/>
</linearGradient>
<linearGradient id="paint6_linear_208_7557" x1="21.3353" y1="27.5211" x2="29.9082" y2="26.0423" gradientUnits="userSpaceOnUse">
<stop offset="0.293" stop-color="#FF0000"/>
<stop offset="0.428" stop-color="#EA0000"/>
<stop offset="0.708" stop-color="#B40000"/>
<stop offset="1" stop-color="#760000"/>
</linearGradient>
<linearGradient id="paint7_linear_208_7557" x1="39.3726" y1="46.7759" x2="24.4756" y2="31.2293" gradientUnits="userSpaceOnUse">
<stop offset="0.188" stop-color="#1E380B"/>
<stop offset="0.598" stop-color="#97CA00"/>
<stop offset="0.648" stop-color="#8FC001"/>
<stop offset="0.733" stop-color="#78A504"/>
<stop offset="0.843" stop-color="#537908"/>
<stop offset="0.927" stop-color="#33530C"/>
</linearGradient>
<linearGradient id="paint8_linear_208_7557" x1="8.91689" y1="13.1835" x2="20.1586" y2="9.04321" gradientUnits="userSpaceOnUse">
<stop offset="0.188" stop-color="#1E380B"/>
<stop offset="0.598" stop-color="#97CA00"/>
<stop offset="0.648" stop-color="#8FC001"/>
<stop offset="0.733" stop-color="#78A504"/>
<stop offset="0.843" stop-color="#537908"/>
<stop offset="0.927" stop-color="#33530C"/>
</linearGradient>
<linearGradient id="paint9_linear_208_7557" x1="6.34216" y1="16.181" x2="19.4101" y2="16.9642" gradientUnits="userSpaceOnUse">
<stop offset="0.188" stop-color="#1E380B"/>
<stop offset="0.598" stop-color="#97CA00"/>
<stop offset="0.648" stop-color="#8FC001"/>
<stop offset="0.733" stop-color="#78A504"/>
<stop offset="0.843" stop-color="#537908"/>
<stop offset="0.927" stop-color="#33530C"/>
</linearGradient>
<linearGradient id="paint10_linear_208_7557" x1="13.7815" y1="25.5634" x2="22.6145" y2="19.0148" gradientUnits="userSpaceOnUse">
<stop offset="0.188" stop-color="#1E380B"/>
<stop offset="0.598" stop-color="#97CA00"/>
<stop offset="0.648" stop-color="#8FC001"/>
<stop offset="0.733" stop-color="#78A504"/>
<stop offset="0.843" stop-color="#537908"/>
<stop offset="0.927" stop-color="#33530C"/>
</linearGradient>
<linearGradient id="paint11_linear_208_7557" x1="68.4599" y1="71.9319" x2="66.0837" y2="66.9068" gradientUnits="userSpaceOnUse">
<stop offset="0.188" stop-color="#1E380B"/>
<stop offset="0.598" stop-color="#97CA00"/>
<stop offset="0.648" stop-color="#8FC001"/>
<stop offset="0.733" stop-color="#78A504"/>
<stop offset="0.843" stop-color="#537908"/>
<stop offset="0.927" stop-color="#33530C"/>
</linearGradient>
<linearGradient id="paint12_linear_208_7557" x1="72.2439" y1="73.6235" x2="72.7618" y2="69.7695" gradientUnits="userSpaceOnUse">
<stop offset="0.188" stop-color="#1E380B"/>
<stop offset="0.598" stop-color="#97CA00"/>
<stop offset="0.648" stop-color="#8FC001"/>
<stop offset="0.733" stop-color="#78A504"/>
<stop offset="0.843" stop-color="#537908"/>
<stop offset="0.927" stop-color="#33530C"/>
</linearGradient>
<linearGradient id="paint13_linear_208_7557" x1="84.2405" y1="57.3953" x2="85.0506" y2="54.1691" gradientUnits="userSpaceOnUse">
<stop offset="0.188" stop-color="#1E380B"/>
<stop offset="0.598" stop-color="#97CA00"/>
<stop offset="0.648" stop-color="#8FC001"/>
<stop offset="0.733" stop-color="#78A504"/>
<stop offset="0.843" stop-color="#537908"/>
<stop offset="0.927" stop-color="#33530C"/>
</linearGradient>
<linearGradient id="paint14_linear_208_7557" x1="11.1513" y1="8.49428" x2="7.75921" y2="6.59317" gradientUnits="userSpaceOnUse">
<stop offset="0.188" stop-color="#1E380B"/>
<stop offset="0.598" stop-color="#97CA00"/>
<stop offset="0.648" stop-color="#8FC001"/>
<stop offset="0.733" stop-color="#78A504"/>
<stop offset="0.843" stop-color="#537908"/>
<stop offset="0.927" stop-color="#33530C"/>
</linearGradient>
<linearGradient id="paint15_linear_208_7557" x1="60.5216" y1="61.8398" x2="61.3318" y2="58.6146" gradientUnits="userSpaceOnUse">
<stop offset="0.188" stop-color="#1E380B"/>
<stop offset="0.598" stop-color="#97CA00"/>
<stop offset="0.648" stop-color="#8FC001"/>
<stop offset="0.733" stop-color="#78A504"/>
<stop offset="0.843" stop-color="#537908"/>
<stop offset="0.927" stop-color="#33530C"/>
</linearGradient>
<linearGradient id="paint16_linear_208_7557" x1="75.3069" y1="54.7564" x2="73.9104" y2="51.1211" gradientUnits="userSpaceOnUse">
<stop offset="0.188" stop-color="#1E380B"/>
<stop offset="0.598" stop-color="#97CA00"/>
<stop offset="0.648" stop-color="#8FC001"/>
<stop offset="0.733" stop-color="#78A504"/>
<stop offset="0.843" stop-color="#537908"/>
<stop offset="0.927" stop-color="#33530C"/>
</linearGradient>
</defs>
</svg>
