<svg width="49" height="49" viewBox="0 0 49 49" fill="none" xmlns="http://www.w3.org/2000/svg">
<path d="M40.8939 13.8147C41.1811 14.1019 41.3438 14.4895 41.3438 14.8962V44.4062C41.3438 45.2532 40.6595 45.9375 39.8125 45.9375H9.1875C8.34053 45.9375 7.65625 45.2532 7.65625 44.4062V4.59375C7.65625 3.74678 8.34053 3.0625 9.1875 3.0625H29.5101C29.9168 3.0625 30.3092 3.2252 30.5963 3.5123L40.8939 13.8147ZM37.8123 15.5996L28.8066 6.59395V15.5996H37.8123ZM30.3006 30.4939C29.5742 30.47 28.8019 30.5259 27.9247 30.6355C26.7619 29.9182 25.9791 28.933 25.4231 27.4855L25.4743 27.2759L25.5336 27.028C25.7394 26.1604 25.8499 25.5274 25.8829 24.889C25.9078 24.4072 25.881 23.9626 25.7953 23.5506C25.6374 22.6611 25.0082 22.1409 24.2153 22.1089C23.476 22.0787 22.7965 22.4917 22.6228 23.1314C22.34 24.166 22.5055 25.5274 23.1051 27.8491C22.3414 29.6699 21.3322 31.8045 20.6551 32.9951C19.7512 33.4612 19.0473 33.8851 18.4559 34.355C17.6759 34.9757 17.1888 35.6135 17.0548 36.2834C16.9897 36.594 17.0878 36.9998 17.3113 37.3324C17.5649 37.7094 17.9467 37.9544 18.4047 37.9898C19.5603 38.0793 20.9805 36.8878 22.5486 34.1971C22.706 34.1445 22.8726 34.089 23.0759 34.0201L23.6454 33.8277C24.0057 33.7062 24.267 33.6191 24.5254 33.5353C25.6451 33.1707 26.4921 32.9405 27.2625 32.8094C28.6014 33.5262 30.1489 33.9961 31.1911 33.9961C32.0515 33.9961 32.6329 33.5502 32.8429 32.8482C33.0271 32.2319 32.8812 31.517 32.485 31.1217C32.0754 30.7193 31.3222 30.5269 30.3006 30.4939ZM18.4339 36.639V36.6218L18.4401 36.6055C18.5101 36.4245 18.6 36.2518 18.708 36.0906C18.9129 35.7757 19.1947 35.4446 19.544 35.0919C19.7316 34.9029 19.9268 34.7187 20.156 34.512C20.2072 34.466 20.5345 34.1746 20.5958 34.1172L21.1303 33.6196L20.7417 34.2383C20.1522 35.1781 19.6191 35.8547 19.1626 36.2959C18.9947 36.4586 18.8468 36.5782 18.7272 36.6553C18.6877 36.6816 18.6459 36.7044 18.6023 36.7232C18.5827 36.7313 18.5654 36.7361 18.5482 36.7376C18.53 36.7399 18.5116 36.7374 18.4946 36.7304C18.4766 36.7228 18.4612 36.7101 18.4504 36.6939C18.4396 36.6776 18.4339 36.6585 18.4339 36.639ZM24.4603 26.1939L24.3521 26.3854L24.2851 26.1758C24.1368 25.7054 24.0277 24.9967 23.9976 24.3574C23.9631 23.6301 24.021 23.1937 24.2507 23.1937C24.5732 23.1937 24.7211 23.7104 24.7326 24.488C24.7431 25.1714 24.6354 25.8824 24.4598 26.1939H24.4603ZM24.1823 28.9913L24.2555 28.7975L24.3555 28.9794C24.9149 29.9958 25.6408 30.8437 26.4389 31.4346L26.6112 31.5619L26.4011 31.605C25.6197 31.7667 24.8919 32.0098 23.8966 32.4113C24.0004 32.3692 22.862 32.8353 22.574 32.9458L22.3228 33.042L22.4567 32.8085C23.0477 31.7797 23.5937 30.5441 24.1818 28.9913H24.1823ZM31.7246 32.6405C31.3485 32.7888 30.5389 32.6563 29.1134 32.0476L28.7516 31.8935L29.144 31.8648C30.2589 31.782 31.0485 31.8433 31.5088 32.0117C31.705 32.0835 31.8356 32.174 31.8935 32.2773C31.924 32.3262 31.9343 32.3851 31.9221 32.4415C31.91 32.4978 31.8764 32.5472 31.8285 32.5793C31.798 32.6061 31.7628 32.6268 31.7246 32.6405Z" fill="#F24E1E"/>
</svg>
