<svg width="34" height="42" viewBox="0 0 34 42" fill="none" xmlns="http://www.w3.org/2000/svg">
<path fill-rule="evenodd" clip-rule="evenodd" d="M29.2563 0.166664C29.8419 0.166917 30.421 0.290645 30.9557 0.529777C31.4903 0.768908 31.9685 1.11807 32.3591 1.55449C32.7498 1.9909 33.044 2.50477 33.2226 3.06256C33.4012 3.62034 33.4603 4.20953 33.3958 4.79166L29.6938 38.125C29.5809 39.1445 29.096 40.0866 28.3318 40.7709C27.5676 41.4551 26.5778 41.8334 25.5521 41.8333H8.44792C7.42216 41.8334 6.43242 41.4551 5.66822 40.7709C4.90403 40.0866 4.41908 39.1445 4.30625 38.125L0.602083 4.79166C0.537637 4.20935 0.596718 3.61999 0.77547 3.06206C0.954221 2.50413 1.24862 1.99016 1.63946 1.55371C2.0303 1.11726 2.50879 0.768142 3.04369 0.529139C3.57859 0.290136 4.15788 0.166624 4.74375 0.166664H29.2563ZM29.2563 4.33333H4.74375L5.62917 12.2979C6.3771 12.1554 7.13359 12.0621 7.89375 12.0187C10.3917 11.8729 13.8438 12.1729 17.8208 13.8771C21.1354 15.2979 23.9333 15.5187 25.8625 15.4042C26.6029 15.3648 27.3384 15.2602 28.0604 15.0917L29.2563 4.33333ZM27.5792 19.4167C27.1375 19.4792 26.6438 19.5333 26.1063 19.5625C23.6083 19.7104 20.1562 19.4104 16.1792 17.7083C12.8646 16.2854 10.0667 16.0646 8.1375 16.1792C7.44916 16.2171 6.765 16.3105 6.09167 16.4583L8.44792 37.6667H25.5521L27.5792 19.4167ZM14.9167 23.0833C14.9167 23.6359 14.6972 24.1658 14.3065 24.5565C13.9158 24.9472 13.3859 25.1667 12.8333 25.1667C12.2808 25.1667 11.7509 24.9472 11.3602 24.5565C10.9695 24.1658 10.75 23.6359 10.75 23.0833C10.75 22.5308 10.9695 22.0009 11.3602 21.6102C11.7509 21.2195 12.2808 21 12.8333 21C13.3859 21 13.9158 21.2195 14.3065 21.6102C14.6972 22.0009 14.9167 22.5308 14.9167 23.0833ZM19.0833 31.4167C19.6359 31.4167 20.1658 31.1972 20.5565 30.8065C20.9472 30.4158 21.1667 29.8859 21.1667 29.3333C21.1667 28.7808 20.9472 28.2509 20.5565 27.8602C20.1658 27.4695 19.6359 27.25 19.0833 27.25C18.5308 27.25 18.0009 27.4695 17.6102 27.8602C17.2195 28.2509 17 28.7808 17 29.3333C17 29.8859 17.2195 30.4158 17.6102 30.8065C18.0009 31.1972 18.5308 31.4167 19.0833 31.4167Z" fill="#48CAE4"/>
</svg>
