<svg width="40" height="40" viewBox="0 0 40 40" fill="none" xmlns="http://www.w3.org/2000/svg">
<path d="M5.40156 3.20312L3.20312 5.30078V34.7109L5.24375 36.7969H34.7109L36.7969 34.7109V5.29141L34.7109 3.20312H5.40156ZM19.2969 5.63047V8.75H20.7031V5.63047C22.6797 5.65391 24.6484 5.77344 26.5312 5.99219L25.5703 9.82812L26.9297 10.1719L27.9297 6.17578C30.0547 6.48594 32.0312 6.92734 33.75 7.5L30 16.25C27.9609 15.7422 25.0859 15.4375 22.0703 15.3438C22.3906 15.7734 22.5781 16.3047 22.5781 16.875C22.5781 18.2891 21.4141 19.4531 20 19.4531C18.5859 19.4531 17.4219 18.2891 17.4219 16.875C17.4219 16.3047 17.6094 15.7734 17.9297 15.3438C14.9062 15.4375 12.0391 15.7422 10 16.25L6.25 7.5C7.96875 6.92734 9.94531 6.48594 12.0703 6.17578L13.0703 10.1719L14.4297 9.82812L13.4688 5.99219C15.3516 5.77344 17.3203 5.65391 19.2969 5.63047ZM16.8984 7.22344L15.6016 7.77656L18.5781 14.7266C18.9766 14.4688 19.4375 14.3125 19.9375 14.2969L16.8984 7.22344ZM20 15.7031C19.3438 15.7031 18.8281 16.2188 18.8281 16.875C18.8281 17.5312 19.3438 18.0469 20 18.0469C20.6562 18.0469 21.1719 17.5312 21.1719 16.875C21.1719 16.2188 20.6562 15.7031 20 15.7031ZM10 28.0469H30V29.4531H10V28.0469ZM10 31.7969H30V33.2031H10V31.7969Z" fill="#DB615D"/>
</svg>
