<svg width="15" height="21" viewBox="0 0 15 21" fill="none" xmlns="http://www.w3.org/2000/svg">
<path fill-rule="evenodd" clip-rule="evenodd" d="M7.50002 4.77087C8.12162 4.77087 8.71776 4.52394 9.1573 4.08441C9.59684 3.64487 9.84377 3.04873 9.84377 2.42712C9.84377 1.80552 9.59684 1.20938 9.1573 0.769842C8.71776 0.330304 8.12162 0.083374 7.50002 0.083374C6.87842 0.083374 6.28228 0.330304 5.84274 0.769842C5.4032 1.20938 5.15627 1.80552 5.15627 2.42712C5.15627 3.04873 5.4032 3.64487 5.84274 4.08441C6.28228 4.52394 6.87842 4.77087 7.50002 4.77087ZM14.75 6.04171C14.8274 6.30692 14.7962 6.59201 14.6634 6.83424C14.5305 7.07648 14.3069 7.25602 14.0417 7.33337C12.8042 7.69379 11.6865 7.96567 10.625 8.14639V19.875C10.6253 20.1433 10.5221 20.4014 10.3368 20.5955C10.1516 20.7896 9.89857 20.9047 9.63053 20.9168C9.3625 20.929 9.10012 20.8373 8.89805 20.6607C8.69599 20.4842 8.56982 20.2365 8.54585 19.9693L8.02502 14.2401C8.02221 14.2088 8.02082 14.1773 8.02085 14.1459H6.97919C6.97922 14.1773 6.97783 14.2088 6.97502 14.2401L6.45419 19.9693C6.43021 20.2365 6.30405 20.4842 6.10198 20.6607C5.89992 20.8373 5.63754 20.929 5.3695 20.9168C5.10147 20.9047 4.84847 20.7896 4.6632 20.5955C4.47794 20.4014 4.37471 20.1433 4.37502 19.875V8.12712C3.31616 7.94483 2.20262 7.67869 0.971373 7.33702C0.838292 7.30158 0.713559 7.2401 0.604391 7.15615C0.495222 7.07219 0.403786 6.96742 0.335373 6.84789C0.266959 6.72837 0.222925 6.59646 0.20582 6.45981C0.188715 6.32316 0.198877 6.18447 0.235719 6.05177C0.272561 5.91907 0.335351 5.79499 0.420457 5.68672C0.505562 5.57844 0.611294 5.48812 0.731534 5.42097C0.851775 5.35382 0.984137 5.31118 1.12096 5.29552C1.25779 5.27986 1.39636 5.29149 1.52866 5.32973C3.92866 5.99535 5.73179 6.32556 7.50471 6.33337C9.27346 6.34119 11.0724 6.02869 13.4584 5.33337C13.7236 5.25602 14.0087 5.28719 14.2509 5.42003C14.4931 5.55287 14.6727 5.77649 14.75 6.04171Z" fill="#4E30BA"/>
</svg>
