<svg width="30" height="46" viewBox="0 0 30 46" fill="none" xmlns="http://www.w3.org/2000/svg">
<path d="M26.5417 20.9167C23.2917 20.9167 20.4583 19.0417 19.0833 16.3125L17.4375 12.8333C17.4167 12.7917 16.3958 10.5 13.7083 10.5C6.16667 10.5 0.5 32.7708 0.5 37.5833H5.70833L1.33333 43.4167L4.66667 45.9167L10.9167 37.5833H15.0833V45.9167H19.25V37.5208L15.0833 25.0833L16.1042 19.4375C17.808 22.0321 20.4135 23.9027 23.4167 24.6875V26.125H25.5V24.0417C25.5 23.4583 25.9583 23 26.5417 23C27.125 23 27.5833 23.4583 27.5833 24.0417V45.9167H29.6667V24.0417C29.6667 22.3125 28.2708 20.9167 26.5417 20.9167ZM12.1667 4.0625C12.0417 4.45834 11.9583 4.85417 11.9583 5.29167C11.9583 7.58334 13.8333 9.45834 16.125 9.45834C18.4167 9.45834 20.2917 7.58334 20.2917 5.29167C20.2917 3 18.4167 1.125 16.125 1.125C15.6875 1.125 15.2917 1.20834 14.8958 1.33334C14.5833 0.604169 13.8542 0.0833359 13 0.0833359C11.8542 0.0833359 10.9167 1.02084 10.9167 2.16667C10.9167 3.02084 11.4375 3.75 12.1667 4.0625Z" fill="#5A417E"/>
</svg>
