<svg width="50" height="50" viewBox="0 0 50 50" fill="none" xmlns="http://www.w3.org/2000/svg">
<path d="M25 10.9375C28.0203 10.9375 30.4688 8.48906 30.4688 5.46875C30.4688 2.44844 28.0203 0 25 0C21.9797 0 19.5312 2.44844 19.5312 5.46875C19.5312 8.48906 21.9797 10.9375 25 10.9375Z" fill="#5A417E"/>
<path d="M32.8125 12.5H17.1875C16.3587 12.5 15.5638 12.8292 14.9778 13.4153C14.3917 14.0013 14.0625 14.7962 14.0625 15.625V31.25H18.75V18.75H19.5312V50H24.6094V32.0312H25.3906V50H30.4688V18.75H31.25V31.25H35.9375V15.625C35.9375 14.7962 35.6083 14.0013 35.0222 13.4153C34.4362 12.8292 33.6413 12.5 32.8125 12.5Z" fill="#5A417E"/>
</svg>
