<svg width="22" height="42" viewBox="0 0 22 42" fill="none" xmlns="http://www.w3.org/2000/svg">
<path d="M6.83337 41.8333V29.3333H0.583374L8.03129 10.5833H14.0209L21.4167 29.3333H15.1667V41.8333H6.83337ZM11 8.5C9.85421 8.5 8.87365 8.09167 8.05837 7.27501C7.24171 6.45973 6.83337 5.47917 6.83337 4.33334C6.83337 3.18751 7.24171 2.20625 8.05837 1.38959C8.87365 0.57431 9.85421 0.166672 11 0.166672C12.1459 0.166672 13.1271 0.57431 13.9438 1.38959C14.7591 2.20625 15.1667 3.18751 15.1667 4.33334C15.1667 5.47917 14.7591 6.45973 13.9438 7.27501C13.1271 8.09167 12.1459 8.5 11 8.5Z" fill="#5A417E"/>
</svg>
