<svg width="25" height="25" viewBox="0 0 25 25" fill="none" xmlns="http://www.w3.org/2000/svg">
<path d="M9.52449 18.8657H15.4739H9.52449ZM12.4998 1.04163V2.31477V1.04163ZM20.6022 4.39764L19.702 5.29776L20.6022 4.39764ZM23.9582 12.5H22.685H23.9582ZM2.31465 12.5H1.0415H2.31465ZM5.29764 5.29776L4.39752 4.39764L5.29764 5.29776ZM7.99798 17.0018C7.10789 16.1115 6.50178 14.9772 6.25629 13.7424C6.0108 12.5076 6.13696 11.2278 6.61882 10.0647C7.10068 8.90161 7.91659 7.90751 8.9634 7.20811C10.0102 6.50871 11.2409 6.13541 12.4998 6.13541C13.7588 6.13541 14.9895 6.50871 16.0363 7.20811C17.0831 7.90751 17.899 8.90161 18.3809 10.0647C18.8627 11.2278 18.9889 12.5076 18.7434 13.7424C18.4979 14.9772 17.8918 16.1115 17.0017 17.0018L16.304 17.6982C15.9051 18.0972 15.5888 18.5708 15.3729 19.092C15.1571 19.6132 15.0461 20.1718 15.0461 20.736V21.412C15.0461 22.0873 14.7779 22.735 14.3003 23.2125C13.8228 23.69 13.1752 23.9583 12.4998 23.9583C11.8245 23.9583 11.1769 23.69 10.6993 23.2125C10.2218 22.735 9.95354 22.0873 9.95354 21.412V20.736C9.95354 19.5965 9.5003 18.5029 8.69567 17.6982L7.99798 17.0018Z" stroke="#4E30BA" stroke-width="1.83333" stroke-linecap="round" stroke-linejoin="round"/>
</svg>
