<svg width="45" height="45" viewBox="0 0 45 45" fill="none" xmlns="http://www.w3.org/2000/svg">
<path d="M20.8212 0.729736C20.8212 0.729736 6.24005 21.1111 6.88452 29.3683C7.52899 37.9478 13.3292 41.4924 20.8212 41.6938C29.1187 41.8952 34.5162 34.6047 34.7578 29.3683C35.0801 21.0708 20.8212 0.729736 20.8212 0.729736Z" fill="#DB615D"/>
<path d="M23.9227 5.44244C23.963 5.523 35.4426 28.16 21.9087 36.2561C18.2836 38.4312 14.9807 39.2368 12.0806 39.2771C14.457 40.848 17.4377 41.6133 20.7809 41.6939C29.0784 41.8953 34.4759 34.6047 34.7176 29.3684C34.9592 23.5682 28.1117 11.9274 23.9227 5.44244Z" fill="#B44541"/>
<path d="M19.0491 34.3629C18.7671 34.3629 18.4852 34.2421 18.2838 34.0004L14.0544 28.6433L4.42768 34.1615C3.98461 34.4435 3.38042 34.2824 3.13874 33.799C2.85678 33.356 3.0179 32.7518 3.50125 32.5101L13.8128 26.589C14.2156 26.3474 14.7392 26.4682 15.0211 26.8307L18.888 31.7448L21.9492 26.589C22.1506 26.2668 22.4728 26.1057 22.8353 26.1057C23.1979 26.1057 23.5201 26.3474 23.6409 26.6696L25.6952 31.06L35.3622 16.3984C35.6442 15.9553 36.2484 15.8344 36.6914 16.1164C37.1345 16.3984 37.2553 17.0025 36.9734 17.4456L26.3799 33.5574C26.1785 33.8393 25.8563 34.0004 25.4938 34.0004C25.1313 33.9601 24.8493 33.7587 24.6882 33.4365L22.6742 29.1266L19.8144 33.9199C19.6533 34.2018 19.3713 34.3629 19.0491 34.4032C19.0894 34.3629 19.0491 34.3629 19.0491 34.3629Z" fill="#FDBC6E"/>
<path d="M39.2695 12.5719L31.8179 16.7207L38.1014 20.9097L39.2695 12.5719Z" fill="#FDBC6E"/>
</svg>
