<svg width="18" height="42" viewBox="0 0 18 42" fill="none" xmlns="http://www.w3.org/2000/svg">
<path d="M4.83329 41.8333V27.25H0.666626V14.75C0.666626 13.6042 1.07496 12.6229 1.89163 11.8062C2.70829 10.9896 3.68885 10.5819 4.83329 10.5833H13.1666C14.3125 10.5833 15.2937 10.9917 16.1104 11.8083C16.927 12.625 17.3347 13.6055 17.3333 14.75V27.25H13.1666V41.8333H4.83329ZM8.99996 8.49999C7.85413 8.49999 6.87288 8.09166 6.05621 7.27499C5.23954 6.45833 4.8319 5.47777 4.83329 4.33333C4.83329 3.18749 5.24163 2.20624 6.05829 1.38958C6.87496 0.57291 7.85551 0.165271 8.99996 0.16666C10.1458 0.16666 11.127 0.574993 11.9437 1.39166C12.7604 2.20833 13.168 3.18888 13.1666 4.33333C13.1666 5.47916 12.7583 6.46041 11.9416 7.27708C11.125 8.09374 10.1444 8.50138 8.99996 8.49999Z" fill="#5A417E"/>
</svg>
