<svg width="30" height="42" viewBox="0 0 30 42" fill="none" xmlns="http://www.w3.org/2000/svg">
<path d="M12.9166 9.54167C14.1598 9.54167 15.3521 9.04781 16.2312 8.16873C17.1103 7.28965 17.6041 6.09737 17.6041 4.85417C17.6041 3.61097 17.1103 2.41868 16.2312 1.5396C15.3521 0.660528 14.1598 0.166668 12.9166 0.166668C11.6734 0.166668 10.4811 0.660528 9.60206 1.5396C8.72299 2.41868 8.22913 3.61097 8.22913 4.85417C8.22913 6.09737 8.72299 7.28965 9.60206 8.16873C10.4811 9.04781 11.6734 9.54167 12.9166 9.54167ZM26.4583 22.0417C25.6295 22.0417 24.8346 22.3709 24.2486 22.957C23.6625 23.543 23.3333 24.3379 23.3333 25.1667V25.524C23.3333 25.8002 23.443 26.0652 23.6384 26.2605C23.8337 26.4559 24.0987 26.5656 24.375 26.5656C24.6512 26.5656 24.9162 26.4559 25.1115 26.2605C25.3069 26.0652 25.4166 25.8002 25.4166 25.524V25.1667C25.4166 24.8904 25.5264 24.6254 25.7217 24.4301C25.9171 24.2347 26.182 24.125 26.4583 24.125C26.7346 24.125 26.9995 24.2347 27.1949 24.4301C27.3902 24.6254 27.5 24.8904 27.5 25.1667V40.7354C27.5 41.0117 27.6097 41.2766 27.8051 41.472C28.0004 41.6673 28.2654 41.7771 28.5416 41.7771C28.8179 41.7771 29.0828 41.6673 29.2782 41.472C29.4735 41.2766 29.5833 41.0117 29.5833 40.7354V25.1667C29.5833 24.3379 29.254 23.543 28.668 22.957C28.0819 22.3709 27.2871 22.0417 26.4583 22.0417ZM20.9468 17.0198L19.1666 16.2427L20.8281 16.9479L20.9468 17.0198ZM22.2239 18.126C21.8617 17.6898 21.4303 17.3161 20.9468 17.0198L27.5 19.8833V19.7833V19.7854C27.5989 20.9312 26.7135 21.9385 25.5218 22.0354C24.3406 22.1292 23.301 21.2917 23.1875 20.1594V20.1573C23.1563 19.9735 23.111 19.7924 23.052 19.6156C22.8695 19.0726 22.5888 18.5677 22.2239 18.126Z" fill="#5A417E"/>
<path fill-rule="evenodd" clip-rule="evenodd" d="M27.4999 19.7823L20.8281 16.949C20.3058 16.645 19.7477 16.4074 19.1666 16.2417V39.75C19.1664 40.2844 18.9608 40.7984 18.5924 41.1855C18.224 41.5726 17.7208 41.8033 17.1871 41.83C16.6533 41.8566 16.1297 41.6771 15.7246 41.3285C15.3194 40.98 15.0637 40.4891 15.0104 39.9573L13.9687 29.5406C13.9618 29.4717 13.9583 29.4026 13.9583 29.3333H11.8749C11.8749 29.4021 11.8718 29.4719 11.8645 29.5406L10.8229 39.9573C10.7695 40.4891 10.5138 40.98 10.1087 41.3285C9.70353 41.6771 9.17994 41.8566 8.64617 41.83C8.1124 41.8033 7.60927 41.5726 7.24083 41.1855C6.87239 40.7984 6.66681 40.2844 6.66661 39.75V25.0823C4.91765 24.85 3.44786 24.1469 2.35828 23.0771C1.73397 22.4652 1.24007 21.7332 0.906357 20.9253C0.572648 20.1173 0.40605 19.2501 0.41661 18.376C0.425256 17.5045 0.606445 16.6433 0.949718 15.8421C1.29299 15.041 1.79155 14.3158 2.41661 13.7083C3.76036 12.3969 5.67598 11.625 7.9739 11.625H15.5989C20.7791 11.625 23.8739 13.4188 25.6197 15.5406C26.3063 16.373 26.8338 17.3246 27.176 18.3479C27.3281 18.8063 27.4468 19.2781 27.4979 19.7573V19.7729L27.4999 19.7792V19.7823ZM5.4489 20.1594C5.71661 20.4219 6.10619 20.676 6.66661 20.8344V15.9688C6.14578 16.1271 5.76661 16.374 5.49682 16.6365C5.2607 16.8689 5.07289 17.1458 4.94417 17.4512C4.81546 17.7565 4.74839 18.0843 4.74682 18.4156C4.74057 19.0823 4.98849 19.7073 5.4489 20.1594Z" fill="#5A417E"/>
</svg>
