<svg width="44" height="44" viewBox="0 0 44 44" fill="none" xmlns="http://www.w3.org/2000/svg">
<path d="M11.4399 6.73202C8.66792 6.68802 5.93992 8.05202 4.35592 11.924C-0.836083 24.376 20.8119 37.268 20.8119 37.268C20.8119 37.268 42.4599 24.332 37.3119 11.924C32.9999 1.58402 20.8119 9.02002 20.8119 14.036C20.8119 10.912 16.0599 6.82002 11.4399 6.73202Z" fill="#DB615D"/>
<path d="M34.8478 8.40399C34.6718 17.732 27.8078 29.348 17.2478 28.292C8.27182 27.412 4.92782 18.832 3.73982 13.816C1.27582 25.652 20.8118 37.268 20.8118 37.268C20.8118 37.268 42.4598 24.332 37.3118 11.924C36.6518 10.384 35.8158 9.23999 34.8478 8.40399Z" fill="#B44541"/>
<path d="M21.2519 27.676C21.1199 27.676 20.9879 27.632 20.8999 27.5L13.7279 19.008L13.8159 25.08C13.8159 25.3 13.6399 25.52 13.4199 25.564L1.31989 27.588C1.05589 27.632 0.835895 27.456 0.791895 27.192C0.747895 26.928 0.923895 26.708 1.18789 26.664L12.8919 24.684L12.7599 17.688C12.7599 17.468 12.8919 17.292 13.0679 17.248C13.2439 17.16 13.4639 17.248 13.5959 17.38L21.0319 26.18L23.0999 17.028C23.1439 16.808 23.3199 16.676 23.5399 16.676C23.7599 16.676 23.9359 16.808 24.0239 17.028L25.1679 20.9L26.0919 18.216C26.1359 18.04 26.2679 17.952 26.4439 17.908C26.6199 17.864 26.7959 17.952 26.8839 18.084L28.5559 20.064L42.6359 16.72C42.8999 16.676 43.1639 16.808 43.2079 17.072C43.2519 17.336 43.1199 17.6 42.8559 17.644L28.4239 20.988C28.2479 21.032 28.0719 20.988 27.9399 20.856L26.6199 19.316L25.5199 22.616C25.4759 22.792 25.2999 22.924 25.0799 22.924C24.8599 22.924 24.6839 22.792 24.6399 22.572L23.5839 19.008L21.7359 27.324C21.6919 27.5 21.5599 27.632 21.3839 27.676C21.3399 27.676 21.2959 27.676 21.2519 27.676Z" fill="#FC9C53"/>
</svg>
