<svg width="23" height="23" viewBox="0 0 23 23" fill="none" xmlns="http://www.w3.org/2000/svg">
<path d="M7.20296 11.5C7.20296 11.8798 7.05206 12.2441 6.78345 12.5127C6.51485 12.7813 6.15054 12.9323 5.77067 12.9323C5.3908 12.9323 5.02649 12.7813 4.75789 12.5127C4.48928 12.2441 4.33838 11.8798 4.33838 11.5C4.33838 11.1201 4.48928 10.7558 4.75789 10.4872C5.02649 10.2186 5.3908 10.0677 5.77067 10.0677C6.15054 10.0677 6.51485 10.2186 6.78345 10.4872C7.05206 10.7558 7.20296 11.1201 7.20296 11.5ZM12.9321 11.5C12.9321 11.8798 12.7812 12.2441 12.5126 12.5127C12.244 12.7813 11.8797 12.9323 11.4998 12.9323C11.12 12.9323 10.7557 12.7813 10.4871 12.5127C10.2184 12.2441 10.0675 11.8798 10.0675 11.5C10.0675 11.1201 10.2184 10.7558 10.4871 10.4872C10.7557 10.2186 11.12 10.0677 11.4998 10.0677C11.8797 10.0677 12.244 10.2186 12.5126 10.4872C12.7812 10.7558 12.9321 11.1201 12.9321 11.5ZM18.6613 11.5C18.6613 11.8798 18.5104 12.2441 18.2418 12.5127C17.9732 12.7813 17.6089 12.9323 17.229 12.9323C16.8491 12.9323 16.4848 12.7813 16.2162 12.5127C15.9476 12.2441 15.7967 11.8798 15.7967 11.5C15.7967 11.1201 15.9476 10.7558 16.2162 10.4872C16.4848 10.2186 16.8491 10.0677 17.229 10.0677C17.6089 10.0677 17.9732 10.2186 18.2418 10.4872C18.5104 10.7558 18.6613 11.1201 18.6613 11.5ZM11.4998 0.041626C8.4609 0.041626 5.54643 1.24884 3.39757 3.39769C1.24872 5.54655 0.0415039 8.46102 0.0415039 11.5C0.0415039 14.5389 1.24872 17.4534 3.39757 19.6022C5.54643 21.7511 8.4609 22.9583 11.4998 22.9583C14.5388 22.9583 17.4533 21.7511 19.6021 19.6022C21.751 17.4534 22.9582 14.5389 22.9582 11.5C22.9582 8.46102 21.751 5.54655 19.6021 3.39769C17.4533 1.24884 14.5388 0.041626 11.4998 0.041626ZM1.4738 11.5C1.4738 10.1833 1.73313 8.87957 2.23698 7.66316C2.74084 6.44674 3.47935 5.34148 4.41035 4.41048C5.34136 3.47947 6.44662 2.74096 7.66304 2.2371C8.87945 1.73325 10.1832 1.47392 11.4998 1.47392C12.8165 1.47392 14.1202 1.73325 15.3366 2.2371C16.5531 2.74096 17.6583 3.47947 18.5893 4.41048C19.5203 5.34148 20.2588 6.44674 20.7627 7.66316C21.2666 8.87957 21.5259 10.1833 21.5259 11.5C21.5259 14.159 20.4696 16.7092 18.5893 18.5894C16.7091 20.4697 14.1589 21.526 11.4998 21.526C8.84076 21.526 6.2906 20.4697 4.41035 18.5894C2.53011 16.7092 1.4738 14.159 1.4738 11.5Z" fill="#4E30BA"/>
</svg>
