<svg width="44" height="36" viewBox="0 0 44 36" fill="none" xmlns="http://www.w3.org/2000/svg">
<g clip-path="url(#clip0_1_2703)">
<path d="M21.1806 0.583862C21.1806 0.583862 6.29132 17.9273 6.94941 24.9538C7.6075 32.2545 13.5303 35.2707 21.1806 35.4421C29.6535 35.6135 35.165 29.4096 35.4118 24.9538C35.7409 17.893 21.1806 0.583862 21.1806 0.583862Z" fill="#DB615D"/>
<path d="M24.3478 4.59412C24.3889 4.66267 36.1112 23.9255 22.2913 30.8149C18.5895 32.6658 15.2168 33.3513 12.2554 33.3856C14.6821 34.7223 17.7257 35.3736 21.1396 35.4421C29.6125 35.6135 35.124 29.4096 35.3708 24.9538C35.6176 20.0181 28.6254 10.1125 24.3478 4.59412Z" fill="#B44541"/>
<ellipse cx="31" cy="27.5" rx="9" ry="7.5" fill="#F1EADA"/>
<path d="M30.3161 33.084C29.5401 33.084 28.8321 32.904 28.1921 32.544C27.5521 32.176 27.0441 31.668 26.6681 31.02C26.3001 30.364 26.1161 29.628 26.1161 28.812C26.1161 27.996 26.3001 27.264 26.6681 26.616C27.0441 25.96 27.5521 25.452 28.1921 25.092C28.8321 24.724 29.5401 24.54 30.3161 24.54C31.1001 24.54 31.8121 24.724 32.4521 25.092C33.0921 25.452 33.5961 25.956 33.9641 26.604C34.3321 27.252 34.5161 27.988 34.5161 28.812C34.5161 29.636 34.3321 30.372 33.9641 31.02C33.5961 31.668 33.0921 32.176 32.4521 32.544C31.8121 32.904 31.1001 33.084 30.3161 33.084ZM30.3161 32.136C30.9001 32.136 31.4241 32 31.8881 31.728C32.3601 31.456 32.7281 31.068 32.9921 30.564C33.2641 30.06 33.4001 29.476 33.4001 28.812C33.4001 28.14 33.2641 27.556 32.9921 27.06C32.7281 26.556 32.3641 26.168 31.9001 25.896C31.4361 25.624 30.9081 25.488 30.3161 25.488C29.7241 25.488 29.1961 25.624 28.7321 25.896C28.2681 26.168 27.9001 26.556 27.6281 27.06C27.3641 27.556 27.2321 28.14 27.2321 28.812C27.2321 29.476 27.3641 30.06 27.6281 30.564C27.9001 31.068 28.2681 31.456 28.7321 31.728C29.2041 32 29.7321 32.136 30.3161 32.136Z" fill="#50555C"/>
<path d="M36.9099 34.27C37.7566 33.59 38.4199 33.0333 38.8999 32.6C39.3799 32.16 39.7832 31.7033 40.1099 31.23C40.4432 30.75 40.6099 30.28 40.6099 29.82C40.6099 29.3867 40.5032 29.0467 40.2899 28.8C40.0832 28.5467 39.7466 28.42 39.2799 28.42C38.8266 28.42 38.4732 28.5633 38.2199 28.85C37.9732 29.13 37.8399 29.5067 37.8199 29.98H36.9399C36.9666 29.2333 37.1932 28.6567 37.6199 28.25C38.0466 27.8433 38.5966 27.64 39.2699 27.64C39.9566 27.64 40.4999 27.83 40.8999 28.21C41.3066 28.59 41.5099 29.1133 41.5099 29.78C41.5099 30.3333 41.3432 30.8733 41.0099 31.4C40.6832 31.92 40.3099 32.38 39.8899 32.78C39.4699 33.1733 38.9332 33.6333 38.2799 34.16H41.7199V34.92H36.9099V34.27Z" fill="#50555C"/>
</g>
<defs>
<clipPath id="clip0_1_2703">
<rect width="43.2" height="36" fill="white" transform="translate(0.399902)"/>
</clipPath>
</defs>
</svg>
