<svg width="50" height="50" viewBox="0 0 50 50" fill="none" xmlns="http://www.w3.org/2000/svg">
<path d="M24.9756 10.9375C27.9959 10.9375 30.4443 8.48906 30.4443 5.46875C30.4443 2.44844 27.9959 0 24.9756 0C21.9553 0 19.5068 2.44844 19.5068 5.46875C19.5068 8.48906 21.9553 10.9375 24.9756 10.9375Z" fill="#5A417E"/>
<path d="M38.5381 27.1387L37.5293 23.7783V23.7676L35.3359 16.457H35.3311L35.0859 15.6318C34.8169 14.727 34.2627 13.9332 33.5061 13.3687C32.7495 12.8042 31.8307 12.4992 30.8867 12.499H19.168C18.2238 12.4987 17.3049 12.8036 16.5482 13.3682C15.7914 13.9327 15.2374 14.7267 14.9688 15.6318L14.7236 16.457H14.7178L12.5244 23.7676V23.7783L11.5117 27.1387C11.207 28.1533 11.7363 29.2539 12.7393 29.5938C12.9877 29.6783 13.2507 29.712 13.5124 29.6927C13.7742 29.6733 14.0294 29.6015 14.2627 29.4813C14.4961 29.3612 14.7028 29.1952 14.8706 28.9934C15.0384 28.7916 15.1638 28.558 15.2393 28.3066L17.7373 19.9814L17.9492 19.2754C18.0111 19.1028 18.1317 18.9575 18.2899 18.8649C18.4481 18.7723 18.6338 18.7383 18.8146 18.7688C18.9953 18.7992 19.1596 18.8923 19.2787 19.0317C19.3977 19.1711 19.464 19.3479 19.4658 19.5313C19.4658 19.5841 19.4602 19.6368 19.4492 19.6885L15.1787 33.9258C15.1087 34.1591 15.0942 34.4055 15.1363 34.6454C15.1785 34.8853 15.2761 35.112 15.4215 35.3074C15.5668 35.5029 15.7558 35.6616 15.9735 35.771C16.1911 35.8804 16.4312 35.9374 16.6748 35.9375H19.5068V47.1377C19.5068 48.7451 20.5352 50 21.8506 50C23.166 50 24.1943 48.7451 24.1943 47.1377V35.9375H25.7568V47.1377C25.7568 48.7451 26.7852 50 28.1006 50C29.416 50 30.4443 48.7451 30.4443 47.1377V35.9375H33.374C33.6177 35.9376 33.858 35.8807 34.0757 35.7714C34.2935 35.662 34.4826 35.5033 34.6281 35.3078C34.7735 35.1124 34.8713 34.8856 34.9135 34.6456C34.9557 34.4057 34.9412 34.1591 34.8711 33.9258L30.5996 19.6865C30.5889 19.6355 30.5837 19.5834 30.584 19.5313C30.585 19.3474 30.6508 19.1698 30.7699 19.0296C30.8889 18.8895 31.0536 18.7959 31.2349 18.7652C31.4162 18.7345 31.6025 18.7687 31.761 18.8619C31.9195 18.955 32.0401 19.1011 32.1016 19.2744L32.3135 19.9805L34.8106 28.3057C34.8864 28.5567 35.012 28.7898 35.1798 28.9912C35.3477 29.1927 35.5543 29.3582 35.7876 29.4781C36.0208 29.5979 36.2757 29.6696 36.5372 29.6888C36.7987 29.708 37.0614 29.6743 37.3096 29.5898C38.3125 29.2539 38.8418 28.1533 38.5381 27.1387Z" fill="#5A417E"/>
</svg>
